<?xml version="1.0" encoding="UTF-8"?>
<svg width="752pt" height="752pt" version="1.1" viewBox="0 0 752 752" xmlns="http://www.w3.org/2000/svg">
 <path d="m361.62 267.11c-0.007813-3.8008 1.5-7.4492 4.1836-10.141 2.6875-2.6875 6.332-4.1992 10.133-4.1992h0.13281c7.9141 0 14.324 6.4141 14.324 14.324s-6.4102 14.324-14.324 14.324h-0.13281c-3.7969 0-7.4414-1.5078-10.125-4.1953-2.6875-2.6875-4.1953-6.332-4.1914-10.129zm14.383 186.33c4.9453 0 9.4023 2.9766 11.293 7.543s0.84375 9.8242-2.6484 13.32c-3.4961 3.4922-8.7539 4.5391-13.32 2.6484-4.5664-1.8945-7.543-6.3477-7.543-11.293 0.019531-6.7422 5.4805-12.199 12.219-12.219zm0 53.121c10.844 0 21.246-4.3047 28.914-11.973 7.668-7.668 11.977-18.066 11.977-28.91 0.003906-10.844-4.3047-21.242-11.973-28.914-7.668-7.668-18.066-11.977-28.91-11.977s-21.242 4.3086-28.91 11.977c-7.668 7.668-11.977 18.066-11.977 28.91 0.011718 10.84 4.3203 21.23 11.984 28.898 7.6641 7.6641 18.055 11.977 28.895 11.988zm-112.51 53.883c-3.8477 0.070313-7.5586-1.4062-10.305-4.1016-2.7422-2.6914-4.2891-6.375-4.2891-10.223 0-3.8438 1.5469-7.5312 4.2891-10.223 2.7461-2.6953 6.457-4.1719 10.305-4.0977h0.13281c3.8438-0.074219 7.5586 1.4023 10.301 4.0977 2.7461 2.6914 4.293 6.3789 4.293 10.223 0 3.8477-1.5469 7.5312-4.293 10.223-2.7422 2.6953-6.457 4.1719-10.301 4.1016zm210.57-14.324v-0.003906c0.015625-7.8984 6.4258-14.297 14.324-14.293h0.15234c7.8047 0.14844 14.055 6.5156 14.055 14.324 0 7.8047-6.25 14.172-14.055 14.32h-0.15234c-3.7969 0-7.4414-1.5078-10.129-4.1953-2.6875-2.6836-4.1953-6.3281-4.1953-10.129zm-224.9-340.24c-0.003906-3.7969 1.5078-7.4414 4.1914-10.129 2.6875-2.6875 6.332-4.1953 10.133-4.1953h0.13281c3.8438-0.070313 7.5586 1.4062 10.301 4.0977 2.7461 2.6953 4.293 6.3789 4.293 10.227 0 3.8438-1.5469 7.5273-4.293 10.223-2.7422 2.6953-6.457 4.1719-10.301 4.0977h-0.13281c-3.8008 0-7.4414-1.5078-10.129-4.1914-2.6875-2.6875-4.1953-6.3281-4.1953-10.129zm224.9 0c0-3.7969 1.5078-7.4414 4.1953-10.129s6.332-4.1953 10.129-4.1953h0.15234c7.8047 0.14844 14.055 6.5156 14.055 14.324 0 7.8047-6.25 14.172-14.055 14.32h-0.15234c-3.7969 0-7.4414-1.5078-10.129-4.1914-2.6836-2.6875-4.1953-6.3281-4.1953-10.129zm-98.062 14.32c-12.438 0-24.367 4.9414-33.164 13.738-8.7969 8.7969-13.738 20.727-13.738 33.168 0 12.438 4.9414 24.371 13.738 33.164 8.7969 8.7969 20.727 13.738 33.164 13.738 12.441 0 24.371-4.9414 33.168-13.738 8.7969-8.793 13.738-20.727 13.738-33.164-0.015625-12.438-4.9609-24.359-13.754-33.152-8.793-8.793-20.715-13.738-33.152-13.754zm0 122.45c20.039 0.003906 39.254-7.957 53.426-22.125 14.168-14.168 22.129-33.383 22.129-53.418 0-20.039-7.957-39.254-22.125-53.426-14.168-14.168-33.383-22.129-53.422-22.129-20.035 0-39.254 7.9609-53.422 22.129-14.168 14.168-22.129 33.383-22.129 53.422 0.023438 20.027 7.9883 39.23 22.148 53.395 14.164 14.164 33.367 22.129 53.395 22.152zm0 56.902c-17.535 0-34.355 6.9648-46.754 19.367-12.402 12.402-19.367 29.219-19.367 46.758 0 17.535 6.9688 34.355 19.367 46.754 12.402 12.402 29.223 19.367 46.758 19.367 17.539 0 34.355-6.9688 46.758-19.371 12.398-12.402 19.363-29.219 19.363-46.758-0.023438-17.531-6.9961-34.336-19.391-46.73-12.398-12.395-29.203-19.367-46.734-19.387zm0 160.89c25.137 0 49.242-9.9844 67.016-27.754 17.773-17.773 27.758-41.879 27.758-67.012 0-25.133-9.9844-49.238-27.754-67.012-17.773-17.773-41.879-27.758-67.012-27.758-25.133 0-49.238 9.9844-67.012 27.754-17.773 17.773-27.758 41.879-27.758 67.012 0.03125 25.125 10.023 49.211 27.789 66.977 17.762 17.766 41.852 27.762 66.973 27.793zm-139.08-0.94141v-0.003906c0.003906 4.5117 1.7969 8.832 4.9883 12.023 3.1875 3.1875 7.5117 4.9805 12.02 4.9844h244.14c4.5078-0.003906 8.832-1.7969 12.02-4.9844 3.1875-3.1914 4.9805-7.5117 4.9844-12.023v-367c-0.003906-4.5078-1.7969-8.832-4.9844-12.02s-7.5117-4.9805-12.02-4.9883h-244.14c-4.5078 0.007812-8.832 1.8008-12.02 4.9883-3.1914 3.1875-4.9844 7.5117-4.9883 12.02zm261.15 45.648c12.102-0.011719 23.707-4.8242 32.266-13.383 8.5586-8.5586 13.371-20.164 13.379-32.27v-367c-0.007812-12.102-4.8203-23.707-13.379-32.266s-20.164-13.371-32.266-13.387h-244.14c-12.102 0.015625-23.707 4.8281-32.266 13.387-8.5547 8.5586-13.371 20.164-13.383 32.266v367c0.015625 12.105 4.8281 23.707 13.387 32.266 8.5547 8.5586 20.16 13.371 32.262 13.387z" fill="#fff" fill-rule="evenodd"/>
</svg>
