<?xml version="1.0" encoding="UTF-8"?>
<svg width="752pt" height="752pt" version="1.1" viewBox="0 0 752 752" xmlns="http://www.w3.org/2000/svg">
 <g fill="#fff">
  <path d="m204.85 591.86h260.54c27.227 0 49.379-22.113 49.379-49.289l-0.003906-328.13h44.793c2.8438 0 5.1484-2.3047 5.1484-5.1484 0-27.176-22.152-49.289-49.379-49.289l-253.02 0.003907c-27.227 0-49.379 22.113-49.379 49.289v193.38l-39.672-0.003907c-9.8047 0-17.781 7.9648-17.781 17.758v122.14c0 27.18 22.152 49.289 49.379 49.289zm-39.086-171.43c0-4.1172 3.3594-7.4648 7.4883-7.4648h39.672v104.51c0 0.035157 0.019531 0.066407 0.019531 0.10156v7.1641c0 10.48-8.5469 19.004-19.055 19.004-2.8438 0-5.1484 2.3047-5.1484 5.1484s2.3047 5.1484 5.1484 5.1484c16.188 0 29.352-13.145 29.352-29.301v-2.5469-0.35156-0.39844-0.32031-0.019531c0-14.148-0.003906-76.691-0.019531-311.81 0-21.504 17.535-38.992 39.082-38.992h253.02c19.801 0 36.215 14.766 38.742 33.844l-257.68 0.007813c-2.8438 0-5.1484 2.3047-5.1484 5.1484s2.3047 5.1484 5.1484 5.1484h208.08v328.13c0 21.504-17.535 38.992-39.082 38.992h-260.54c-21.551 0-39.082-17.492-39.082-38.992z"/>
  <path d="m250.6 334.17h56.711c1.4219 0 2.5742-1.1523 2.5742-2.5742v-56.629c0-1.4219-1.1523-2.5742-2.5742-2.5742l-56.711 0.003906c-1.4219 0-2.5742 1.1523-2.5742 2.5742v56.629c0 1.418 1.1523 2.5703 2.5742 2.5703zm2.5742-56.625h51.562v51.48l-51.562-0.003907z"/>
  <path d="m337.8 279.68h139.28c1.4219 0 2.5742-1.1523 2.5742-2.5742s-1.1523-2.5742-2.5742-2.5742h-139.28c-1.4219 0-2.5742 1.1523-2.5742 2.5742 0.003906 1.4219 1.1562 2.5742 2.5742 2.5742z"/>
  <path d="m337.8 305.86h139.28c1.4219 0 2.5742-1.1523 2.5742-2.5742s-1.1523-2.5742-2.5742-2.5742l-139.28 0.003907c-1.4219 0-2.5742 1.1523-2.5742 2.5742 0.003906 1.418 1.1562 2.5703 2.5742 2.5703z"/>
  <path d="m337.8 332.03h89.66c1.4219 0 2.5742-1.1523 2.5742-2.5742s-1.1523-2.5742-2.5742-2.5742h-89.66c-1.4219 0-2.5742 1.1523-2.5742 2.5742 0.003906 1.4219 1.1562 2.5742 2.5742 2.5742z"/>
  <path d="m250.6 428.89h56.711c1.4219 0 2.5742-1.1523 2.5742-2.5742v-56.629c0-1.4219-1.1523-2.5742-2.5742-2.5742h-56.711c-1.4219 0-2.5742 1.1523-2.5742 2.5742v56.629c0 1.4219 1.1523 2.5742 2.5742 2.5742zm2.5742-56.629h51.562v51.48h-51.562z"/>
  <path d="m337.8 374.41h139.28c1.4219 0 2.5742-1.1523 2.5742-2.5742s-1.1523-2.5742-2.5742-2.5742l-139.28 0.003907c-1.4219 0-2.5742 1.1523-2.5742 2.5742 0.003906 1.418 1.1562 2.5703 2.5742 2.5703z"/>
  <path d="m337.8 400.58h139.28c1.4219 0 2.5742-1.1523 2.5742-2.5742 0-1.4219-1.1523-2.5742-2.5742-2.5742h-139.28c-1.4219 0-2.5742 1.1523-2.5742 2.5742 0.003906 1.4219 1.1562 2.5742 2.5742 2.5742z"/>
  <path d="m337.8 426.75h89.66c1.4219 0 2.5742-1.1523 2.5742-2.5742 0-1.4219-1.1523-2.5742-2.5742-2.5742h-89.66c-1.4219 0-2.5742 1.1523-2.5742 2.5742 0.003906 1.418 1.1562 2.5742 2.5742 2.5742z"/>
  <path d="m250.6 523.62h56.711c1.4219 0 2.5742-1.1523 2.5742-2.5742v-56.629c0-1.4219-1.1523-2.5742-2.5742-2.5742l-56.711 0.003906c-1.4219 0-2.5742 1.1523-2.5742 2.5742v56.629c0 1.418 1.1523 2.5703 2.5742 2.5703zm2.5742-56.625h51.562v51.48l-51.562-0.003906z"/>
  <path d="m337.8 469.14h139.28c1.4219 0 2.5742-1.1523 2.5742-2.5742s-1.1523-2.5742-2.5742-2.5742h-139.28c-1.4219 0-2.5742 1.1523-2.5742 2.5742 0.003906 1.4219 1.1562 2.5742 2.5742 2.5742z"/>
  <path d="m337.8 495.3h139.28c1.4219 0 2.5742-1.1523 2.5742-2.5742s-1.1523-2.5742-2.5742-2.5742l-139.28 0.003906c-1.4219 0-2.5742 1.1523-2.5742 2.5742 0.003906 1.418 1.1562 2.5703 2.5742 2.5703z"/>
  <path d="m337.8 521.48h89.66c1.4219 0 2.5742-1.1523 2.5742-2.5742s-1.1523-2.5742-2.5742-2.5742h-89.66c-1.4219 0-2.5742 1.1523-2.5742 2.5742 0.003906 1.4219 1.1562 2.5742 2.5742 2.5742z"/>
  <path d="m596.54 535.29v-266.86c0-8.0742-6.5742-14.641-14.652-14.641h-31.684c-8.082 0-14.66 6.5703-14.66 14.641v266.72c0.050782 1.0078 0.058594 1.7422 0.38281 2.5039l20.41 48.043c1.7305 3.8789 5.4375 6.2852 9.6836 6.2852 4.2422 0 7.9492-2.4062 9.7109-6.3672l20.371-47.965c0.015625-0.027344 0.4375-2.1289 0.4375-2.3633zm-23.043 28.551h-15.262l-9.7891-23.047h35.066zm12.746-33.695h-40.402v-206.27h40.402zm0-216.57h-40.402v-15.941h40.402zm0-26.238h-40.402v-18.906c0-2.3945 1.957-4.3477 4.3633-4.3477h31.684c2.3984 0 4.3555 1.9492 4.3555 4.3477z"/>
 </g>
</svg>
