<?xml version="1.0" encoding="UTF-8"?>
<svg width="752pt" height="752pt" version="1.1" viewBox="0 0 752 752" xmlns="http://www.w3.org/2000/svg">
 <g fill="#fff">
  <path d="m546.2 154.01h-162.79c-18.508 0-35.605 9.8711-44.859 25.898-9.2539 16.027-9.2539 35.77 0 51.797 9.2539 16.027 26.352 25.898 44.859 25.898h162.79c18.504 0 35.605-9.8711 44.859-25.898 9.25-16.027 9.25-35.77 0-51.797-9.2539-16.027-26.355-25.898-44.859-25.898zm-162.79 88.797c-13.219 0-25.434-7.0547-32.043-18.5-6.6094-11.449-6.6094-25.551 0-37 6.6094-11.445 18.824-18.5 32.043-18.5h45.219c-9.9883 9.7188-15.621 23.062-15.621 37 0 13.934 5.6328 27.277 15.621 37zm162.79 0h-45.281c2.3438-2.2422 4.4688-4.6914 6.3516-7.3281 2.3438-3.3477 1.5273-7.9648-1.8203-10.309-3.3516-2.3438-7.9648-1.5273-10.309 1.8203-6.0508 8.6641-15.516 14.324-26.008 15.562-10.492 1.2344-21.016-2.0781-28.91-9.0977s-12.414-17.082-12.414-27.648 4.5195-20.629 12.414-27.648c7.8945-7.0195 18.418-10.332 28.91-9.0977 10.492 1.2344 19.957 6.8984 26.008 15.559 1.1094 1.6484 2.832 2.7812 4.7852 3.1445s3.9688-0.074219 5.5977-1.2148c1.625-1.1367 2.7266-2.8828 3.0547-4.8438 0.32812-1.957-0.14844-3.9648-1.3164-5.5703-1.8789-2.6406-4.0039-5.0938-6.3477-7.3281h45.285c13.219 0 25.434 7.0547 32.039 18.5 6.6094 11.449 6.6094 25.551 0 37-6.6055 11.445-18.82 18.5-32.039 18.5z"/>
  <path d="m200.04 329.24c-2.8867-2.8867-7.5742-2.8867-10.461 0-16.047 16.055-27.98 35.75-34.781 57.406-0.58594 1.875-0.40625 3.9062 0.5 5.6484 0.91016 1.7422 2.4727 3.0508 4.3477 3.6406 3.9023 1.2266 8.0625-0.94531 9.2852-4.8477 6.082-19.371 16.754-36.988 31.109-51.348 1.3984-1.3867 2.1875-3.2773 2.1875-5.25 0-1.9688-0.78906-3.8594-2.1875-5.25z"/>
  <path d="m420.22 404.12c-1.957 0.15625-3.7734 1.082-5.043 2.5781-1.2734 1.4961-1.9023 3.4336-1.7422 5.3906 1.9141 23.863-2.2656 47.82-12.152 69.625-0.80859 1.7891-0.875 3.8281-0.17969 5.6641 0.69531 1.8398 2.0898 3.3242 3.8789 4.1328 0.96094 0.44141 2.0039 0.66797 3.0586 0.66406 2.9023 0.003907 5.5391-1.6914 6.7422-4.3359 10.93-24.098 15.555-50.578 13.43-76.957-0.16406-1.957-1.0977-3.7695-2.5938-5.0352-1.5-1.2695-3.4414-1.8906-5.3984-1.7266z"/>
  <path d="m516.6 205.81c0 4.0859-3.3164 7.3984-7.4023 7.3984-4.0859 0-7.3984-3.3125-7.3984-7.3984 0-4.0859 3.3125-7.3984 7.3984-7.3984 4.0859 0 7.4023 3.3125 7.4023 7.3984"/>
  <path d="m220.97 318.77c2.1172-2.1172 2.75-5.3008 1.6055-8.0664s-3.8438-4.5664-6.8359-4.5664c-2.9922 0-5.6914 1.8008-6.8359 4.5664-1.1445 2.7656-0.51172 5.9492 1.6055 8.0664 2.8906 2.8867 7.5742 2.8867 10.461 0z"/>
  <path d="m383.18 501.91c-2.1172 2.1172-2.75 5.3008-1.6055 8.0664s3.8438 4.5664 6.8359 4.5664c2.9922 0 5.6914-1.8008 6.8359-4.5664 1.1445-2.7656 0.51172-5.9492-1.6055-8.0664-2.8867-2.8867-7.5703-2.8867-10.461 0z"/>
  <path d="m339 531.39h-14.801v-19.344l57.289-63.23c4.9062-5.1758 7.0977-12.359 5.918-19.395-1.2031-7.0742-5.7188-13.148-12.148-16.344-4.1953-2.0586-8.9336-2.7305-13.535-1.9219-4.6016 0.8125-8.8242 3.0664-12.062 6.4336l-18.062 15.969v-64.961c0.003907-7.207-3.4961-13.965-9.3789-18.129-5.8828-4.1602-13.422-5.207-20.219-2.8047v-8.6641c0-7.9336-4.2305-15.262-11.098-19.227-6.8711-3.9648-15.332-3.9648-22.199 0-6.8711 3.9648-11.102 11.293-11.102 19.227v8.6641c-6.793-2.4023-14.332-1.3555-20.219 2.8047-5.8828 4.1641-9.3789 10.922-9.3789 18.129v8.6719c-6.207-2.2031-13.07-1.5234-18.719 1.8555-5.6523 3.3789-9.5039 9.1016-10.504 15.609-0.25 0.75781-0.37891 1.5547-0.375 2.3516v89.906c0 1.4609 0.43359 2.8906 1.2422 4.1094l13.555 20.309v19.98h-7.3984c-4.0859 0-7.3984 3.3125-7.3984 7.3984v51.801c0 1.9609 0.77734 3.8438 2.1641 5.2305 1.3906 1.3867 3.2734 2.168 5.2344 2.168h133.2c1.9609 0 3.8438-0.78125 5.2305-2.168s2.168-3.2695 2.168-5.2305v-51.801c0-1.9609-0.78125-3.8438-2.168-5.2305s-3.2695-2.168-5.2305-2.168zm-112.24-26.305-13.559-20.312v-86.215c0.0625-0.29688 0.10547-0.59766 0.125-0.90234 0.24219-3.7891 3.3359-6.7656 7.1328-6.8555 3.793-0.089844 7.0273 2.7344 7.4453 6.5078 0 0.18359 0.13281 0.33984 0.17188 0.52344l0.33203 30.043c0.042969 4.0586 3.3438 7.3203 7.3984 7.3203h0.074219c1.9648-0.019531 3.8398-0.82031 5.2148-2.2227 1.375-1.4023 2.1328-3.293 2.1133-5.2578l-0.40625-37v-22.117c0-4.0859 3.3125-7.3984 7.3984-7.3984 4.0859 0 7.3984 3.3125 7.3984 7.3984l0.25781 59.199c0 1.9609 0.78125 3.8438 2.168 5.2305 1.3906 1.3867 3.2695 2.168 5.2344 2.168 1.9609 0 3.8438-0.78125 5.2305-2.168 1.3906-1.3867 2.168-3.2695 2.168-5.2305l-0.25781-59.199v-29.598c0-4.0859 3.3125-7.4023 7.3984-7.4023 4.0859 0 7.3984 3.3164 7.3984 7.4023v29.008-0.003907 0.17188l0.28906 59.656c0.023437 4.0742 3.3281 7.3633 7.4023 7.3633 1.9688 0 3.8555-0.78516 5.2461-2.1797 1.3867-1.3984 2.1641-3.2891 2.1523-5.2578l-0.28906-59.574c0.27734-3.8984 3.4922-6.9336 7.3984-6.9844 1.9648 0 3.8477 0.77734 5.2344 2.168 1.3867 1.3867 2.168 3.2695 2.168 5.2305v81.398c-0.003907 2.9102 1.7031 5.5508 4.3594 6.75 2.6562 1.1953 5.7656 0.72266 7.9453-1.2109l30.789-27.297c2.1406-2.4531 5.6172-3.2539 8.6133-1.9805 2.2656 1.0703 3.8633 3.1836 4.2852 5.6523 0.41406 2.4492-0.35156 4.9492-2.0625 6.7461l-0.14062 0.14844-59.273 65.414c-1.2344 1.3633-1.918 3.1367-1.918 4.9727v22.199h-81.395v-22.199c-0.003906-1.4609-0.43359-2.8906-1.2422-4.1055zm104.84 78.102h-118.39v-36.996h118.39z"/>
  <path d="m464.8 183.61c-5.8867 0-11.531 2.3398-15.695 6.5-4.1641 4.1641-6.5039 9.8125-6.5039 15.699 0 5.8867 2.3398 11.535 6.5039 15.695 4.1641 4.1641 9.8086 6.5039 15.695 6.5039s11.535-2.3398 15.699-6.5039c4.1602-4.1602 6.5-9.8086 6.5-15.695 0-5.8867-2.3398-11.535-6.5-15.699-4.1641-4.1602-9.8125-6.5-15.699-6.5zm0 29.598c-2.9922 0-5.6914-1.8008-6.8359-4.5664-1.1445-2.7656-0.51172-5.9492 1.6055-8.0664 2.1172-2.1133 5.2969-2.7461 8.0625-1.6016 2.7656 1.1445 4.5703 3.8438 4.5703 6.8359 0 1.9609-0.78125 3.8438-2.168 5.2305-1.3906 1.3906-3.2695 2.168-5.2344 2.168z"/>
  <path d="m399.08 313.3c-0.93359 1.7266-1.1367 3.7578-0.57422 5.6367 0.56641 1.8789 1.8555 3.4609 3.5859 4.3906 19.289 10.312 40.828 15.699 62.703 15.68 19.309 0.050782 38.387-4.1523 55.883-12.312 3.6484-1.7578 5.207-6.1211 3.4961-9.793-1.707-3.668-6.0469-5.2852-9.7422-3.625-33.633 15.57-72.621 14.473-105.32-2.9609-3.5938-1.9414-8.082-0.60547-10.027 2.9844z"/>
  <path d="m464.8 302c15.754-0.007812 31.27-3.8594 45.199-11.227 1.7734-0.89453 3.1133-2.4648 3.7188-4.3594 0.60156-1.8945 0.41797-3.9531-0.51172-5.7109-0.92969-1.7578-2.5312-3.0664-4.4375-3.6289-1.9062-0.56641-3.957-0.33984-5.6953 0.625-26.102 13.516-57.402 12.227-82.301-3.3867-1.6523-1.1016-3.6758-1.4922-5.6172-1.082-1.9414 0.40625-3.6367 1.5742-4.7109 3.2461-1.0703 1.668-1.4258 3.6992-0.98828 5.6328 0.44141 1.9336 1.6367 3.6133 3.3242 4.6562 15.52 9.9648 33.578 15.254 52.02 15.234z"/>
  <path d="m525.68 348.84c-19.25 8.2031-39.965 12.406-60.887 12.359-23.223 0.082031-46.16-5.1094-67.086-15.184-3.6406-1.5781-7.8789 0-9.6055 3.5742-1.7227 3.5742-0.32031 7.875 3.1836 9.7422 22.926 11.043 48.062 16.742 73.508 16.664 22.918 0.054688 45.605-4.5547 66.688-13.539 3.7578-1.6016 5.5078-5.9492 3.9062-9.7109-1.6016-3.7578-5.9492-5.5078-9.707-3.9062z"/>
 </g>
</svg>
