<?xml version="1.0" encoding="UTF-8"?>
<svg width="752pt" height="752pt" version="1.1" viewBox="0 0 752 752" xmlns="http://www.w3.org/2000/svg">
 <path d="m370.45 392.12c1.5078 0 2.9922 0.070312 4.4609 0.21484h159.48v-4.9648h-327.4v4.9648h159.01c1.4688-0.14062 2.9531-0.21484 4.4609-0.21484zm26.551-91.668c0-1.0898 0.88281-1.9727 1.9727-1.9727s1.9727 0.88281 1.9727 1.9727c0 1.9023-0.77344 3.6289-2.0195 4.8789-1.2461 1.2461-2.9766 2.0195-4.8789 2.0195-1.0898 0-1.9727-0.88281-1.9727-1.9727 0-1.0898 0.88281-1.9727 1.9727-1.9727 0.8125 0 1.5547-0.33203 2.082-0.86719 0.53516-0.53516 0.86719-1.2695 0.86719-2.082zm141.09-6.0078c0-1.7461 1.4141-3.1562 3.1562-3.1562 1.7461 0 3.1562 1.4141 3.1562 3.1562 0 3.9609-1.6094 7.5547-4.207 10.152-2.5977 2.5977-6.1875 4.207-10.152 4.207-1.7461 0-3.1562-1.4141-3.1562-3.1562 0-1.7461 1.4141-3.1562 3.1562-3.1562 2.2188 0 4.2305-0.89844 5.6836-2.3516s2.3516-3.4648 2.3516-5.6836zm-24.492 59.07c0-1.7461 1.4141-3.1562 3.1562-3.1562 1.7461 0 3.1562 1.4141 3.1562 3.1562 0 4.8242-1.957 9.1875-5.1133 12.344s-7.5312 5.1133-12.344 5.1133c-1.7461 0-3.1562-1.4141-3.1562-3.1562 0-1.7461 1.4141-3.1562 3.1562-3.1562 3.0781 0 5.8633-1.2461 7.8867-3.2695 2.0195-2.0195 3.2695-4.8086 3.2695-7.8867zm-254.91-7.5234c0-1.7461 1.4141-3.1562 3.1562-3.1562 1.7461 0 3.1562 1.4141 3.1562 3.1562 0 8.1289-3.3008 15.492-8.6289 20.82s-12.691 8.6289-20.82 8.6289c-1.7461 0-3.1562-1.4141-3.1562-3.1562 0-1.7461 1.4141-3.1562 3.1562-3.1562 6.3867 0 12.172-2.5898 16.355-6.7734 4.1836-4.1836 6.7734-9.9688 6.7734-16.355zm138.43 91.473c0-1.7461 1.4141-3.1562 3.1562-3.1562 1.7461 0 3.1562 1.4141 3.1562 3.1562 0 9.1094-3.6953 17.355-9.6602 23.324-5.9688 5.9688-14.215 9.6602-23.324 9.6602-1.7461 0-3.1562-1.4141-3.1562-3.1562 0-1.7461 1.4141-3.1562 3.1562-3.1562 7.3633 0 14.035-2.9844 18.855-7.8125 4.8242-4.8242 7.8125-11.492 7.8125-18.855zm-3.0703-153.73c4.6172 0 8.793 1.8711 11.816 4.8945 3.0234 3.0234 4.8945 7.207 4.8945 11.816 0 4.6172-1.8711 8.793-4.8945 11.816-0.99609 0.99609-2.1172 1.8633-3.332 2.582h112.62c-1.0586-0.77344-2.0508-1.625-2.9766-2.5508-4.5703-4.5703-7.3945-10.883-7.3945-17.863 0-6.9766 2.8242-13.293 7.3945-17.863 4.5703-4.5703 10.883-7.3945 17.863-7.3945 6.9766 0 13.293 2.8242 17.863 7.3945 4.5703 4.5703 7.3945 10.883 7.3945 17.863 0 6.9766-2.8242 13.293-7.3945 17.863-0.92188 0.92188-1.918 1.7773-2.9766 2.5508h8.6758c1.7461 0 3.1562 1.4141 3.1562 3.1562v8.9805c0 1.7461-1.4141 3.1562-3.1562 3.1562h-33.895c1.1602 0.85938 2.2578 1.8008 3.2773 2.8242 5.2578 5.2578 8.5078 12.52 8.5078 20.547 0 8.0195-3.25 15.289-8.5078 20.547-3.1406 3.1406-6.9922 5.5664-11.293 7.0078h25.84c1.7461 0 3.1562 1.4141 3.1562 3.1562v11.277c0 1.7461-1.4141 3.1562-3.1562 3.1562h-143.64c3.1328 1.9023 6.0234 4.168 8.6016 6.75 8.207 8.207 13.285 19.543 13.285 32.062s-5.0742 23.852-13.285 32.062c-8.207 8.207-19.543 13.285-32.062 13.285s-23.852-5.0742-32.062-13.285c-8.207-8.207-13.285-19.543-13.285-32.062s5.0742-23.852 13.285-32.062c2.582-2.582 5.4688-4.8477 8.6016-6.75h-143.17c-1.7461 0-3.1562-1.4141-3.1562-3.1562v-11.277c0-1.7461 1.4141-3.1562 3.1562-3.1562h11.816c-3.1484-1.793-6.0391-4-8.5859-6.5508-7.3008-7.3008-11.816-17.379-11.816-28.516s4.5156-21.215 11.816-28.516 17.379-11.816 28.516-11.816c11.137 0 21.215 4.5156 28.516 11.816s11.816 17.379 11.816 28.516-4.5156 21.215-11.816 28.516c-2.5508 2.5508-5.4375 4.7578-8.5859 6.5508h237.72c-4.3008-1.4453-8.1602-3.8672-11.293-7.0078-5.2578-5.2578-8.5078-12.52-8.5078-20.547 0-8.0195 3.25-15.289 8.5078-20.547 1.0195-1.0195 2.1172-1.9648 3.2773-2.8242h-110.79c-1.7461 0-3.1562-1.4141-3.1562-3.1562v-8.9805c0-1.7461 1.4141-3.1562 3.1562-3.1562h11.168c-1.2148-0.71875-2.3359-1.5859-3.332-2.582-3.0234-3.0234-4.8945-7.207-4.8945-11.816 0-4.6172 1.8711-8.793 4.8945-11.816 3.0234-3.0234 7.207-4.8945 11.816-4.8945zm7.3555 9.3594c-1.8789-1.8789-4.4844-3.0469-7.3555-3.0469-2.875 0-5.4688 1.1602-7.3555 3.0469-1.8789 1.8789-3.0469 4.4844-3.0469 7.3555 0 2.875 1.1602 5.4688 3.0469 7.3555 1.8789 1.8789 4.4844 3.0469 7.3555 3.0469 2.875 0 5.4688-1.1602 7.3555-3.0469 1.8789-1.8789 3.0469-4.4844 3.0469-7.3555 0-2.875-1.1602-5.4688-3.0469-7.3555zm142.04-12.051c-3.4258-3.4258-8.1602-5.5469-13.395-5.5469s-9.9688 2.125-13.395 5.5469c-3.4258 3.4258-5.5469 8.1602-5.5469 13.395s2.125 9.9688 5.5469 13.395c3.4258 3.4258 8.1602 5.5469 13.395 5.5469s9.9688-2.125 13.395-5.5469c3.4258-3.4258 5.5469-8.1602 5.5469-13.395s-2.125-9.9688-5.5469-13.395zm7.0078 40.121h-172.91v2.668h172.91zm-31.926 16.266c-4.1133-4.1133-9.8047-6.6602-16.078-6.6602-6.2812 0-11.965 2.543-16.078 6.6602-4.1133 4.1133-6.6602 9.8047-6.6602 16.078 0 6.2812 2.543 11.965 6.6602 16.078 4.1133 4.1133 9.8047 6.6602 16.078 6.6602 6.2812 0 11.965-2.543 16.078-6.6602 4.1133-4.1133 6.6602-9.8047 6.6602-16.078 0-6.2812-2.543-11.965-6.6602-16.078zm-258.91-15.492c-6.1562-6.1562-14.656-9.9609-24.051-9.9609s-17.902 3.8047-24.051 9.9609c-6.1562 6.1562-9.9609 14.656-9.9609 24.051 0 9.3945 3.8047 17.902 9.9609 24.051 6.1562 6.1562 14.656 9.9609 24.051 9.9609s17.902-3.8047 24.051-9.9609c6.1562-6.1562 9.9609-14.656 9.9609-24.051 0-9.3945-3.8047-17.902-9.9609-24.051zm114.97 76.711h-8.2656c-9.125 0.96484-17.316 5.0664-23.465 11.215-7.0625 7.0625-11.43 16.82-11.43 27.594 0 10.773 4.3633 20.539 11.43 27.594 7.0625 7.0625 16.82 11.43 27.594 11.43 10.773 0 20.539-4.3633 27.594-11.43 7.0625-7.0625 11.43-16.82 11.43-27.594 0-10.773-4.3633-20.539-11.43-27.594-6.1484-6.1484-14.332-10.254-23.465-11.215z" fill="#fff"/>
</svg>
