<?xml version="1.0" encoding="UTF-8"?>
<svg width="752pt" height="752pt" version="1.1" viewBox="0 0 752 752" xmlns="http://www.w3.org/2000/svg">
 <g fill="#fff">
  <path d="m597.99 183.61v-14.801h-14.801v-14.797h-14.797v414.38h-414.38v14.797h14.797v14.801h14.801v-14.801h14.801v14.801h14.797v-14.801h14.801v14.801h14.801v-14.801h14.797v14.801h14.801v-14.801h14.797v14.801h14.801v-14.801h14.801v14.801h14.797v-14.801h14.801v14.801h14.801v-14.801h14.797v14.801h14.801v-14.801h14.801v14.801h14.797v-14.801h14.801v14.801h14.801v-14.801h14.797v14.801h14.801v-14.801h14.801v14.801h14.797v-14.801h14.801v14.801h14.797v-14.801h14.801v14.801h14.801v-14.801h14.797v-14.797h14.801v-14.801h-14.801v-14.801h14.801v-14.797h-14.801v-14.801h14.801v-14.797h-14.801v-14.801h14.801v-14.801h-14.801v-14.797h14.801v-14.801h-14.801v-14.801h14.801v-14.797h-14.801v-14.801h14.801v-14.801h-14.801v-14.797h14.801v-14.801h-14.801v-14.801h14.801v-14.797h-14.801v-14.801h14.801v-14.801h-14.801v-14.797h14.801v-14.801h-14.801v-14.797h14.801v-14.801h-14.801v-14.801h14.801v-14.797h-14.801v-14.801z"/>
  <path d="m508.46 328.64 46.617 23.68-25.16-150.21-133.2 70.297 50.316 25.16c-43.656 85.836-117.65 156.13-244.93 234.57l-38.477 23.68 43.656-9.6211c142.07-31.82 240.49-103.6 301.17-217.55z"/>
 </g>
</svg>
