<?xml version="1.0" encoding="UTF-8"?>
<svg width="752pt" height="752pt" version="1.1" viewBox="0 0 752 752" xmlns="http://www.w3.org/2000/svg">
 <path d="m266.9 309.09h-31.727c-2.4688 0-4.4766-2.0078-4.4766-4.4766v-31.727c0-2.4688 2.0078-4.4766 4.4766-4.4766h31.727c2.4688 0 4.4766 2.0078 4.4766 4.4766v31.727c0 2.4688-2.0039 4.4766-4.4766 4.4766zm-31.727-39.008c-1.5469 0-2.8125 1.2656-2.8125 2.8125v31.727c0 1.5469 1.2656 2.8125 2.8125 2.8125h31.727c1.5547 0 2.8125-1.2656 2.8125-2.8125v-31.727c0-1.5469-1.2578-2.8125-2.8125-2.8125zm80.527 39.008h-31.727c-2.4688 0-4.4766-2.0078-4.4766-4.4766v-31.727c0-2.4688 2.0078-4.4766 4.4766-4.4766h31.727c2.4688 0 4.4766 2.0078 4.4766 4.4766v31.727c0 2.4688-2.0078 4.4766-4.4766 4.4766zm-31.723-39.008c-1.5469 0-2.8125 1.2656-2.8125 2.8125v31.727c0 1.5469 1.2656 2.8125 2.8125 2.8125h31.727c1.5469 0 2.8125-1.2656 2.8125-2.8125v-31.727c0-1.5469-1.2656-2.8125-2.8125-2.8125zm80.527 39.008h-31.727c-2.4688 0-4.4766-2.0078-4.4766-4.4766v-31.727c0-2.4688 2.0078-4.4766 4.4766-4.4766h31.727c2.4688 0 4.4766 2.0078 4.4766 4.4766v31.727c-0.007813 2.4688-2.0117 4.4766-4.4766 4.4766zm-31.727-39.008c-1.5547 0-2.8125 1.2656-2.8125 2.8125v31.727c0 1.5469 1.2656 2.8125 2.8125 2.8125h31.727c1.5469 0 2.8125-1.2656 2.8125-2.8125v-31.727c0-1.5469-1.2656-2.8125-2.8125-2.8125zm80.523 39.008h-31.719c-2.4688 0-4.4766-2.0078-4.4766-4.4766v-31.727c0-2.4688 2.0078-4.4766 4.4766-4.4766h31.719c2.4688 0 4.4766 2.0078 4.4766 4.4766v31.727c0 2.4688-2.0078 4.4766-4.4766 4.4766zm-31.727-39.008c-1.5547 0-2.8125 1.2656-2.8125 2.8125v31.727c0 1.5469 1.2578 2.8125 2.8125 2.8125h31.719c1.5469 0 2.8125-1.2656 2.8125-2.8125v-31.727c0-1.5469-1.2656-2.8125-2.8125-2.8125zm-114.68 88.32h-31.727c-2.4688 0-4.4766-2.0078-4.4766-4.4766l0.003907-31.723c0-2.4688 2.0078-4.4766 4.4766-4.4766h31.727c2.4688 0 4.4766 2.0078 4.4766 4.4766v31.727c-0.003906 2.4609-2.0078 4.4727-4.4805 4.4727zm-31.727-39.012c-1.5469 0-2.8125 1.2656-2.8125 2.8125v31.727c0 1.5547 1.2656 2.8125 2.8125 2.8125h31.727c1.5547 0 2.8125-1.2578 2.8125-2.8125v-31.727c0-1.5469-1.2578-2.8125-2.8125-2.8125zm80.527 39.012h-31.727c-2.4688 0-4.4766-2.0078-4.4766-4.4766l0.003906-31.723c0-2.4688 2.0078-4.4766 4.4766-4.4766h31.727c2.4688 0 4.4766 2.0078 4.4766 4.4766v31.727c-0.003907 2.4609-2.0117 4.4727-4.4805 4.4727zm-31.723-39.012c-1.5469 0-2.8125 1.2656-2.8125 2.8125v31.727c0 1.5547 1.2656 2.8125 2.8125 2.8125h31.727c1.5469 0 2.8125-1.2578 2.8125-2.8125l-0.003906-31.727c0-1.5469-1.2656-2.8125-2.8125-2.8125zm80.527 39.012h-31.727c-2.4688 0-4.4766-2.0078-4.4766-4.4766v-31.723c0-2.4688 2.0078-4.4766 4.4766-4.4766h31.727c2.4688 0 4.4766 2.0078 4.4766 4.4766v31.727c-0.007813 2.4609-2.0117 4.4727-4.4766 4.4727zm-31.727-39.012c-1.5547 0-2.8125 1.2656-2.8125 2.8125v31.727c0 1.5547 1.2656 2.8125 2.8125 2.8125h31.727c1.5469 0 2.8125-1.2578 2.8125-2.8125v-31.727c0-1.5469-1.2656-2.8125-2.8125-2.8125zm80.523 39.012h-31.719c-2.4688 0-4.4766-2.0078-4.4766-4.4766v-31.723c0-2.4688 2.0078-4.4766 4.4766-4.4766h31.719c2.4688 0 4.4766 2.0078 4.4766 4.4766v31.727c0 2.4609-2.0078 4.4727-4.4766 4.4727zm-31.727-39.012c-1.5547 0-2.8125 1.2656-2.8125 2.8125v31.727c0 1.5547 1.2578 2.8125 2.8125 2.8125h31.719c1.5469 0 2.8125-1.2578 2.8125-2.8125l0.003906-31.727c0-1.5469-1.2656-2.8125-2.8125-2.8125zm70.043 39.012h-17.008c-1.3242 0-2.4102-1.0781-2.4102-2.4102v-8.4648c0-1.3242 1.0859-2.4102 2.4102-2.4102h17.008c1.3242 0 2.4102 1.0859 2.4102 2.4102v8.4648c-0.003906 1.332-1.082 2.4102-2.4102 2.4102zm-17.004-11.617c-0.41016 0-0.75 0.33594-0.75 0.75v8.4648c0 0.41016 0.33594 0.75 0.75 0.75h17.008c0.41016 0 0.74219-0.33594 0.74219-0.75v-8.4648c0-0.40625-0.33203-0.75-0.74219-0.75zm49.309 11.617h-17.008c-1.3242 0-2.4102-1.0781-2.4102-2.4102v-8.4648c0-1.3242 1.0859-2.4102 2.4102-2.4102h17.008c1.3242 0 2.4102 1.0859 2.4102 2.4102v8.4648c0 1.332-1.0859 2.4102-2.4102 2.4102zm-17.008-11.617c-0.41016 0-0.75 0.33594-0.75 0.75v8.4648c0 0.41016 0.33594 0.75 0.75 0.75h17.008c0.41016 0 0.74219-0.33594 0.74219-0.75v-8.4648c0-0.40625-0.33203-0.75-0.74219-0.75zm49.309 11.617h-17.008c-1.332 0-2.4102-1.0781-2.4102-2.4102v-8.4648c0-1.3242 1.0781-2.4102 2.4102-2.4102h17.008c1.3242 0 2.4102 1.0859 2.4102 2.4102v8.4648c0 1.332-1.082 2.4102-2.4102 2.4102zm-17.004-11.617c-0.41016 0-0.75 0.33594-0.75 0.75v8.4648c0 0.41016 0.33594 0.75 0.75 0.75h17.008c0.41016 0 0.75-0.33594 0.75-0.75v-8.4648c0-0.40625-0.33594-0.75-0.75-0.75zm59.922 11.617h-17.008c-1.332 0-2.4102-1.0781-2.4102-2.4102v-8.4648c0-1.3242 1.0781-2.4102 2.4102-2.4102h17.008c1.3242 0 2.4102 1.0859 2.4102 2.4102v8.4648c-0.003906 1.332-1.0859 2.4102-2.4102 2.4102zm-17.008-11.617c-0.41797 0-0.75 0.33594-0.75 0.75v8.4648c0 0.41016 0.33203 0.75 0.75 0.75h17.008c0.41016 0 0.74219-0.33594 0.74219-0.75v-8.4648c0-0.40625-0.33203-0.75-0.74219-0.75zm-356 11.617h-17.004c-1.3242 0-2.4062-1.0781-2.4062-2.4102v-8.4648c0-1.3242 1.0781-2.4102 2.4062-2.4102h17.008c1.332 0 2.4102 1.0859 2.4102 2.4102v8.4648c-0.003906 1.332-1.082 2.4102-2.4141 2.4102zm-17.004-11.617c-0.40625 0-0.75 0.33594-0.75 0.75v8.4648c0 0.41016 0.33594 0.75 0.75 0.75h17.008c0.41016 0 0.75-0.33594 0.75-0.75v-8.4648c0-0.40625-0.33203-0.75-0.75-0.75zm17.004-7.4688h-17.004c-1.3242 0-2.4062-1.0859-2.4062-2.4102v-8.4648c0-1.332 1.0781-2.4062 2.4062-2.4062h17.008c1.332 0 2.4102 1.0781 2.4102 2.4062v8.4648c-0.003906 1.3281-1.082 2.4102-2.4141 2.4102zm-17.004-11.617c-0.40625 0-0.75 0.33594-0.75 0.75v8.4648c0 0.40625 0.33594 0.75 0.75 0.75h17.008c0.41016 0 0.75-0.33594 0.75-0.75v-8.4648c0-0.41016-0.33203-0.75-0.75-0.75zm17.004-7.4648h-17.004c-1.3242 0-2.4062-1.0781-2.4062-2.4102v-8.4648c0-1.3242 1.0781-2.4062 2.4062-2.4062h17.008c1.332 0 2.4102 1.0781 2.4102 2.4062v8.4648c-0.003906 1.3281-1.082 2.4102-2.4141 2.4102zm-17.004-11.617c-0.40625 0-0.75 0.33594-0.75 0.75v8.4648c0 0.41016 0.33594 0.75 0.75 0.75h17.008c0.41016 0 0.75-0.33203 0.75-0.75v-8.4648c0-0.40625-0.33203-0.75-0.75-0.75zm45.504 30.699h-17.008c-1.332 0-2.4102-1.0859-2.4102-2.4102v-8.4648c0-1.332 1.0781-2.4062 2.4102-2.4062h17.008c1.332 0 2.4102 1.0781 2.4102 2.4062v8.4648c-0.003907 1.3281-1.082 2.4102-2.4102 2.4102zm-17.004-11.617c-0.41016 0-0.75 0.33594-0.75 0.75v8.4648c0 0.40625 0.33594 0.75 0.75 0.75h17.008c0.41016 0 0.75-0.33594 0.75-0.75v-8.4648c0-0.41016-0.33594-0.75-0.75-0.75zm17.004-7.4648h-17.008c-1.332 0-2.4102-1.0781-2.4102-2.4102v-8.4648c0-1.3242 1.0781-2.4062 2.4102-2.4062h17.008c1.332 0 2.4102 1.0781 2.4102 2.4062v8.4648c-0.003907 1.3281-1.082 2.4102-2.4102 2.4102zm-17.004-11.617c-0.41016 0-0.75 0.33594-0.75 0.75v8.4648c0 0.41016 0.33594 0.75 0.75 0.75h17.008c0.41016 0 0.75-0.33203 0.75-0.75v-8.4648c0-0.40625-0.33594-0.75-0.75-0.75zm17.004 49.785h-17.008c-1.3242 0-2.4102-1.0781-2.4102-2.4102v-8.4648c0-1.3242 1.0859-2.4102 2.4102-2.4102h17.008c1.332 0 2.4102 1.0859 2.4102 2.4102v8.4648c-0.003907 1.332-1.082 2.4102-2.4102 2.4102zm-17.004-11.617c-0.41016 0-0.75 0.33594-0.75 0.75v8.4648c0 0.41016 0.33594 0.75 0.75 0.75h17.008c0.41016 0 0.75-0.33594 0.75-0.75v-8.4648c0-0.40625-0.33594-0.75-0.75-0.75zm234.67-24.461c0 5.957 4.8477 10.809 10.809 10.809s10.809-4.8477 10.809-10.809c0-5.957-4.8438-10.809-10.809-10.809-5.9531 0-10.809 4.8477-10.809 10.809zm19.477-0.003907c0 4.7773-3.8828 8.668-8.668 8.668-4.7773 0-8.668-3.8867-8.668-8.668 0-4.7773 3.8867-8.668 8.668-8.668 4.7812 0.003906 8.668 3.8906 8.668 8.668zm-13.277-3.7461 4.8594 3.3945c0.11328 0.085938 0.17969 0.21484 0.17969 0.35156 0 0.085938-0.027343 0.17188-0.082031 0.24609-0.13281 0.19531-0.40234 0.24219-0.59766 0.10547l-4.8555-3.3945c-0.53125 0.89062-0.84766 1.9336-0.84766 3.0469 0 3.2812 2.6602 5.9492 5.9492 5.9492 3.2852 0 5.9492-2.6602 5.9492-5.9492 0-3.2812-2.6602-5.9492-5.9492-5.9492-1.8594-0.003906-3.5156 0.85938-4.6055 2.1992zm4.6133-49.328c-5.957 0-10.809 4.8438-10.809 10.809 0 5.9609 4.8477 10.809 10.809 10.809 5.9609 0 10.809-4.8477 10.809-10.809-0.003906-5.957-4.8516-10.809-10.809-10.809zm0 19.473c-4.7773 0-8.668-3.8867-8.668-8.668 0-4.7773 3.8867-8.668 8.668-8.668 4.7773 0 8.668 3.8867 8.668 8.668-0.003906 4.7812-3.8945 8.668-8.668 8.668zm3.75-13.277-3.3984 4.8594c-0.085938 0.11719-0.21875 0.18359-0.35156 0.18359-0.085937 0-0.17188-0.023437-0.24609-0.082031-0.19531-0.13672-0.24219-0.40234-0.10547-0.59375l3.3984-4.8594c-0.89062-0.53125-1.9336-0.84375-3.0508-0.84375-3.2812 0-5.9492 2.6602-5.9492 5.9453 0 3.2852 2.6602 5.9492 5.9492 5.9492 3.2852 0 5.9492-2.6602 5.9492-5.9492 0.003906-1.8594-0.85547-3.5195-2.1953-4.6094zm38.637 36.074c-5.957 0-10.801 4.8477-10.801 10.809 0 5.957 4.8438 10.809 10.801 10.809 5.9609 0 10.809-4.8477 10.809-10.809-0.003906-5.9609-4.8477-10.809-10.809-10.809zm0 19.473c-4.7773 0-8.6602-3.8867-8.6602-8.668 0-4.7773 3.8828-8.668 8.6602-8.668s8.668 3.8867 8.668 8.668c-0.003907 4.7773-3.8906 8.668-8.668 8.668zm3.75-13.281-3.3984 4.8594c-0.085937 0.11719-0.21875 0.18359-0.35156 0.18359-0.089844 0-0.17188-0.023438-0.24609-0.082031-0.19531-0.13281-0.24219-0.40234-0.10547-0.59766l3.3984-4.8555c-0.89062-0.53516-1.9336-0.84766-3.0508-0.84766-3.2812 0-5.9492 2.6602-5.9492 5.9492 0 3.2852 2.6602 5.9492 5.9492 5.9492 3.2852 0 5.9492-2.6602 5.9492-5.9492 0-1.8594-0.85937-3.5195-2.1953-4.6094zm-14.555-37.652c0 5.957 4.8438 10.809 10.801 10.809 5.957 0 10.809-4.8477 10.809-10.809 0-5.957-4.8477-10.809-10.809-10.809-5.9609 0-10.801 4.8438-10.801 10.809zm19.469 0c0 4.7773-3.8867 8.668-8.668 8.668-4.7773 0-8.6602-3.8867-8.6602-8.668-0.003907-4.7773 3.8828-8.668 8.6602-8.668 4.7812 0 8.668 3.8906 8.668 8.668zm-13.285-3.75 4.8594 3.3945c0.11719 0.085937 0.18359 0.21875 0.18359 0.35156 0 0.085938-0.023437 0.17188-0.082031 0.24609-0.13672 0.19531-0.40234 0.24219-0.59766 0.10547l-4.8555-3.3945c-0.53125 0.89063-0.84766 1.9336-0.84766 3.0469 0 3.2852 2.6602 5.9492 5.9492 5.9492 3.2852 0 5.9492-2.6602 5.9492-5.9492 0-3.2812-2.6602-5.9453-5.9492-5.9453-1.8555-0.003906-3.5117 0.85547-4.6094 2.1953zm36.922 46.02c0 5.957 4.8438 10.809 10.809 10.809 5.957 0 10.809-4.8477 10.809-10.809 0-5.957-4.8477-10.809-10.809-10.809-5.957 0.003906-10.809 4.8477-10.809 10.809zm19.473 0c0 4.7773-3.8867 8.668-8.668 8.668-4.7773 0-8.668-3.8867-8.668-8.668 0-4.7773 3.8867-8.668 8.668-8.668 4.7812 0.003906 8.668 3.8867 8.668 8.668zm-13.277-3.75 4.8594 3.3945c0.11719 0.085938 0.18359 0.21484 0.18359 0.35156 0 0.085938-0.027343 0.17188-0.082031 0.24609-0.13281 0.19531-0.40234 0.24219-0.59766 0.10547l-4.8555-3.3945c-0.53125 0.89062-0.84766 1.9336-0.84766 3.0469 0 3.2812 2.6602 5.9492 5.9492 5.9492 3.2852 0 5.9492-2.6602 5.9492-5.9492 0-3.2812-2.6602-5.9492-5.9492-5.9492-1.8594-0.003906-3.5195 0.85547-4.6094 2.1992zm4.6133-49.328c-5.957 0-10.801 4.8438-10.801 10.809 0 5.9609 4.8438 10.809 10.801 10.809s10.809-4.8477 10.809-10.809c-0.003907-5.957-4.8516-10.809-10.809-10.809zm0 19.473c-4.7773 0-8.668-3.8867-8.668-8.668 0-4.7773 3.8867-8.668 8.668-8.668 4.7773 0 8.668 3.8867 8.668 8.668-0.003906 4.7812-3.8906 8.668-8.668 8.668zm3.75-13.277-3.3984 4.8594c-0.085938 0.11719-0.21875 0.18359-0.35156 0.18359-0.089844 0-0.17188-0.023437-0.24609-0.082031-0.19531-0.13672-0.24219-0.40234-0.10547-0.59375l3.3984-4.8594c-0.89453-0.53125-1.9336-0.84375-3.0508-0.84375-3.2812 0-5.9492 2.6602-5.9492 5.9453 0 3.2852 2.6602 5.9492 5.9492 5.9492 3.2852 0 5.9492-2.6602 5.9492-5.9492 0-1.8594-0.85547-3.5195-2.1953-4.6094zm39.16 36.074c-5.957 0-10.801 4.8477-10.801 10.809 0 5.957 4.8438 10.809 10.801 10.809 5.9609 0 10.809-4.8477 10.809-10.809 0-5.9609-4.8477-10.809-10.809-10.809zm0 19.473c-4.7773 0-8.6602-3.8867-8.6602-8.668 0-4.7773 3.8828-8.668 8.6602-8.668 4.7812 0 8.668 3.8867 8.668 8.668 0 4.7773-3.8867 8.668-8.668 8.668zm3.75-13.281-3.3984 4.8594c-0.085938 0.11719-0.21484 0.18359-0.35156 0.18359-0.085937 0-0.16406-0.023438-0.24219-0.082031-0.19531-0.13281-0.24609-0.40234-0.10547-0.59766l3.3945-4.8555c-0.89062-0.53516-1.9258-0.84766-3.0508-0.84766-3.2812 0-5.9453 2.6602-5.9453 5.9492 0 3.2852 2.6602 5.9492 5.9453 5.9492s5.9531-2.6602 5.9531-5.9492c0.003906-1.8594-0.85938-3.5195-2.1992-4.6094zm-14.551-37.652c0 5.957 4.8438 10.809 10.809 10.809 5.957 0 10.801-4.8477 10.801-10.809 0-5.957-4.8438-10.809-10.801-10.809-5.9648 0-10.809 4.8438-10.809 10.809zm19.469 0c0 4.7773-3.8828 8.668-8.6602 8.668-4.7812 0-8.668-3.8867-8.668-8.668 0-4.7773 3.8828-8.668 8.668-8.668 4.7734 0 8.6602 3.8828 8.6602 8.668zm-13.281-3.75 4.8594 3.3945c0.11719 0.085937 0.17969 0.21875 0.17969 0.35156 0 0.085938-0.023437 0.17188-0.082031 0.24609-0.13281 0.19531-0.40234 0.24219-0.59375 0.10547l-4.8555-3.3945c-0.53516 0.89063-0.84766 1.9336-0.84766 3.0469 0 3.2812 2.6602 5.9492 5.9453 5.9492 3.2852 0 5.9531-2.6602 5.9531-5.9492 0-3.2812-2.6602-5.9492-5.9492-5.9453-1.8594-0.003906-3.5156 0.85547-4.6094 2.1953zm-383.07-3.7852c-5.7539 4.0273-7.1641 11.98-3.1406 17.734 4.0273 5.7578 11.98 7.1641 17.742 3.1406 5.7539-4.0273 7.1602-11.98 3.1367-17.742-4.0273-5.7461-11.984-7.1602-17.738-3.1328zm13.152 18.809c-4.6133 3.2266-10.996 2.0977-14.223-2.5195-3.2266-4.6133-2.0977-10.996 2.5195-14.223 4.6133-3.2305 10.992-2.0977 14.223 2.5156 3.2266 4.6133 2.0938 10.992-2.5195 14.227zm-5.3477-15.359v6.9883c0 0.17578-0.085937 0.32031-0.21484 0.41016-0.085938 0.058593-0.18359 0.089843-0.29297 0.089843-0.28125 0-0.50391-0.22266-0.50391-0.50391v-6.9844c-1.2227 0.089844-2.4336 0.48828-3.5078 1.2422-3.1719 2.2148-3.9453 6.5859-1.7305 9.7617 2.2148 3.1719 6.5938 3.9453 9.7617 1.7305 3.168-2.2227 3.9453-6.5938 1.7227-9.7617-1.2539-1.8008-3.207-2.8242-5.2344-2.9727zm289.89 104.88h-11.305v60.98c0 0.79688 0.64453 1.4414 1.4414 1.4414h8.4219c0.79688 0 1.4453-0.64453 1.4453-1.4414zm28.48 0h-11.305v60.98c0 0.79688 0.64453 1.4414 1.4414 1.4414h8.4219c0.79688 0 1.4453-0.64453 1.4453-1.4414zm-114.17 0h-11.301l0.003906 60.98c0 0.79688 0.64453 1.4414 1.4414 1.4414h8.4219c0.79688 0 1.4414-0.64453 1.4414-1.4414zm28.484 0h-11.305v60.98c0 0.79688 0.64453 1.4414 1.4414 1.4414h8.418c0.80078 0 1.4453-0.64453 1.4453-1.4414zm-228.95 0h-11.305v60.98c0 0.79688 0.64453 1.4414 1.4414 1.4414h8.4258c0.78906 0 1.4414-0.64453 1.4414-1.4414zm28.477 0h-11.305v60.98c0 0.79688 0.64453 1.4414 1.4414 1.4414h8.4219c0.79688 0 1.4414-0.64453 1.4414-1.4414l-0.007813-60.98zm314.91 0h-11.305v60.98c0 0.79688 0.64844 1.4414 1.4453 1.4414h8.4219c0.79688 0 1.4414-0.64453 1.4414-1.4414zm-257.71 0h-11.305v60.98c0 0.79688 0.64453 1.4414 1.4414 1.4414h8.4258c0.79688 0 1.4414-0.64453 1.4414-1.4414zm28.48 0h-11.305v60.98c0 0.79688 0.64453 1.4414 1.4414 1.4414h8.4219c0.78906 0 1.4414-0.64453 1.4414-1.4414l-0.003906-60.98zm283.43-127.32h-433.94c-5.6562 0-10.258 4.5977-10.258 10.258v224.45c0 5.6562 4.6016 10.254 10.258 10.254h433.94c5.6562 0 10.254-4.5977 10.254-10.254v-224.45c0-5.6602-4.5938-10.258-10.254-10.258zm-0.49609 243.29h-433.25v-114.36h2.8906v101.48c0 0.79688 0.64453 1.4453 1.4414 1.4453h23.879c0.79688 0 1.4414-0.64453 1.4414-1.4414v-38.801h-6.8047v-62.684h15.523v62.68h-6.8047v38.801c0 0.79688 0.64453 1.4414 1.4336 1.4414h23.883c0.79688 0 1.4414-0.64844 1.4414-1.4453v-38.797h-6.7734l0.003906-62.68h15.059v62.68h-6.8047v38.801c0 0.79688 0.64453 1.4414 1.4414 1.4414h23.883c0.78906 0 1.4414-0.64844 1.4414-1.4453l-0.003907-101.48h1.9922v101.48c0 0.79688 0.64453 1.4453 1.4414 1.4453h23.879c0.79688 0 1.4414-0.64453 1.4414-1.4414v-38.801h-6.8047l-0.003906-62.684h15.523v62.68h-6.8047v38.801c0 0.79688 0.64453 1.4414 1.4414 1.4414h23.883c0.78906 0 1.4414-0.64844 1.4414-1.4453v-38.797h-6.7773l-0.003906-62.68h15.496v62.68h-6.8047v38.801c0 0.79688 0.64453 1.4414 1.4414 1.4414h23.883c0.78906 0 1.4414-0.64844 1.4414-1.4453v-38.797h-6.7734l-0.003906-62.68h15.492v62.68h-6.8047v38.801c0 0.79688 0.64453 1.4414 1.4414 1.4414h23.883c0.79688 0 1.4414-0.64844 1.4414-1.4453l-0.003906-101.48h1.9922v101.48c0 0.79688 0.64453 1.4453 1.4414 1.4453h23.883c0.79688 0 1.4414-0.64453 1.4414-1.4414v-38.801h-6.8047l-0.003906-62.684h15.523v62.68h-6.8047v38.801c0 0.79688 0.64453 1.4414 1.4414 1.4414h23.883c0.79688 0 1.4414-0.64844 1.4414-1.4453v-38.797h-6.7734l-0.003906-62.68h15.059v62.68h-6.8047v38.801c0 0.79688 0.64844 1.4414 1.4453 1.4414h23.883c0.79688 0 1.4414-0.64844 1.4414-1.4453v-101.48h1.9922v101.48c0 0.79688 0.64844 1.4453 1.4453 1.4453h23.879c0.79688 0 1.4453-0.64453 1.4453-1.4414v-38.801h-6.8086l-0.003907-62.684h15.523v62.68h-6.8047v38.801c0 0.79688 0.64844 1.4414 1.4414 1.4414h23.883c0.79688 0 1.4453-0.64844 1.4453-1.4453v-38.797h-6.7773v-62.68h15.492v62.68h-6.8047v38.801c0 0.79688 0.64844 1.4414 1.4453 1.4414h23.883c0.79688 0 1.4414-0.64844 1.4414-1.4453v-38.797h-6.7773l-0.007812-62.68h15.496v62.68h-6.8086v38.801c0 0.79688 0.64844 1.4414 1.4453 1.4414h23.879c0.79688 0 1.4453-0.64844 1.4453-1.4453l-0.003906-101.48h1.918v101.48c0 0.79688 0.64453 1.4414 1.4414 1.4414h23.883c0.79688 0 1.4414-0.64453 1.4414-1.4414l-0.003906-101.48h2.7188v114.36zm-410.4-50.016h5.1367v36.914l-23.438-0.003906 0.003906-101.2h16.633v64.293h1.6641zm28.715 0h5.1094v36.91l-23.434 0.003906v-36.914h6.8008v-64.289h9.8633v64.293h1.6602zm33.355-64.289v101.2l-23.438 0.003906v-36.914h6.8086v-1.668l-0.003906-62.621zm23.609 64.289h5.1367v36.914l-23.438-0.003906 0.003907-101.2h16.637v64.293h1.6602zm28.711 0h5.1133v36.91l-23.438 0.003906v-36.914h6.8008v-64.289h9.8594v64.293h1.6641zm28.68 0h5.1094v36.91l-23.438 0.003906v-36.914h6.8086v-1.668l-0.003906-62.621h9.8594v64.293h1.6641zm33.789-64.289v101.2l-23.438 0.003906v-36.914h6.8008v-64.289zm23.617 64.289h5.1445v36.914l-23.438-0.003906v-101.2h16.637v64.293h1.6562zm28.711 0h5.1094v36.91l-23.438 0.003906v-36.914h6.8086v-1.668l-0.003906-62.621h9.8594v64.293h1.6641zm33.359-64.289v101.2l-23.438 0.003906v-36.914h6.8047v-64.289zm23.605 64.289h5.1445v36.914l-23.434-0.003906v-101.2h16.633v64.293h1.6562zm28.715 0h5.1094v36.91l-23.438 0.003906v-36.914h6.8125v-1.668l-0.003907-62.621h9.8594v64.293h1.6602zm28.68 0h5.1133v36.91l-23.438 0.003906v-36.914h6.8047v-64.289h9.8594v64.293h1.6602zm33.785-64.289v101.2l-23.434 0.003906v-36.914h6.8086v-1.668l-0.003906-62.621zm28.684 0v101.2h-23.438v-101.2zm13.473 105.71c0 4.3438-3.2422 7.9414-7.4297 8.5156v-115.94h-436.57v115.89c-4.043-0.69531-7.1328-4.2305-7.1328-8.4688v-224.44c0-4.7344 3.8555-8.5898 8.5938-8.5898h433.94c4.7344 0 8.5898 3.8555 8.5898 8.5898l0.003906 224.44zm-263.27-107.38h-11.305l0.003907 60.98c0 0.79688 0.64453 1.4414 1.4414 1.4414h8.4258c0.79688 0 1.4414-0.64453 1.4414-1.4414z" fill="#fff"/>
</svg>
