<?xml version="1.0" encoding="UTF-8"?>
<svg width="752pt" height="752pt" version="1.1" viewBox="0 0 752 752" xmlns="http://www.w3.org/2000/svg">
 <g fill="#fff">
  <path d="m275.08 493.31-18.422-18.375-11.461 17.473 12.406 12.363z"/>
  <path d="m467.97 328.6c3.7422 3.7422 9.8047 3.7422 13.543 0l0.14062-0.14062c3.7422-3.7422 3.7422-9.8047 0-13.543l-46.602-46.602c-3.7422-3.7422-9.8047-3.7422-13.543 0l-0.14062 0.14062c-3.7422 3.7422-3.7422 9.8047 0 13.543z"/>
  <path d="m262.25 580.73-6.5352-1.6562c-16.859-4.3086-26.711-11.176-29.266-20.457-2.6992-9.8516 2.793-21.645 7.9102-29.789 5.9688-9.5664 12.883-16.527 12.93-16.574l4.7812-4.7812-9.5195-9.5195-4.832 4.7773c-0.33203 0.33203-7.9102 7.957-14.68 18.707-9.6133 15.297-12.883 28.984-9.6133 40.773 1.5156 5.5391 4.4062 10.465 8.668 14.727 6.7266 6.7266 16.859 11.84 30.262 15.25l6.5352 1.6562z"/>
  <path d="m277.78 489.85c4.5469 4.5469 11.887 4.7344 16.672 0.37891l171.34-155.67-50.344-50.387-155.71 171.34c-4.3555 4.7812-4.168 12.125 0.37891 16.672zm135.02-161.4c2.3672-2.3672 6.25-2.3672 8.668 0l0.09375 0.09375c2.3672 2.3672 2.3672 6.25 0 8.668l-13.07 13.07c-2.3672 2.3672-6.25 2.3672-8.668 0l-0.09375-0.09375c-2.3672-2.3672-2.3672-6.25 0-8.668z"/>
  <path d="m420.14 335.79c1.6094-1.6094 1.6094-4.2148 0-5.8711l-0.09375-0.09375c-1.6094-1.6094-4.2148-1.6094-5.8711 0l-6.5352 6.5352 5.918 5.918z"/>
  <path d="m491.27 316.05c21.359 3.6953 44.137-2.7461 60.617-19.227l0.99609-0.99609c26.992-26.992 26.992-70.754 0-97.746l-0.99609-0.99609c-26.992-26.992-70.754-26.992-97.746 0l-0.99609 0.99609c-16.48 16.48-22.922 39.262-19.227 60.617zm70.469-54.84c1.375 1.375 1.375 3.6484 0 5.0664-1.375 1.375-3.6484 1.375-5.0664 0-1.375-1.375-1.375-3.6484 0-5.0664 1.4219-1.4219 3.6953-1.4219 5.0664 0zm-17.332 17.379c1.375 1.375 1.375 3.6484 0 5.0664-1.375 1.375-3.6484 1.375-5.0664 0-1.375-1.375-1.375-3.6484 0-5.0664 1.3711-1.4219 3.6445-1.4219 5.0664 0zm-17.379 17.332c1.375 1.375 1.375 3.6484 0 5.0664-1.375 1.375-3.6484 1.375-5.0664 0-1.375-1.375-1.375-3.6484 0-5.0664 1.418-1.3711 3.6914-1.3711 5.0664 0zm34.191-52.094c1.375 1.375 1.375 3.6484 0 5.0664-1.375 1.375-3.6484 1.375-5.0664 0-1.375-1.375-1.375-3.6484 0-5.0664 1.4219-1.3711 3.6914-1.3711 5.0664 0zm-17.332 17.383c1.375 1.375 1.375 3.6484 0 5.0664-1.375 1.375-3.6484 1.375-5.0664 0-1.375-1.375-1.375-3.6484 0-5.0664 1.3711-1.4219 3.6445-1.4219 5.0664 0zm-17.383 17.379c1.375 1.375 1.375 3.6484 0 5.0664-1.375 1.375-3.6484 1.375-5.0664 0-1.375-1.375-1.375-3.6484 0-5.0664 1.375-1.4219 3.6484-1.4219 5.0664 0zm-17.379 17.332c1.375 1.375 1.375 3.6484 0 5.0664-1.375 1.4219-3.6484 1.375-5.0664 0-1.375-1.375-1.375-3.6484 0-5.0664 1.418-1.3711 3.6914-1.3711 5.0664 0zm51.762-70.324c1.375 1.375 1.375 3.6484 0 5.0664-1.375 1.375-3.6484 1.375-5.0664 0-1.375-1.375-1.375-3.6484 0-5.0664 1.375-1.4219 3.6445-1.4219 5.0664 0zm-17.379 17.379c1.375 1.375 1.375 3.6484 0 5.0664-1.375 1.375-3.6484 1.375-5.0664 0-1.375-1.375-1.375-3.6484 0-5.0664 1.418-1.4219 3.6914-1.4219 5.0664 0zm-17.383 17.332c1.375 1.375 1.375 3.6484 0 5.0664-1.375 1.375-3.6484 1.375-5.0664 0-1.375-1.375-1.375-3.6484 0-5.0664 1.4219-1.3711 3.6953-1.3711 5.0664 0zm-17.332 17.383c1.375 1.375 1.375 3.6484 0 5.0664-1.375 1.375-3.6484 1.375-5.0664 0-1.375-1.375-1.375-3.6484 0-5.0664 1.3711-1.375 3.6445-1.375 5.0664 0zm-17.379 17.379c1.375 1.375 1.375 3.6484 0 5.0664-1.375 1.375-3.6484 1.375-5.0664 0-1.375-1.375-1.375-3.6484 0-5.0664 1.418-1.4219 3.6914-1.4219 5.0664 0zm51.57-69.473c1.375 1.375 1.375 3.6484 0 5.0664-1.375 1.375-3.6484 1.375-5.0664 0-1.375-1.375-1.375-3.6484 0-5.0664 1.4219-1.4219 3.6953-1.4219 5.0664 0zm-17.379 17.379c1.375 1.375 1.375 3.6484 0 5.0664-1.375 1.375-3.6484 1.375-5.0664 0-1.375-1.375-1.375-3.6484 0-5.0664 1.4219-1.4219 3.6914-1.4219 5.0664 0zm-17.332 17.332c1.375 1.375 1.375 3.6484 0 5.0664-1.375 1.375-3.6484 1.375-5.0664 0-1.375-1.375-1.375-3.6484 0-5.0664 1.3711-1.3711 3.6445-1.3711 5.0664 0zm-17.383 17.383c1.375 1.375 1.375 3.6484 0 5.0664-1.375 1.375-3.6484 1.375-5.0664 0-1.375-1.375-1.375-3.6484 0-5.0664 1.4219-1.375 3.6953-1.375 5.0664 0zm51.766-70.328c1.375 1.375 1.375 3.6484 0 5.0664-1.375 1.375-3.6484 1.375-5.0664 0-1.375-1.375-1.375-3.6484 0-5.0664 1.3711-1.4219 3.6445-1.4219 5.0664 0zm-17.383 17.332c1.375 1.375 1.375 3.6484 0 5.0664-1.375 1.375-3.6484 1.375-5.0664 0-1.375-1.375-1.375-3.6484 0-5.0664 1.4219-1.3711 3.6445-1.3711 5.0664 0zm-17.379 17.383c1.375 1.375 1.375 3.6484 0 5.0664-1.375 1.375-3.6484 1.375-5.0664 0-1.375-1.375-1.375-3.6484 0-5.0664 1.418-1.375 3.6914-1.375 5.0664 0zm-17.332 17.379c1.375 1.375 1.375 3.6484 0 5.0664-1.375 1.375-3.6484 1.375-5.0664 0-1.375-1.375-1.375-3.6484 0-5.0664 1.3711-1.4219 3.6445-1.4219 5.0664 0zm-17.383 17.332c1.375 1.375 1.375 3.6484 0 5.0664-1.375 1.375-3.6484 1.375-5.0664 0-1.375-1.375-1.375-3.6484 0-5.0664 1.3711-1.3711 3.6445-1.3711 5.0664 0zm51.574-69.426c1.375 1.375 1.375 3.6484 0 5.0664-1.375 1.375-3.6484 1.375-5.0664 0-1.375-1.375-1.375-3.6484 0-5.0664 1.3711-1.4219 3.6445-1.4219 5.0664 0zm-17.383 17.332c1.375 1.375 1.375 3.6484 0 5.0664-1.375 1.375-3.6484 1.375-5.0664 0-1.375-1.375-1.375-3.6484 0-5.0664 1.4219-1.3711 3.6953-1.3711 5.0664 0zm-17.379 17.383c1.375 1.375 1.375 3.6484 0 5.0664-1.375 1.375-3.6484 1.375-5.0664 0-1.375-1.375-1.375-3.6484 0-5.0664 1.4219-1.375 3.6914-1.375 5.0664 0zm-17.332 17.379c1.375 1.375 1.375 3.6484 0 5.0664-1.375 1.375-3.6484 1.375-5.0664 0-1.375-1.375-1.375-3.6484 0-5.0664 1.3711-1.4219 3.6445-1.4219 5.0664 0zm51.715-70.375c1.375 1.375 1.375 3.6484 0 5.0664-1.375 1.375-3.6484 1.375-5.0664 0-1.375-1.375-1.375-3.6484 0-5.0664 1.418-1.3711 3.6914-1.3711 5.0664 0zm-17.332 17.383c1.375 1.375 1.375 3.6484 0 5.0664-1.375 1.375-3.6484 1.375-5.0664 0-1.4219-1.375-1.375-3.6484 0-5.0664 1.3711-1.375 3.6445-1.375 5.0664 0zm-17.383 17.379c1.375 1.375 1.375 3.6484 0 5.0664-1.375 1.375-3.6484 1.375-5.0664 0-1.4219-1.375-1.375-3.6484 0-5.0664 1.4219-1.4219 3.6953-1.4219 5.0664 0zm-17.379 17.379c1.375 1.375 1.375 3.6484 0 5.0664-1.375 1.375-3.6484 1.375-5.0664 0-1.375-1.375-1.375-3.6484 0-5.0664 1.418-1.418 3.6914-1.418 5.0664 0zm-17.332 17.336c1.375 1.375 1.375 3.6484 0 5.0664-1.375 1.375-3.6484 1.375-5.0664 0-1.375-1.375-1.375-3.6484 0-5.0664 1.3711-1.375 3.6445-1.375 5.0664 0zm51.57-69.477c1.375 1.375 1.375 3.6484 0 5.0664-1.375 1.4219-3.6484 1.375-5.0664 0-1.375-1.375-1.375-3.6484 0-5.0664 1.375-1.3711 3.6445-1.3711 5.0664 0zm-17.379 17.383c1.375 1.375 1.375 3.6484 0 5.0664-1.375 1.375-3.6484 1.375-5.0664 0-1.375-1.375-1.375-3.6484 0-5.0664 1.3711-1.375 3.6445-1.375 5.0664 0zm-17.383 17.379c1.375 1.375 1.375 3.6484 0 5.0664-1.375 1.375-3.6484 1.375-5.0664 0-1.375-1.375-1.375-3.6484 0-5.0664 1.4219-1.4219 3.6953-1.4219 5.0664 0zm-22.777 4.168c-1.375-1.375-1.375-3.6484 0-5.0664 1.375-1.375 3.6484-1.375 5.0664 0 1.375 1.375 1.375 3.6484 0 5.0664-1.3711 1.4219-3.6445 1.4219-5.0664 0zm17.379-17.332c-1.375-1.375-1.375-3.6484 0-5.0664 1.375-1.375 3.6484-1.375 5.0664 0 1.375 1.375 1.375 3.6484 0 5.0664-1.418 1.3711-3.6914 1.3711-5.0664 0zm17.383-17.383c-1.375-1.375-1.375-3.6484 0-5.0664 1.375-1.375 3.6484-1.375 5.0664 0 1.375 1.375 1.375 3.6484 0 5.0664-1.4219 1.375-3.6953 1.375-5.0664 0zm-34.383 47.926c1.375-1.375 3.6484-1.375 5.0664 0 1.375 1.375 1.375 3.6484 0 5.0664-1.375 1.4219-3.6484 1.375-5.0664 0-1.4219-1.418-1.4219-3.6914 0-5.0664z"/>
 </g>
</svg>
