<?xml version="1.0" encoding="UTF-8"?>
<svg width="752pt" height="752pt" version="1.1" viewBox="0 0 752 752" xmlns="http://www.w3.org/2000/svg">
 <path d="m278.97 382.54v59.355l-8.0117-0.003907v-59.352zm-58.941 64.57v37.07h23.543v-101.64h-16.707v64.574h-1.6719zm74.426-64.57h-9.9023v64.574h-6.8359v37.07h23.543v-37.07h-6.8047zm-28.836 0h-16.703v101.64h23.535v-37.07h-6.832zm62.824 0v59.355h8.0117v-59.355zm-28.879 0v59.355h8.0117v-59.355zm23.691 0h-9.9062v64.574h-6.832v37.07h23.543v-37.07h-6.8047zm267.43 101.87c0 0.79688-0.64844 1.4453-1.4453 1.4453h-23.98c-0.79687 0-1.4453-0.64844-1.4453-1.4453v-101.91h-1.9219v101.91c0 0.79688-0.64844 1.4453-1.4531 1.4453h-23.98c-0.80469 0-1.4531-0.64844-1.4531-1.4453v-38.973h6.832v-62.934h-2.3594v59.609c0 0.80078-0.64844 1.4492-1.4453 1.4492h-8.4648c-0.79688 0-1.4453-0.64844-1.4453-1.4492l0.003906-59.609h-1.8516v62.934h6.8086v38.973c0 0.79688-0.64844 1.4453-1.4531 1.4453h-23.98c-0.79688 0-1.4453-0.64844-1.4453-1.4453v-38.973h6.8242v-62.934h-2.4336v59.609c0 0.80078-0.64062 1.4492-1.4453 1.4492h-8.4648c-0.79688 0-1.4453-0.64844-1.4453-1.4492l0.003907-59.609h-1.7656v62.934h6.8008v38.973c0 0.79688-0.64844 1.4453-1.4453 1.4453h-23.98c-0.80469 0-1.4531-0.64844-1.4531-1.4453v-38.973h6.832v-62.934h-2.2383v59.609c0 0.80078-0.64844 1.4492-1.4453 1.4492h-8.4648c-0.79688 0-1.4453-0.64844-1.4453-1.4492v-59.609h-2.0039v62.934h6.832v38.973c0 0.79688-0.64844 1.4453-1.4453 1.4453h-23.992c-0.79688 0-1.4453-0.64844-1.4453-1.4453l0.003907-101.91h-2.0078v101.91c0 0.79688-0.64844 1.4453-1.4453 1.4453h-23.98c-0.79688 0-1.4453-0.64844-1.4453-1.4453v-38.973h6.8242v-62.934h-1.9883v59.609c0 0.80078-0.64844 1.4492-1.4453 1.4492h-8.4648c-0.79687 0-1.4453-0.64844-1.4453-1.4492l0.003906-59.609h-1.7773v62.934h6.8086v38.973c0 0.79688-0.64844 1.4453-1.4531 1.4453h-23.98c-0.79687 0-1.4531-0.64844-1.4531-1.4453v-38.973h6.832v-62.934h-2.2383v59.609c0 0.80078-0.64063 1.4492-1.4453 1.4492h-8.4648c-0.79688 0-1.4453-0.64844-1.4453-1.4492l0.003906-59.609h-1.9922v62.934h6.832v38.973c0 0.79688-0.66016 1.4453-1.4531 1.4453h-23.988c-0.79687 0-1.4492-0.64844-1.4492-1.4453v-101.91h-2v101.91c0 0.79688-0.64844 1.4453-1.4492 1.4453h-23.988c-0.79688 0-1.4453-0.64844-1.4453-1.4453v-38.973h6.832l0.007813-62.934h-2.3594v59.609c0 0.80078-0.65234 1.4492-1.4492 1.4492h-8.457c-0.79688 0-1.4453-0.64844-1.4453-1.4492v-59.609h-1.8477v62.934h6.8047v38.973c0 0.79688-0.64844 1.4453-1.4492 1.4453h-23.98c-0.79688 0-1.4453-0.64844-1.4453-1.4453v-38.973h6.8281v-62.934h-2.4375v59.609c0 0.80078-0.64844 1.4492-1.4453 1.4492h-8.457c-0.79688 0-1.4492-0.64844-1.4492-1.4492v-59.609h-1.7695v62.934h6.8047v38.973c0 0.79688-0.64844 1.4453-1.4492 1.4453h-23.988c-0.79688 0-1.4453-0.64844-1.4453-1.4453v-38.973h6.832l0.003906-62.934h-2.2383v59.609c0 0.80078-0.64844 1.4492-1.4453 1.4492h-8.4648c-0.80078 0-1.4492-0.64844-1.4492-1.4492v-59.609h-2.0039v62.934h6.832v38.973c0 0.79688-0.64844 1.4453-1.4453 1.4453h-23.988c-0.79688 0-1.4453-0.64844-1.4453-1.4453l0.003906-101.91h-2.0039v101.91c0 0.79688-0.64844 1.4453-1.4492 1.4453h-23.98c-0.80078 0-1.4492-0.64844-1.4492-1.4453v-38.973h6.832l0.003906-62.934h-2.0039v59.609c0 0.80078-0.64844 1.4492-1.4453 1.4492h-8.4648c-0.79688 0-1.4453-0.64844-1.4453-1.4492l0.003907-59.609h-1.7695v62.934h6.8008v38.973c0 0.79688-0.64844 1.4453-1.4492 1.4453h-23.98c-0.79688 0-1.4453-0.64844-1.4453-1.4453v-38.973h6.832l-0.003907-62.934h-2.2383v59.609c0 0.80078-0.64844 1.4492-1.4453 1.4492h-8.4531c-0.80078 0-1.4492-0.64844-1.4492-1.4492v-59.609h-2.0039v62.934h6.832v38.973c0 0.79688-0.64844 1.4453-1.4453 1.4453h-23.984c-0.79687 0-1.4453-0.64844-1.4453-1.4453l0.003906-101.91h-2.9062v115.67h435.14v-115.67h-2.7383zm-411.12-101.87h-16.711v101.64h23.543v-37.07h-5.1602l-1.6719-0.003907zm28.836 0h-9.9023v64.574h-6.832v37.07h23.535v-37.07h-5.1289l-1.6719-0.003907zm5.1094 0v59.355h8.0078v-59.355zm-28.605 0v59.355h8.0117v-59.355zm229.95 0v59.355h8.0195l-0.003906-59.355zm80.945 0h-9.8984v64.574h-6.8359v37.07h23.543v-37.07l-5.1367-0.003907h-1.6758v-1.6719l-0.003906-62.898zm5.1133 0v59.355h8.0078v-59.355zm28.875 0v59.355h8.0195l-0.003906-59.355zm-5.1875 0h-9.8984v64.574h-6.8359v37.07h23.543v-37.07h-6.8086v-1.6719l-0.003907-62.902zm12.066 64.57v37.07h23.543v-101.64h-16.703v64.574h-1.6758zm-322.74-100.45h-17.082c-0.41016 0-0.75 0.33594-0.75 0.75391v8.4961c0 0.41016 0.33594 0.75 0.75 0.75h17.082c0.41016 0 0.75391-0.33594 0.75391-0.75v-8.4961c-0.003906-0.41797-0.33984-0.75391-0.75391-0.75391zm-17.715-55.703c-4.6367 3.2383-11.043 2.1133-14.289-2.5195-3.2422-4.6367-2.1172-11.043 2.5156-14.289 4.6367-3.2422 11.043-2.1172 14.289 2.5195 3.25 4.6328 2.1172 11.043-2.5156 14.289zm-0.11719-12.441c-1.2656-1.8047-3.2266-2.832-5.2656-2.9805l0.003907 7.0195c0 0.17578-0.085938 0.32031-0.21875 0.41016-0.082032 0.0625-0.17969 0.09375-0.29297 0.09375-0.28125 0-0.50391-0.22656-0.50391-0.50781l-0.003906-7.0156c-1.2266 0.089844-2.4492 0.49219-3.5273 1.2461-3.1836 2.2305-3.9609 6.6211-1.7305 9.8086 2.2305 3.1836 6.6211 3.9531 9.8047 1.7305 3.1836-2.2227 3.9648-6.625 1.7344-9.8047zm238.61 43.574c0-4.7969 3.8945-8.6992 8.6953-8.6992 4.8008 0 8.7031 3.9023 8.7031 8.6992 0 4.8008-3.9023 8.7031-8.7031 8.7031-4.7969 0-8.707-3.9062-8.6953-8.7031zm2.7188 0c0 3.3008 2.6797 5.9766 5.9766 5.9766 3.3008 0 5.9766-2.6758 5.9766-5.9766 0-3.2969-2.6719-5.9766-5.9766-5.9766-1.8711 0-3.5312 0.86719-4.6367 2.2109l4.8828 3.4141c0.11719 0.085938 0.18359 0.21875 0.18359 0.35156 0 0.085937-0.027343 0.17188-0.085937 0.24609-0.13672 0.19531-0.39844 0.24219-0.59375 0.10547l-4.8828-3.4102c-0.52734 0.89844-0.84375 1.9414-0.84375 3.0586zm-2.7188-42.453c0-4.7969 3.8945-8.7031 8.6953-8.7031 4.8008 0 8.7031 3.9062 8.7031 8.7031 0 4.8008-3.9023 8.7031-8.7031 8.7031-4.8047 0-8.6953-3.9023-8.6953-8.7031zm2.7188 0c0 3.3008 2.6797 5.9766 5.9766 5.9766 3.3008 0 5.9766-2.6758 5.9766-5.9766 0-1.8711-0.86328-3.543-2.2109-4.6328l-3.4141 4.8789c-0.085937 0.11719-0.21484 0.18359-0.35156 0.18359-0.085938 0-0.16406-0.023437-0.24219-0.074218-0.20312-0.13672-0.24219-0.40234-0.10938-0.59766l3.4141-4.8789c-0.89453-0.53516-1.9414-0.85156-3.0586-0.85156-3.2969 0-5.9805 2.6758-5.9805 5.9727zm-223.5 47.855h-17.082c-0.41016 0-0.75 0.33594-0.75 0.75391v8.4961c0 0.41016 0.33594 0.75 0.75 0.75h17.082c0.41016 0 0.75391-0.33594 0.75391-0.75v-8.4961c-0.003906-0.41797-0.33984-0.75391-0.75391-0.75391zm-28.621 0h-17.082c-0.41016 0-0.75391 0.33594-0.75391 0.75391v8.4961c0 0.41016 0.33594 0.75 0.75391 0.75h17.082c0.41016 0 0.75-0.33594 0.75-0.75v-8.4961c0-0.41797-0.33594-0.75391-0.75-0.75391zm0 19.168h-17.082c-0.41016 0-0.75391 0.33594-0.75391 0.75391v8.4961c0 0.41016 0.33594 0.75 0.75391 0.75h17.082c0.41016 0 0.75-0.33594 0.75-0.75v-8.4961c0-0.41797-0.33594-0.75391-0.75-0.75391zm0-38.34h-17.082c-0.41016 0-0.75391 0.33984-0.75391 0.75391v8.4961c0 0.41016 0.33594 0.75 0.75391 0.75h17.082c0.41016 0 0.75-0.33594 0.75-0.75v-8.4961c0-0.41016-0.33594-0.75391-0.75-0.75391zm374.63 38.34h-17.082c-0.41797 0-0.75 0.33594-0.75 0.75391v8.4961c0 0.41016 0.33203 0.75 0.75 0.75h17.082c0.41797 0 0.75-0.33594 0.75-0.75v-8.4961c-0.003906-0.41797-0.33984-0.75391-0.75-0.75391zm-43.105 0h-17.082c-0.40625 0-0.73828 0.33594-0.73828 0.75391v8.4961c0 0.41016 0.33203 0.75 0.73828 0.75h17.082c0.41797 0 0.75-0.33594 0.75-0.75v-8.4961c-0.003907-0.41797-0.33594-0.75391-0.75-0.75391zm-302.91-38.34h-17.082c-0.41016 0-0.75 0.33984-0.75 0.75391v8.4961c0 0.41016 0.33594 0.75 0.75 0.75h17.082c0.41016 0 0.75391-0.33594 0.75391-0.75v-8.4961c-0.003906-0.41016-0.33984-0.75391-0.75391-0.75391zm270.46 38.34h-17.082c-0.41797 0-0.75 0.33594-0.75 0.75391v8.4961c0 0.41016 0.33203 0.75 0.75 0.75h17.082c0.40625 0 0.73828-0.33594 0.73828-0.75v-8.4961c0.003907-0.41797-0.33203-0.75391-0.73828-0.75391zm-32.445 0h-17.082c-0.41797 0-0.75 0.33594-0.75 0.75391v8.4961c0 0.41016 0.33203 0.75 0.75 0.75h17.082c0.40625 0 0.75-0.33594 0.75-0.75v-8.4961c0-0.41797-0.34375-0.75391-0.75-0.75391zm42.73-24.57c0 4.8008-3.9023 8.7031-8.7031 8.7031-4.8008 0-8.7031-3.9062-8.7031-8.7031s3.9023-8.6992 8.7031-8.6992c4.8008 0 8.7031 3.9023 8.7031 8.6992zm-2.7266 0c0-1.8711-0.87109-3.5391-2.2109-4.6367l-3.4141 4.8828c-0.085937 0.11719-0.21484 0.18359-0.35156 0.18359-0.085937 0-0.17578-0.023437-0.25-0.082031-0.19531-0.13281-0.24219-0.40234-0.097656-0.59766l3.4141-4.8789c-0.89453-0.53516-1.9492-0.85156-3.0586-0.85156-3.3008 0-5.9766 2.6758-5.9766 5.9766 0 3.3008 2.6719 5.9766 5.9766 5.9766 3.2891 0.003906 5.9688-2.6719 5.9688-5.9727zm46.027 0c0 4.8008-3.9023 8.7031-8.7031 8.7031-4.8008 0-8.7031-3.9062-8.7031-8.7031s3.9023-8.6992 8.7031-8.6992c4.8008 0 8.7031 3.9023 8.7031 8.6992zm-2.7266 0c0-3.2969-2.6719-5.9766-5.9766-5.9766-1.8711 0-3.5312 0.86719-4.6367 2.2109l4.8828 3.4141c0.11719 0.085938 0.17578 0.21875 0.17578 0.35156 0 0.089844-0.019531 0.17188-0.074219 0.24609-0.12891 0.19531-0.39844 0.24219-0.60156 0.10547l-4.875-3.4102c-0.53516 0.89453-0.85156 1.9414-0.85156 3.0586 0 3.3008 2.6797 5.9766 5.9766 5.9766 3.3047 0 5.9805-2.6758 5.9805-5.9766zm68.129-58.797v225.43c0 4.8359-3.6172 8.8086-8.2891 9.3867v-117.27h-438.48v117.23c-4.5312-0.70703-8-4.625-8-9.3516v-225.43c0-5.2266 4.2383-9.4688 9.4688-9.4688h435.84c5.2266 0.007813 9.4609 4.2461 9.4609 9.4727zm-170.83 16.344c0 5.9844 4.875 10.855 10.852 10.855 5.9844 0 10.859-4.8672 10.859-10.855 0-5.9844-4.875-10.855-10.859-10.855-5.9766 0-10.852 4.8711-10.852 10.855zm0 42.453c0 5.9844 4.875 10.855 10.852 10.855 5.9844 0 10.859-4.8672 10.859-10.855 0-5.9844-4.875-10.855-10.859-10.855-5.9766 0.003906-10.852 4.875-10.852 10.855zm-244.83 25.32c0-1.3359-1.0859-2.4219-2.4219-2.4219l-17.074 0.003907c-1.3359 0-2.4219 1.0859-2.4219 2.4219v8.4961c0 1.332 1.0859 2.4219 2.4219 2.4219h17.082c1.332 0 2.4219-1.0859 2.4219-2.4219v-8.5zm0-19.164c0-1.3359-1.0859-2.4219-2.4219-2.4219h-17.074c-1.3359 0-2.4219 1.0859-2.4219 2.4219v8.4961c0 1.3359 1.0859 2.4219 2.4219 2.4219h17.082c1.332 0 2.4219-1.0859 2.4219-2.4219v-8.4961zm0-19.172c0-1.3359-1.0859-2.4219-2.4219-2.4219l-17.074 0.003906c-1.3359 0-2.4219 1.0859-2.4219 2.4219v8.4961c0 1.3359 1.0859 2.4219 2.4219 2.4219h17.082c1.332 0 2.4219-1.0859 2.4219-2.4219v-8.5zm9.9453-16.043c5.7773-4.043 7.1836-12.039 3.1406-17.816-4.043-5.7773-12.039-7.1836-17.816-3.1406-5.7773 4.043-7.1836 12.039-3.1406 17.816 4.0469 5.7773 12.039 7.1836 17.816 3.1406zm18.68 54.379c0-1.3359-1.0859-2.4219-2.4219-2.4219l-17.078 0.003907c-1.332 0-2.4219 1.0859-2.4219 2.4219v8.4961c0 1.332 1.0859 2.4219 2.4219 2.4219h17.082c1.3359 0 2.4219-1.0859 2.4219-2.4219zm0-19.164c0-1.3359-1.0859-2.4219-2.4219-2.4219h-17.078c-1.3359 0-2.4219 1.0859-2.4219 2.4219v8.4961c0 1.3359 1.0859 2.4219 2.4219 2.4219h17.082c1.3359 0 2.4219-1.0859 2.4219-2.4219zm0-19.172c0-1.3359-1.0859-2.4219-2.4219-2.4219l-17.078 0.003906c-1.3359 0-2.4219 1.0859-2.4219 2.4219v8.4961c0 1.3359 1.0859 2.4219 2.4219 2.4219h17.082c1.3359 0 2.4219-1.0859 2.4219-2.4219zm54.57 12.895c0-2.4766-2.0156-4.4961-4.4961-4.4961h-31.863c-2.4766 0-4.5 2.0156-4.5 4.4961v31.863c0 2.4766 2.0156 4.4961 4.5 4.4961h31.863c2.4766 0 4.4961-2.0156 4.4961-4.4961zm0-49.523c0-2.4766-2.0156-4.4961-4.4961-4.4961h-31.863c-2.4766 0-4.5 2.0117-4.5 4.4961v31.863c0 2.4766 2.0156 4.4961 4.5 4.4961h31.863c2.4766 0 4.4961-2.0156 4.4961-4.4961zm49.012 49.523c0-2.4766-2.0117-4.4961-4.4961-4.4961h-31.867c-2.4727 0-4.4961 2.0156-4.4961 4.4961v31.863c0 2.4766 2.0156 4.4961 4.4961 4.4961h31.867c2.4805 0 4.4961-2.0156 4.4961-4.4961zm0-49.523c0-2.4766-2.0117-4.4961-4.4961-4.4961h-31.867c-2.4727 0-4.4961 2.0117-4.4961 4.4961v31.863c0 2.4766 2.0156 4.4961 4.4961 4.4961h31.867c2.4805 0 4.4961-2.0156 4.4961-4.4961zm49.016 49.523c0-2.4766-2.0117-4.4961-4.4961-4.4961h-31.863c-2.4766 0-4.4961 2.0156-4.4961 4.4961v31.863c0 2.4766 2.0117 4.4961 4.4961 4.4961h31.863c2.4766 0 4.4961-2.0156 4.4961-4.4961zm0-49.523c0-2.4766-2.0117-4.4961-4.4961-4.4961h-31.863c-2.4766 0-4.4961 2.0117-4.4961 4.4961v31.863c0 2.4766 2.0117 4.4961 4.4961 4.4961h31.863c2.4766 0 4.4961-2.0156 4.4961-4.4961zm49.012 49.523c0-2.4766-2.0156-4.4961-4.4961-4.4961h-31.867c-2.4766 0-4.4883 2.0156-4.4883 4.4961v31.863c0 2.4766 2.0078 4.4961 4.4883 4.4961h31.867c2.4766 0 4.4961-2.0156 4.4961-4.4961zm0-49.523c0-2.4766-2.0156-4.4961-4.4961-4.4961h-31.867c-2.4766 0-4.4883 2.0117-4.4883 4.4961v31.863c0 2.4766 2.0078 4.4961 4.4883 4.4961h31.867c2.4766 0 4.4961-2.0156 4.4961-4.4961zm36.406 74.965c0-1.3359-1.0859-2.4219-2.4141-2.4219h-17.082c-1.332 0-2.4258 1.0859-2.4258 2.4219v8.4961c0 1.332 1.0898 2.4219 2.4258 2.4219h17.082c1.332 0 2.4141-1.0859 2.4141-2.4219zm32.445 0c0-1.3359-1.0898-2.4219-2.4141-2.4219h-17.082c-1.332 0-2.4258 1.0859-2.4258 2.4219v8.4961c0 1.332 1.0898 2.4219 2.4258 2.4219h17.082c1.3203 0 2.4141-1.0859 2.4141-2.4219zm10.016-25.32c0-5.9844-4.8633-10.855-10.852-10.855-5.9844 0-10.859 4.8672-10.859 10.855 0 5.9844 4.875 10.855 10.859 10.855 5.9883 0 10.852-4.8711 10.852-10.855zm0-42.453c0-5.9844-4.8633-10.855-10.852-10.855-5.9844 0-10.859 4.8672-10.859 10.855 0 5.9844 4.875 10.855 10.859 10.855 5.9883-0.003907 10.852-4.8672 10.852-10.855zm22.434 67.773c0-1.3359-1.0859-2.4219-2.4258-2.4219h-17.082c-1.3203 0-2.4141 1.0859-2.4141 2.4219v8.4961c0 1.332 1.0898 2.4219 2.4141 2.4219h17.082c1.3398 0 2.4258-1.0859 2.4258-2.4219zm20.867-25.32c0-5.9844-4.8633-10.855-10.852-10.855-5.9844 0-10.859 4.8672-10.859 10.855 0 5.9844 4.875 10.855 10.859 10.855 5.9883 0 10.852-4.8711 10.852-10.855zm0.011719-42.453c0-5.9844-4.875-10.855-10.859-10.855s-10.852 4.8672-10.852 10.855c0 5.9844 4.8633 10.855 10.852 10.855 5.9844 0 10.859-4.8672 10.859-10.855zm22.215 67.773c0-1.3359-1.0859-2.4219-2.4141-2.4219h-17.082c-1.332 0-2.4141 1.0859-2.4141 2.4219v8.4961c0 1.332 1.0859 2.4219 2.4141 2.4219h17.082c1.332 0 2.4141-1.0859 2.4141-2.4219zm20.879-25.32c0-5.9844-4.8633-10.855-10.859-10.855-5.9766 0-10.852 4.8672-10.852 10.855 0 5.9844 4.875 10.855 10.852 10.855 5.9922 0 10.859-4.8711 10.859-10.855zm0-42.453c0-5.9805-4.8633-10.855-10.859-10.855-5.9766 0-10.852 4.8672-10.852 10.855 0 5.9844 4.875 10.855 10.852 10.855 5.9922 0 10.859-4.8672 10.859-10.855zm-2.1484 0c0 4.8008-3.9023 8.7031-8.7148 8.7031-4.793 0-8.6953-3.9062-8.6953-8.7031 0-4.8008 3.9023-8.7031 8.6953-8.7031 4.8125 0 8.7148 3.9062 8.7148 8.7031zm-2.7383 0c0-3.2969-2.6719-5.9727-5.9766-5.9727-1.8594 0-3.5312 0.86328-4.6367 2.2109l4.8828 3.4102c0.11719 0.085938 0.18359 0.21875 0.18359 0.35547 0 0.085937-0.019531 0.17188-0.074219 0.24609-0.13672 0.19531-0.40625 0.24219-0.60156 0.10547l-4.875-3.4102c-0.53516 0.89453-0.85156 1.9414-0.85156 3.0586 0 3.3008 2.6719 5.9766 5.9688 5.9766 3.3086-0.003907 5.9805-2.6797 5.9805-5.9805zm2.7383 42.453c0 4.8008-3.9102 8.7031-8.7148 8.7031-4.793 0-8.6953-3.9062-8.6953-8.7031s3.9023-8.6992 8.6953-8.6992c4.8008 0 8.7148 3.9023 8.7148 8.6992zm-2.7383 0c0-1.8711-0.86328-3.5391-2.2031-4.6367l-3.4141 4.8828c-0.085937 0.11719-0.22266 0.18359-0.35937 0.18359-0.085938 0-0.16406-0.023437-0.24219-0.082031-0.19531-0.13281-0.24219-0.40234-0.097656-0.59766l3.4062-4.8789c-0.89062-0.53516-1.9336-0.85156-3.0586-0.85156-3.293 0-5.9688 2.6758-5.9688 5.9766 0 3.3008 2.6719 5.9766 5.9688 5.9766 3.2969 0.003906 5.9688-2.6719 5.9688-5.9727zm-40.363-42.453c0 4.8008-3.9023 8.7031-8.7031 8.7031-4.8008 0-8.7031-3.9062-8.7031-8.7031s3.9023-8.7031 8.7031-8.7031c4.8008 0 8.7031 3.9062 8.7031 8.7031zm-2.7266 0c0-1.8711-0.86328-3.543-2.2109-4.6328l-3.4141 4.8789c-0.085937 0.11719-0.21484 0.18359-0.35156 0.18359-0.085938 0-0.16406-0.023437-0.24219-0.074218-0.20312-0.13672-0.25-0.40234-0.10938-0.59766l3.4141-4.8789c-0.89453-0.53516-1.9414-0.85156-3.0586-0.85156-3.293 0-5.9766 2.6758-5.9766 5.9727 0 3.3008 2.6797 5.9766 5.9766 5.9766s5.9727-2.6758 5.9727-5.9766zm-40.574 0c0 4.7969-3.9023 8.7031-8.7031 8.7031-4.8008 0-8.7031-3.9062-8.7031-8.7031 0-4.8008 3.9023-8.7031 8.7031-8.7031 4.8008 0 8.7031 3.9062 8.7031 8.7031zm-2.7266 0c0-3.2969-2.6797-5.9727-5.9766-5.9727-1.8711 0-3.543 0.86328-4.6367 2.2109l4.875 3.4102c0.11719 0.085938 0.18359 0.21875 0.18359 0.35547 0 0.085937-0.019532 0.17188-0.074219 0.24609-0.13672 0.19922-0.40625 0.24219-0.60156 0.10547l-4.875-3.4102c-0.53516 0.89453-0.85156 1.9414-0.85156 3.0586 0 3.3008 2.6719 5.9766 5.9766 5.9766 3.3008-0.003907 5.9805-2.6797 5.9805-5.9805zm-176.52-10.016h-31.867c-1.5547 0-2.8242 1.2695-2.8242 2.8242v31.863c0 1.5586 1.2695 2.8281 2.8242 2.8281h31.867c1.5586 0 2.8242-1.2695 2.8242-2.8281v-31.863c0-1.5586-1.2656-2.8242-2.8242-2.8242zm49.016 49.527h-31.863c-1.5586 0-2.8242 1.2695-2.8242 2.8242v31.863c0 1.5586 1.2695 2.8242 2.8242 2.8242h31.863c1.5586 0 2.8242-1.2656 2.8242-2.8242v-31.863c0-1.5586-1.2656-2.8242-2.8242-2.8242zm-49.016 0h-31.867c-1.5547 0-2.8242 1.2695-2.8242 2.8242v31.863c0 1.5586 1.2695 2.8242 2.8242 2.8242h31.867c1.5586 0 2.8242-1.2656 2.8242-2.8242v-31.863c0-1.5586-1.2656-2.8242-2.8242-2.8242zm49.016-49.527h-31.863c-1.5586 0-2.8242 1.2695-2.8242 2.8242v31.863c0 1.5586 1.2695 2.8281 2.8242 2.8281h31.863c1.5586 0 2.8242-1.2695 2.8242-2.8281v-31.863c0-1.5586-1.2656-2.8242-2.8242-2.8242zm-98.023 49.527h-31.863c-1.5586 0-2.8281 1.2695-2.8281 2.8242v31.863c0 1.5586 1.2695 2.8242 2.8281 2.8242h31.863c1.5586 0 2.8281-1.2656 2.8281-2.8242v-31.863c-0.007812-1.5586-1.2773-2.8242-2.8281-2.8242zm0-49.527h-31.863c-1.5586 0-2.8281 1.2695-2.8281 2.8242v31.863c0 1.5586 1.2695 2.8281 2.8281 2.8281h31.863c1.5586 0 2.8281-1.2695 2.8281-2.8281v-31.863c-0.007812-1.5586-1.2773-2.8242-2.8281-2.8242zm147.04 0h-31.867c-1.5547 0-2.8242 1.2695-2.8242 2.8242v31.863c0 1.5586 1.2695 2.8281 2.8242 2.8281h31.867c1.5625 0 2.832-1.2695 2.832-2.8281v-31.863c0-1.5586-1.2695-2.8242-2.832-2.8242zm0 49.527h-31.867c-1.5547 0-2.8242 1.2695-2.8242 2.8242v31.863c0 1.5586 1.2695 2.8242 2.8242 2.8242h31.867c1.5625 0 2.832-1.2656 2.832-2.8242v-31.863c0-1.5586-1.2695-2.8242-2.832-2.8242zm162.3 63.395h-10.281v101.64h23.543v-101.64zm-108.79 0h-16.703v101.64h23.543v-37.07l-5.1797-0.003907h-1.668v-1.6719l0.003906-62.898zm-80.723 0v59.355h8.0195l-0.003906-59.355zm-5.3359 0h-16.703v101.64h23.543v-37.07h-6.8359v-1.6719zm28.828 0h-9.8984v64.574h-6.8359v37.07h23.543v-37.07h-6.8086v-1.6719l-0.003907-62.902zm-74.418 64.57v37.07h23.535l0.003906-101.64h-16.703v64.574h-1.6719zm86.055 0v37.07h23.543v-101.64h-16.703v64.574h-1.6758zm50.938-64.57v59.355h8v-59.355z"/>
</svg>
