<?xml version="1.0" encoding="UTF-8"?>
<svg width="752pt" height="752pt" version="1.1" viewBox="0 0 752 752" xmlns="http://www.w3.org/2000/svg">
 <path d="m336.02 448.97c5.5898 0 10.625 1.6758 13.977 4.4727v-81.633l65.977 19.57v91.137c0 9.5039-10.625 14.539-19.012 14.539-10.625 0-19.012-6.1523-19.012-14.539 0-7.8281 8.3867-14.539 19.012-14.539 5.5898 0 11.184 2.2383 14.539 5.0312v-61.504l-56.473-17.332v69.332c0 9.5039-11.184 13.977-19.012 13.977-10.625 0-19.012-6.1523-19.012-13.977 0-8.3867 8.3867-14.539 19.012-14.539zm-194.58-208h71.566v6.7109h-71.566zm334.92 22.926c5.5898 0 10.625 2.2383 13.977 5.0312v-82.191l65.977 20.129v91.137c0 9.5039-10.625 14.539-19.012 14.539-10.625 0-19.012-6.7109-19.012-14.539s8.3867-14.539 19.012-14.539c5.5898 0 11.184 2.2383 14.539 5.0312v-62.062l-56.473-16.773v68.773c0 9.5039-11.184 14.539-19.012 14.539-10.625 0-19.012-6.7109-19.012-14.539s8.3867-14.539 19.012-14.539zm-119.65 57.031c5.0312 0 9.5039 1.6758 12.859 4.4727v-91.137l36.344 19.57v24.043l-29.074-16.215v79.395c0 10.625-8.9453 19.57-20.129 19.57-11.184 0-20.129-8.9453-20.129-19.57 0-11.184 8.9453-20.129 20.129-20.129zm-154.32-27.957c5.5898 0 10.625 1.6758 13.977 4.4727v-81.633l66.535 19.57v91.137c0 9.5039-11.184 14.539-19.57 14.539-10.062 0-19.012-6.1523-19.012-14.539 0-7.8281 8.9453-14.539 19.012-14.539 6.1523 0 11.184 2.2383 14.539 5.0312v-61.504l-56.473-17.332v68.773c0 10.062-10.625 14.539-19.012 14.539-10.625 0-19.012-6.1523-19.012-14.539 0-7.8281 8.3867-13.977 19.012-13.977zm-60.945-26.277h71.566v6.1523h-71.566zm0 25.719h48.086c-3.3555 1.1172-5.5898 3.3555-7.2695 6.1523h-40.816zm0 25.16h41.934c2.7969 2.7969 6.1523 5.0312 10.062 6.1523h-52v-6.1523zm79.957 0h22.363c-1.6758 1.6758-2.2383 3.9141-2.7969 6.1523h-29.633c3.9141-1.1172 7.2695-3.3555 10.062-6.1523zm64.859 0h64.859c-4.4727 1.1172-8.3867 3.3555-11.184 6.1523h-53.676zm76.602 0h2.7969v1.1172c-0.55859-0.55859-1.6758-0.55859-2.7969-1.1172zm17.891 0h229.8v6.1523h-229.8zm-155.44-25.16h48.645v6.1523h-48.645zm60.945 0h79.395v6.1523h-79.395zm94.492 0h79.957c4.4727 2.7969 10.062 4.4727 15.656 4.4727 5.0312 0 10.625-1.6758 15.098-4.4727h24.043c-0.55859 1.6758-1.1172 3.3555-1.1172 5.5898v0.55859h-133.63v-6.1523zm179.48 0h50.32v6.1523h-50.32zm-334.92-25.719h48.645v6.1523h-48.645zm60.945 0h79.395v6.1523h-79.395zm123.57 0h48.645c-1.6758 1.6758-3.3555 3.9141-4.4727 6.1523h-44.172zm89.461 0h48.645v6.1523h-48.645zm60.945 0h50.32v6.1523h-50.32zm-170.54 6.1523h-8.9453v-4.4727zm-103.44-31.871h79.395v6.7109h-79.395zm104.56 0h95.609v6.7109h-83.867zm108.47 0h48.645v6.7109h-48.645zm60.945 0h50.32v6.7109h-50.32zm-321.5 6.7109h-13.418v-3.9141zm-22.363 257.76c5.0312 0 9.5039 1.6758 12.859 4.4727v-91.137l36.344 19.57v24.043l-29.074-15.656v78.836c0 11.184-8.9453 20.129-20.129 20.129s-20.129-8.9453-20.129-20.129c0-11.184 8.9453-20.129 20.129-20.129zm261.11 11.184c5.5898 0 10.625 1.6758 14.539 4.4727v-81.633l65.977 19.57v91.137c0 9.5039-10.625 14.539-19.012 14.539-10.625 0-19.012-6.1523-19.012-14.539 0-7.8281 8.3867-13.977 19.012-13.977 5.5898 0 10.625 1.6758 13.977 4.4727v-61.504l-56.473-17.332v69.332c0 9.5039-10.625 13.977-19.012 13.977-10.625 0-19.012-6.1523-19.012-13.977 0-8.3867 8.3867-14.539 19.012-14.539zm-331.56-14.539h64.859c-4.4727 1.1172-8.3867 3.3555-11.184 6.7109h-53.676zm76.602 0h2.7969v1.1172c-0.55859-0.55859-1.6758-0.55859-2.7969-1.1172zm17.891 0h247.7v6.7109h-247.7zm260 0h48.645v6.7109h-48.645zm61.504 0h48.645v6.7109h-48.645zm-415.99-25.16h79.395v6.1523h-79.395zm94.492 0h79.957c4.4727 2.7969 10.062 4.4727 15.656 4.4727 5.0312 0 10.625-1.6758 15.098-4.4727h24.043c-0.55859 1.6758-1.1172 3.9141-1.1172 5.5898v0.55859h-133.63v-6.1523zm179.48 0h68.215v6.1523h-68.215zm80.516 0h31.871l16.773 5.0312v1.1172h-48.645v-6.1523zm61.504 0h48.645v6.1523h-48.645zm-415.99-25.719h79.395v6.7109h-79.395zm123.57 0h48.645c-1.6758 1.6758-3.3555 3.9141-4.4727 6.7109h-44.172zm89.461 0h48.645v6.7109h-48.645zm60.945 0h68.215v6.7109h-68.215zm125.25 0h65.418v6.7109h-48.645v-1.6758l-16.773-5.0312zm-295.78 6.7109h-8.9453v-5.0312zm-103.44-31.871h79.395v6.1523h-79.395zm104.56 0h95.609v6.1523h-83.867zm108.47 0h48.645v6.1523h-48.645zm60.945 0h190.66v6.1523h-190.66z" fill="#fff" fill-rule="evenodd"/>
</svg>
