<?xml version="1.0" encoding="UTF-8"?>
<svg width="752pt" height="752pt" version="1.1" viewBox="0 0 752 752" xmlns="http://www.w3.org/2000/svg">
 <defs>
  <clipPath id="b">
   <path d="m180 232h432.79v318h-432.79z"/>
  </clipPath>
  <clipPath id="a">
   <path d="m139.21 258h134.79v231h-134.79z"/>
  </clipPath>
 </defs>
 <g clip-path="url(#b)">
  <path d="m519.31 232.74h-14.684v43.145h-54.082v43.145h-54.082v43.094h-54.082v43.145h-54.086v43.141h-54.082v43.145h-54.082v57.824h14.68v-43.145h54.082v-43.141h54.086v-43.098h54.082v-43.141h54.082v-43.145h54.082v-43.145h54.086v-43.141h93.484v-14.684z" fill="#fff"/>
 </g>
 <path d="m200.54 252.96c13.875 0 25.148-11.27 25.148-25.148 0-13.875-11.27-25.148-25.148-25.148-13.875 0-25.148 11.27-25.148 25.148s11.273 25.148 25.148 25.148z" fill="#fff"/>
 <g clip-path="url(#a)">
  <path d="m208.36 370.18 21.215 7.1992c10.988 3.6953 10.75 2.7461 12.504 14.207l6.6758 43.285c0.85156 6.4414 6.7266 10.988 13.164 10.133 6.4414-0.85156 10.988-6.7266 10.133-13.164v-0.046876l-8.6211-56.023c-1.8477-11.887-1.7539-11.555-12.359-17.191l-24.672-13.164v-15.156l32.441 9.0469c6.25 1.7539 12.738-1.8945 14.492-8.1445s-1.8945-12.738-8.1445-14.492h-0.046875l-38.738-10.844v-20.887c0-13.969-7.4844-25.906-19.891-25.953l-20.129-0.046875c-3.8828 0.85156-7.5312 2.4141-10.941 5.0195l-27.75 28.082c-7.3867 7.4844-8.4766 7.8633-8.4766 18.234v32.723c0 6.4883 5.2578 11.746 11.746 11.746s11.746-5.2578 11.746-11.746v-31.492l17.238-18.516-0.23828 59.953 0.71094 7.7188-11.652 49.301-23.965 61.566c-2.6992 5.918-0.09375 12.883 5.7773 15.582 5.918 2.6992 12.883 0.09375 15.582-5.7773v-0.046875l29.742-66.016z" fill="#fff"/>
 </g>
</svg>
