<?xml version="1.0" encoding="UTF-8"?>
<svg width="752pt" height="752pt" version="1.1" viewBox="0 0 752 752" xmlns="http://www.w3.org/2000/svg">
 <g fill="#fff">
  <path d="m238.7 270.91c0 16.32-0.078125 32.641 0.039063 48.953 0.046874 6.3086-0.26953 12.598-0.042969 18.902 0.039062 1.1094-0.03125 2.2383 0.074219 3.332v0.003906c0.50391 6.4609 0.59375 12.949 0.26172 19.422-0.125 3.875 0.13672 7.7773 0.14844 11.668 0.0625 20.957 0.11328 41.914 0.14844 62.871 0.054688 34.676 0.10938 69.348 0.16016 104.02 0.007812 4.8125 0.30078 9.6172 0.28516 14.43 0.23047 4.9922 0.20703 9.9883-0.066406 14.977-0.078126 0.73438-0.0625 1.4727 0.050781 2.2031 0.33594 2.5703 0.32031 5.1758-0.046875 7.7422-0.125 1.1055-0.15625 2.2188-0.10547 3.332 0.12891 2.7695 0.39062 5.5195 0.26562 8.3086-0.089844 0.69922 0.17969 1.3984 0.71875 1.8516l0.73438-0.082031 0.44141-0.88281c0.12891-0.72656 0.19141-1.4609 0.19141-2.1992-0.11719-5.5586 0.10156-11.129-0.47266-16.672-0.0625-1.2852-0.039062-2.5742 0.070313-3.8594 0.039062-1.1094 0.1875-2.2148 0.16406-3.3203-0.078125-3.6836-0.27344-7.375-0.31641-11.059-0.066406-5.9297-0.0625-11.855-0.0625-17.777 0-1.4844 0.09375-2.957 0.14453-4.4414 0.03125-0.73828 0.14062-1.4805 0.10156-2.2109-0.64062-11.293-0.28906-22.605-0.34375-33.91-0.085938-18.543-0.066406-37.094-0.09375-55.633-0.039063-22.996-0.078125-45.992-0.12109-68.988-0.007812-3.8906-0.30469-7.793-0.1875-11.672 0.09375-3.3477 0.074219-6.6641-0.066406-10-0.49219-11.855-0.28516-23.719-0.32422-35.582-0.09375-29.297-0.15234-58.598-0.17969-87.898-0.007813-7.6016 0.03125-15.207 0.023437-22.812 0-1.8477-0.042969-3.707-0.16016-5.5469-0.097657-0.46094-0.33594-0.87891-0.6875-1.1953-0.35156-0.35547-0.91016 0.50781-0.95703 1.4102l-0.042969 1.1094c-0.007813 0.37109 0 0.74219 0 1.1133 0.039062 16.684 0.074219 33.375 0.10547 50.066 0.011718 6.6797 0.011718 13.355 0 20.027z" fill-rule="evenodd"/>
  <path d="m257.66 545.71c0-11.312-0.003906-22.621-0.007812-33.93 0-2.2148-0.14063-4.4414-0.19531-6.6641-0.027344-1.1016-0.035156-2.2148 0.007813-3.3164v0.003906c0.26953-5.1836 0.21875-10.375-0.15625-15.551-0.15625-1.8398-0.1875-3.7031-0.1875-5.5547-0.03125-27.816-0.054688-55.637-0.070313-83.453-0.03125-21.324-0.097656-42.652-0.1875-63.984-0.023437-7.6016 0.015625-15.211-0.054687-22.812-0.035157-3.5156-0.34766-7.0273-0.39063-10.543-0.070312-5.5586-0.074218-11.117-0.007812-16.68h-0.007812c-0.11328-4.0703-0.007813-8.1445 0.30859-12.203 0.03125-0.74219 0.007813-1.4844-0.074219-2.2188-0.10547-2.957-0.39062-5.9297-0.28516-8.875 0.16016-4.4531 0.015625-8.875-0.03125-13.316-0.042968-4.4414 0.11719-8.8945 0.18359-13.336 0.007812-0.55859 0.007812-1.1094-0.011719-1.6641-0.019531-0.64453-0.80078-1.5898-1.1211-1.3164-0.38672 0.28516-0.66406 0.69922-0.78516 1.1641-0.14844 1.4688-0.22266 2.9492-0.21875 4.4258 0.03125 15.023 0.082031 30.047 0.14062 45.062 0.027344 5.3633 0.17969 10.723 0.45703 16.074l0.074218 3.8984c0.019532 17.062 0.035156 34.125 0.050782 51.188 0.035156 21.516 0.078124 43.027 0.12891 64.543 0.042968 24.477 0.085937 48.957 0.125 73.441 0.007812 4.4531 0 8.9023 0.0625 13.355 0.046875 3.1445 0.32031 6.2852 0.30078 9.4258-0.027344 5.3594 0.16797 10.715-0.023437 16.086-0.17969 5.1719 0.14062 10.371 0.17578 15.555 0.09375 15.016 0.17188 30.039 0.22656 45.062 0.011719 3.3398-0.09375 6.6758-0.10547 10.016 0 1.4766 0.09375 2.957 0.17188 4.4219 0.027343 0.51172 0.67578 1.0664 0.91406 0.81641l0.54688-0.73828 0.007813-0.007813c0.15625-1.0898 0.24219-2.1875 0.26172-3.2891-0.046875-18.363-0.10938-36.723-0.17969-55.078z" fill-rule="evenodd"/>
  <path d="m245.97 536.83c0-15.578-0.003906-31.156-0.007812-46.742 0-1.6641-0.13672-3.3281-0.22266-4.9922-0.16406-1.2812-0.23438-2.5781-0.21094-3.8711 0.59375-6.4844-0.21875-12.949-0.078125-19.426 0.13672-6.4805 0.003906-12.984 0-19.48l-0.023438-18.926-0.042969-19.48c-0.0625-21.344-0.12109-42.68-0.18359-64.02-0.03125-12.426-0.015625-24.859-0.074219-37.289-0.03125-7.0312-0.17969-14.066-0.26172-21.105-0.007812-0.73828 0.085938-1.4766 0.09375-2.2148 0.039063-3.707 0.16016-7.418 0.066407-11.117-0.25391-4.4375-0.25391-8.8828 0.003906-13.32 0.15234-2.7773 0.13672-5.5586-0.050782-8.3359-0.11719-3.5117-0.17578-7.0078-0.023437-10.539 0.21484-4.9844 0.26172-10.004 0.066406-14.98-0.30078-3.5039-0.32031-7.0234-0.054687-10.531-0.007813-0.71094-0.16406-1.4141-0.46484-2.0586l-0.68359-0.48047-0.64062 0.55859c-0.22266 0.6875-0.35156 1.4023-0.38672 2.1211-0.039062 2.7812-0.019531 5.5625-0.007812 8.3477 0.035156 10.578 0.023438 21.152 0.13281 31.73 0.0625 6.1172 0.44141 12.223 0.46484 18.34 0.09375 23.746 0.09375 47.492 0.14453 71.242 0.03125 16.883 0.066406 33.766 0.10547 50.648 0.03125 19.852-0.027344 39.703 0.10547 59.555 0.035156 5.3555-0.09375 10.73 0.30859 16.086 0.082031 1.0898-0.11328 2.207-0.14062 3.3203v0.003906c-0.14844 2.2188-0.17969 4.4414-0.09375 6.6641 0.40625 4.9922 0.40234 9.9922 0.41797 14.996 0.054688 20.41 0.078126 40.812 0.074219 61.207 0.011719 9.8359 0.039063 19.668 0.078125 29.5 0.007813 2.0352 0.10938 4.0781 0.21484 6.1055l0.52344 0.64453 0.64453-0.47266h-0.003907c0.21875-1.6406 0.34766-3.2891 0.38672-4.9414 0.011719-7.4258-0.046875-14.844-0.0625-22.258-0.011719-8.1641-0.011719-16.328 0-24.492z" fill-rule="evenodd"/>
  <path d="m250.55 598.15c0.36719-0.53125 0.78516-0.84375 0.83984-1.2539v0.003906c0.23438-1.4531 0.36719-2.9219 0.39844-4.3945 0.015625-12.617 0-25.23-0.035157-37.844 0-1.293-0.11328-2.5859-0.1875-3.8828h-0.003906c-0.13672-0.91406-0.19531-1.8359-0.17578-2.7617 0.53906-4.6055 0.078125-9.2227 0.1875-13.828 0.019531-0.73828 0.070313-1.4805 0.023437-2.2188-0.60937-9.25-0.27344-18.523-0.32031-27.797-0.097656-19.844-0.15625-39.691-0.18359-59.535-0.03125-15.395 0-30.793-0.019531-46.188-0.011719-10.387-0.042969-20.773-0.09375-31.16-0.015625-2.2109-0.23828-4.4258-0.35156-6.6406-0.085937-1.6602-0.20703-3.3281-0.21094-4.9883-0.027344-12.055-0.039063-24.113-0.035156-36.168-0.027344-31.719-0.0625-63.438-0.10156-95.152 0.19922-1.8242 0.078125-3.668-0.35938-5.4492l-0.68359-0.39844-0.30469 0.28516-0.33594 0.97656c-0.070312 1.4766-0.125 2.957-0.125 4.4375-0.007812 6.125 0 12.246 0.019532 18.363 0.0625 22.254 0.082031 44.516 0.21484 66.766 0.046874 7.7734-0.09375 15.562 0.47266 23.328 0.19922 2.7617 0.085937 5.5664 0.085937 8.3477-0.003906 18.543-0.011719 37.09-0.023437 55.641 0.003906 14.648 0.027344 29.305 0.066406 43.961 0.023438 17.062 0.042969 34.125 0.0625 51.191 0.042969 22.066 0.10156 44.133 0.17188 66.195h0.003906c-0.046875 1.2969-0.007812 2.5977 0.11328 3.8906 0.35938 2.5625 0.41016 5.1641 0.14453 7.7422-0.074219 0.54688-0.10156 1.1016-0.078125 1.6562 0.56641 7.5781 0.28516 15.191 0.44531 22.789-0.0625 1.375 0.0625 2.75 0.37891 4.0859z" fill-rule="evenodd"/>
  <path d="m236.84 492.79c0-20.594 0.046874-41.184-0.03125-61.773-0.023438-5.1719-0.015626-10.355-0.40234-15.535-0.28906-3.8633-0.1875-7.7812-0.19531-11.68-0.042969-31.91-0.074219-63.82-0.09375-95.727-0.011719-25.047-0.011719-50.09 0-75.137 0-1.668-0.03125-3.332-0.125-5v0.007812c-0.050781-0.53125-0.21484-1.0391-0.47266-1.5039l-0.6875-0.38281-0.64062 0.59375-0.26953 1.0195c0.66406 10 0.25781 20.023 0.31641 30.023 0.14844 24.859 0.16406 49.719 0.20703 74.578 0.035156 21.336 0.058594 42.668 0.0625 64 0.007813 8.9102 0.027344 17.812 0.0625 26.711 0.007813 1.8516 0.058594 3.7148 0.23438 5.543 0.42969 4.4336 0.45703 8.8945 0.089844 13.332-0.25781 3.875-0.27734 7.7617-0.070313 11.641 0.23047 6.1211 0.23438 12.23 0.25 18.352 0.070313 25.781 0.11328 51.562 0.12891 77.336 0.003906 5.1914 0 10.387 0.03125 15.582h0.003906c0.015625 0.92188 0.10156 1.8398 0.25781 2.7461l0.56641 0.69141c0.27734 0.26172 0.80859-0.3125 0.86719-0.88281l0.16016-1.6445c0.035156-1.2969 0.054687-2.5977 0.050781-3.8945l-0.19922-68.996z" fill-rule="evenodd"/>
  <path d="m262.31 561.71c0.3125-0.5625 0.70312-0.95312 0.75781-1.4102v-0.003906c0.20703-1.6445 0.32813-3.2969 0.35938-4.9531 0.058593-6.6758 0.11719-13.355 0.0625-20.016-0.046876-5.5469-0.25391-11.094-0.37891-16.645-0.14453-6.1094-0.23047-12.219-0.019531-18.34 0.12109-3.5039-0.11328-7.0312-0.125-10.547-0.050781-20.023-0.089844-40.047-0.11719-60.074-0.054687-27.07-0.11328-54.137-0.17578-81.203-0.019531-8.1602-0.019531-16.316-0.054687-24.477-0.007813-2.0352-0.14062-4.0742-0.1875-6.1016-0.027344-1.1055 0-2.2148 0.027344-3.3203 0.039062-1.8516 0.15234-3.7031 0.14453-5.5547-0.035157-9.0742-0.13281-18.148-0.14062-27.223 0-5.1875 0.17578-10.375 0.16406-15.562-0.007812-4.4375-0.20312-8.8828-0.26172-13.32-0.027344-2.0312 0.082031-4.0664 0.10937-6.1016 0.011719-0.91797 0-1.8438-0.042968-2.7617-0.03125-0.71484-0.74219-1.6094-1.0742-1.3242l-0.003906-0.007812c-0.36328 0.31641-0.62891 0.72266-0.78125 1.1797-0.16797 0.52344-0.22656 1.0781-0.16797 1.625 0.26953 3.3125 0.26953 6.6445-0.007812 9.957-0.12109 2.4062-0.082032 4.8203 0.12891 7.2188 0.31641 3.6914 0.38672 7.3984 0.21094 11.094-0.070312 2.4023 0.09375 4.8125 0.10938 7.2148 0.050782 10.383 0.09375 20.766 0.12109 31.148 0.042969 22.617 0.070312 45.238 0.089844 67.855 0.007812 15.016 0.007812 30.035-0.007813 45.051 0.003907 13.906 0.023438 27.809 0.050781 41.711 0.007813 16.871 0.011719 33.742 0.003907 50.613 0.007812 12.234 0.042969 24.465 0.10156 36.695 0.011719 2.0234 0.25391 4.0508 0.46094 6.0625h-0.003907c0.14453 0.53516 0.36328 1.0469 0.64844 1.5195z" fill-rule="evenodd"/>
  <path d="m230.3 375.36v40.617c0.019531 17.809 0.015625 35.613 0.10938 53.422l0.003906-0.003906c-0.12109 4.0703-0.007812 8.1406 0.33594 12.191 0.054688 0.92578 0.035156 1.8516-0.0625 2.7734-0.042969 0.92188-0.21484 1.8555-0.16406 2.7656 0.47656 9.0625 0.36328 18.137 0.35937 27.207l-0.027343 26.691c0 2.0391 0.011719 4.0742 0.054687 6.1133l0.27344 1.6094 0.61719 0.55859 0.66406-0.4375v-0.003906c0.23438-0.86328 0.37109-1.7539 0.41016-2.6484 0.019531-5.5625-0.011719-11.125-0.027344-16.684-0.042968-20.766-0.09375-41.535-0.14453-62.312-0.007813-3.1406-0.42969-6.3125-0.24219-9.4258-0.24609-4.6094-0.21875-9.2266 0.085937-13.828 0.082031-0.55078 0.089844-1.1055 0.027344-1.6562-0.6875-8.3164-0.35156-16.672-0.44141-25.004-0.09375-8.1602-0.03125-16.324-0.050781-24.484-0.039062-15.016-0.10938-30.035-0.125-45.059-0.027343-28.934-0.039062-57.867-0.035156-86.793 0-4.4531 0.035156-8.9023 0.007813-13.355-0.007813-1.2734-0.17188-2.5664-0.28516-3.8438-0.042969-0.51953-0.64453-0.99219-0.95703-0.75781l-0.57812 0.67578c-0.47656 2.7305-0.60156 5.5117-0.37891 8.2734 0.3125 3.3125 0.3125 6.6445 0 9.957-0.16406 1.8438-0.15625 3.6953 0.019531 5.5352 0.27344 2.7656 0.39062 5.543 0.35156 8.3203 0.027344 19.477 0.050782 38.949 0.066407 58.422 0.011719 13.723 0.011719 27.445 0 41.168z" fill-rule="evenodd"/>
  <path d="m269.29 469.61c0-19.48 0.10547-38.961-0.0625-58.441-0.054687-6.4609-0.011718-12.938-0.40625-19.406-0.23828-3.8672-0.11328-7.7891-0.11328-11.684-0.007813-38.402-0.015625-76.809-0.015625-115.21 0-3.1562-0.011719-6.3125-0.066406-9.4688v0.003906c-0.03125-0.71875-0.15625-1.4258-0.36719-2.1094l-0.66406-0.40625-0.30469 0.25781-0.39844 1.5234c-0.058594 1.8555-0.0625 3.7109-0.058594 5.5625 0.0625 32.102 0.13672 64.199 0.21484 96.293 0.019531 5.3633 0.28906 10.723 0.4375 16.09l0.070312 4.4531c0.003907 4.4492 0 8.8984-0.015625 13.348v-0.007812c0.03125 1.1133 0.007813 2.2266-0.078125 3.3359-0.82031 7.5781-0.29688 15.191-0.4375 22.781 1.0273 15.555 0.44141 31.145 0.53125 46.715 0.082031 14.656 0.003907 29.32 0 43.973 0 3.3398 0.007813 6.6758-0.019531 10.016-0.011719 1.2891-0.09375 2.5859-0.17969 3.875-0.046874 0.73438-0.26953 1.4688-0.24219 2.1914 0.19531 5.7461-0.33984 11.477-0.14844 17.215l-0.003907 0.007812c-0.12891 1.8203 0.15625 3.6445 0.83594 5.3359l0.33594 0.29297 0.68359-0.45312 0.35156-0.97266c0.10156-1.2891 0.1875-2.582 0.21094-3.875 0.054688-3.3438 0.09375-6.6758 0.09375-10.012-0.039062-14.84-0.085938-29.68-0.14453-44.516-0.011719-5.5703 0-11.133 0-16.699z" fill-rule="evenodd"/>
  <path d="m228.58 513.21c-0.35547-3.4492-0.39062-6.9258-0.10547-10.383 0.050782-0.92578 0.042969-1.8516-0.03125-2.7773-0.52344-4.2227-0.55078-8.4961-0.085937-12.73 0.035156-0.73828 0.007812-1.4766-0.085938-2.2109-0.085937-2.2188-0.24609-4.4375-0.24609-6.6562-0.054688-27.25-0.097657-54.5-0.12891-81.746-0.035156-17.238-0.12891-34.484-0.16797-51.723-0.046874-19.281-0.070312-38.562-0.078124-57.844-0.003907-5.7344 0.058593-11.477 0.039062-17.215h-0.003906c-0.011719-1.6562-0.11719-3.3086-0.3125-4.957l-0.89453-0.91016c-0.35156-0.17969-0.85156 0.42188-0.88281 0.92969-0.34375 5.1719-0.38281 10.359-0.11719 15.535 0.21484 3.875-0.027343 7.7656 0.44531 11.621 0.097656 1.1055 0.074219 2.2227-0.070313 3.3242-0.18359 2.3945-0.23828 4.7969-0.17187 7.1992 0.10937 24.645 0.19922 49.285 0.26562 73.922 0.0625 19.281 0.11328 38.562 0.14844 57.844 0.027344 19.277 0.035156 38.555 0.023438 57.836 0.003906 10.199 0.011718 20.395 0.019531 30.586 0 1.6602 0.054687 3.332 0.1875 4.9844 0.097656 0.69922 0.3125 1.3828 0.63281 2.0117l0.71875 0.25781 0.33594-0.25v-0.003906c0.27734-0.84375 0.45703-1.7188 0.53906-2.6055 0.054688-4.6328 0.027344-9.2656 0.027344-14.039z" fill-rule="evenodd"/>
  <path d="m494.9 507.25c0-1.668 0.035156-3.3398-0.003907-5.0039-0.125-5-0.34766-10-0.40234-15-0.13281-12.059-0.22266-24.113-0.27344-36.164-0.074219-15.582-0.10156-31.16-0.17578-46.742-0.011719-2.2188-0.19922-4.4375-0.29688-6.6484h-0.003906c-0.089844-0.92188-0.11328-1.8438-0.0625-2.7695 0.3125-3.8711 0.28125-7.7617-0.085938-11.629-0.09375-1.6602-0.10547-3.332-0.09375-5.0039 0.019531-7.9688 0.10938-15.945 0.078125-23.918-0.039063-10.383-0.20312-20.766-0.25781-31.152-0.082031-16.137-0.10547-32.277-0.1875-48.41-0.011718-2.5938-0.19531-5.1836-0.30078-7.7656-0.039062-0.92188-0.16406-1.8555-0.11328-2.7695 0.40625-7.0352-0.32031-14.078 0.070312-21.109l0.015626-0.55469c-0.03125-4.5625-0.57813-7.1523-1.1445-6.4062-1.3516 1.7852-0.79297 4.168-0.72656 6.2578 0.64844 21.488 0.50391 42.988 0.60547 64.48 0.074219 15.949 0.13672 31.902 0.18359 47.859 0.011719 4.082-0.023437 8.1562 0.007813 12.238l0.003906 0.007813c-0.074219 3.5195 0.050781 7.043 0.37109 10.551 0.13281 1.4766 0.17969 2.957 0.14062 4.4375 0.074218 24.852 0.14844 49.703 0.21484 74.555 0.03125 10.203 0.11719 20.402 0.10156 30.605 0 3.3359 0.39453 6.6172 0.35156 9.9766-0.10156 7.5977 0.074219 15.203 0.17188 22.801v0.003906c-0.16406 1.4531-0.035157 2.9297 0.37891 4.332l0.28516 0.34375 0.72266-0.35547c0.26172-0.45703 0.42578-0.96094 0.48047-1.4844 0.089844-1.2891 0.09375-2.5898 0.09375-3.8828 0.007813-3.8906 0-7.7812 0-11.68z" fill-rule="evenodd"/>
  <path d="m274.53 398.46v-50.641c0-25.969-0.003906-51.938-0.011719-77.902 0-1.4805-0.023437-2.9648-0.066406-4.4531-0.03125-0.9375-0.63281-1.7695-0.95703-1.3906h-0.003907c-0.33984 0.33594-0.57422 0.76562-0.67578 1.2305-0.12891 2.0273-0.20703 4.0742-0.20312 6.1055 0.019531 15.211 0.058594 30.418 0.10547 45.629 0.039062 18.363 0.070312 36.727 0.09375 55.09 0.019531 26.52 0.023437 53.043 0.011718 79.57-0.015624 17.25-0.10937 34.5-0.16016 51.75-0.019531 7.2344-0.019531 14.465 0 21.691 0 1.8555 0.050782 3.7109 0.13672 5.5586h0.003906c0.019531 0.72656 0.14844 1.4453 0.39062 2.1328 0.19922 0.37109 0.54688 0.64453 0.95703 0.75l0.60156-0.61328c0.22656-0.875 0.36328-1.7734 0.40234-2.6797 0.023437-2.9648 0.09375-5.9492-0.09375-8.8945-0.48828-7.5859-0.44922-15.188-0.46484-22.789-0.007812-4.0742-0.0625-8.1523-0.0625-12.219 0-19.664 0.007812-39.328 0.019531-58.988v-28.938z" fill-rule="evenodd"/>
  <path d="m277.84 333.19c0 16.141 0.003906 32.281 0.007812 48.418 0 2.4062 0.15625 4.8125 0.23828 7.2188 0.03125 0.92188 0.125 1.8555 0.066407 2.7695h0.003906c-0.46094 8.5117-0.44922 17.043 0.039062 25.551 0.20312 3.8867 0.17188 7.7812-0.10156 11.664-0.30859 5.1797-0.35547 10.371-0.13672 15.555 0.0625 2.5859 0.14844 5.1406 0.058594 7.7422-0.15234 4.2383 0.027343 8.5 0.09375 12.754 0.078125 5.3711 0.23828 10.746 0.26562 16.125 0.039062 7.7891 0 15.578-0.039063 23.371-0.011719 1.8516-0.23047 3.6953-0.27734 5.543-0.066407 2.5859-0.10547 5.1836-0.070313 7.7734h-0.007813c0.058594 0.71484 0.23047 1.418 0.51172 2.0781l0.63672 0.5625 0.92578-0.875c0.17578-1.4648 0.26172-2.9375 0.25781-4.4141-0.007813-7.2266-0.0625-14.465-0.082032-21.699-0.042968-16.695-0.082031-33.391-0.12109-50.086-0.011719-3.3359-0.19531-6.6641-0.28906-10v0.003906c-0.054687-0.92188-0.054687-1.8477 0-2.7695 0.41406-4.9883 0.41406-10 0-14.988-0.089844-0.73438-0.10547-1.4766-0.046875-2.2148 0.38672-2.75 0.37109-5.543-0.042969-8.2891l-0.03125-0.55469c0.79688-6.4805-0.4375-12.938-0.11719-19.418 0.10938-2.2148 0.10156-4.4453 0.15625-6.6641 0.019531-0.74609 0.10547-1.4805 0.082031-2.2227-0.49219-16.312-0.21875-32.637-0.28906-48.957-0.066406-15.582-0.035156-31.16-0.0625-46.746v0.003906c-0.007813-1.1055-0.078125-2.207-0.20703-3.3047l-0.61719-0.51562-0.65625 0.47266c-0.21484 0.87891-0.33203 1.7812-0.35938 2.6875 0 7.6016 0.042969 15.211 0.054688 22.816 0.011718 10.203 0.011718 20.406 0 30.609z" fill-rule="evenodd"/>
  <path d="m221.16 293.89c-0.13672 5.418 0.035156 10.84 0.50781 16.238l0.03125 0.55078c-0.41016 4.2383-0.13672 8.4961-0.23828 12.742-0.14062 2.0273-0.12891 4.0664 0.027344 6.0938 0.09375 0.54688 0.13672 1.1016 0.12891 1.6602-0.58594 8.3359 0.22656 16.645 0.1875 24.98-0.10547 25.781 0.050781 51.57 0.089844 77.355 0.019531 12.055-0.015625 24.113-0.015625 36.172l0.003906-0.007813c-0.035156 2.9609 0.125 5.9219 0.48438 8.8594 0.26562 2.5781 0.37109 5.1719 0.31641 7.7617 0.042968 8.5312 0.03125 17.066 0.0625 25.598 0 1.2891 0.09375 2.5859 0.17969 3.8711 0.039063 0.65625 0.72266 1.5 1.0977 1.4414 0.41406-0.066406 0.93359-0.86328 1.0117-1.5977h0.003906c0.34375-3.8789 0.35938-7.7773 0.046875-11.656-0.15625-1.8398-0.16406-3.6875-0.023437-5.5234 0.11328-1.4805 0.12109-2.9648 0.023437-4.4414-0.33594-4.0547-0.33203-8.1289 0.011719-12.18 0.097656-0.73438 0.10156-1.4805 0.003906-2.2148-0.39844-3.3086-0.54688-6.6445-0.44141-9.9766l-0.050781-1.1094c-0.60156-4.5742-0.86328-9.1836-0.78125-13.793 0.28516-5.543 0.26562-11.094-0.058594-16.633-0.050781-22.441-0.10547-44.887-0.16406-67.332l-0.085937-32.281h0.003906c0.050781-1.4844 0.015625-2.9688-0.10547-4.4453-0.26953-2.9492-0.33203-5.9102-0.19141-8.8672 0.058594-3.6953-0.14062-7.4023-0.14062-11.094 0-5.9336 0.14453-11.863 0.10156-17.793-0.035156-5.1875-0.23828-10.371-0.39844-15.547l-0.48828-0.80859c-0.19922-0.23438-0.89844 0.35156-0.96875 0.79688l-0.16016 1.082c-0.027344 1.1055-0.011719 2.2227-0.011719 3.332z" fill-rule="evenodd"/>
  <path d="m285.94 435.95c0-11.684 0.11719-23.375-0.046875-35.051-0.089844-6.1016 0.41406-12.23-0.27344-18.312 0.5-6.1133-0.41406-12.188-0.26563-18.305 0.15234-6.1211 0.007813-12.238 0-18.359l-0.027343-17.809c-0.003907-6.125-0.003907-12.246 0-18.363l-0.027344-18.914 0.003906-0.007812c0.027344-0.73438-0.011719-1.4727-0.11719-2.2031-0.10547-0.44922-0.35156-0.85547-0.70312-1.1562-0.375-0.31641-0.94531 0.5-0.98047 1.3789-0.03125 0.73828-0.050781 1.4805-0.046875 2.2227l0.089844 26.145c0.046875 19.656 0.097656 39.316 0.14453 58.98 0.007812 2.7734 0.16797 5.543 0.24219 8.3203v0.003906c0.074218 1.1094 0.074218 2.2227 0 3.3281-0.27734 3.1406-0.27344 6.2969 0.011718 9.4375 0.38672 6.4883 0.17969 12.957 0.011719 19.438-0.082031 0.91797-0.089844 1.8398-0.027344 2.7617 0.30078 3.1367 0.28516 6.293-0.039062 9.4297-0.33594 5.5469-0.32031 11.105 0.039062 16.652 0.070313 1.1016 0.03125 2.2148 0.054688 3.3203 0.12891 6.8359-0.10156 13.672 0.13281 20.508 0.12109 3.1484 0.042969 6.3008-0.23828 9.4375-0.35938 5.7344-0.41016 11.484-0.14844 17.223 0.046876 0.52734 0.21094 1.0352 0.47266 1.4961l0.68359 0.48438 0.68359-0.49609c0.24219-0.47266 0.39062-0.98828 0.43359-1.5156 0.078125-1.6641 0.10547-3.332 0.09375-5-0.0625-18.363-0.13281-36.727-0.20703-55.082z" fill-rule="evenodd"/>
  <path d="m485.89 287.25c0 3.5234-0.046875 7.0469 0.019531 10.566 0.046875 2.7773 0.23828 5.543 0.36328 8.3164l0.13672 3.8828c0.0625 23.734 0.12109 47.465 0.17578 71.195 0.039062 10.379 0.22266 20.754 0.33984 31.137-0.52344 4.6094 0.39453 9.2461-0.10938 13.863h-0.003906c-0.050781 0.55469-0.046875 1.1094 0.015625 1.6641 0.81641 7.7539 0.41406 15.551 0.47656 23.332 0.13672 16.125 0.12891 32.262 0.17187 48.391 0.011719 4.4531-0.027343 8.8984 0 13.348l0.003907-0.003907c-0.12109 1.2773 0.066406 2.5586 0.54688 3.7461l0.65234 0.58984 0.64062-0.58984 0.41016-1.5391c0.11719-1.293 0.12109-2.5898 0.015625-3.8828-0.54297-6.6484-0.71875-13.32-0.52734-19.984-0.17969-17.246-0.25391-34.484-0.36328-51.727-0.003907-1.2891 0.12109-2.5938 0.09375-3.8828-0.054688-2.957-0.14844-5.918-0.25-8.875-0.054688-1.668-0.19922-3.3281-0.20312-4.9922-0.10547-26.324-0.20312-52.652-0.29688-78.98-0.007813-1.8555-0.11719-3.7031-0.18359-5.5547l0.003906-0.003907c-0.089843-0.91797-0.12109-1.8398-0.09375-2.7617 0.33984-3.875 0.28516-7.7734-0.16797-11.637-0.10937-1.4766-0.14453-2.9609-0.10156-4.4414-0.011719-15.02-0.023438-30.035-0.03125-45.051h0.003906c-0.023437-1.0977-0.12109-2.1875-0.29688-3.2695l-0.60547-0.52344-0.625 0.50781c-0.18359 1.0781-0.28516 2.1641-0.31641 3.2578-0.03125 4.6367-0.011718 9.2695-0.011718 13.906z" fill-rule="evenodd"/>
  <path d="m499.23 431.67c-0.078124-21.52-0.16016-43.039-0.24219-64.559 0.046875-1.3008 0.019531-2.5977-0.085937-3.8945-0.45313-4.7969-0.61719-9.6211-0.48828-14.438-0.007812-19.293-0.011718-38.582-0.003906-57.879 0-5.3828-0.019531-10.766-0.054688-16.141 0.019532-0.92578-0.027343-1.8516-0.14453-2.7656-0.097656-0.46094-0.33594-0.87891-0.67578-1.207-0.33984-0.33594-0.90625 0.50781-0.95312 1.4336s-0.085937 1.8555-0.082031 2.7773c0.019531 6.4961 0.042968 12.992 0.070312 19.48 0.050782 7.9805 0.11328 15.957 0.1875 23.93 0.03125 2.7773 0.1875 5.5508 0.29297 8.3281l0.078125 1.1016h0.003906c-0.27734 3.6797-0.28516 7.3789-0.023437 11.059 0.03125 3.332 0.1875 6.6562 0.19531 9.9844 0.042969 31.906 0.11328 63.816 0.20703 95.73 0.011719 4.4453 0.21875 8.8906 0.30469 13.34 0.023438 1.1055-0.078125 2.2148-0.11328 3.3203h0.003906c-0.10156 1.293-0.12891 2.5859-0.078125 3.8828 0.39844 5.7266 0.48828 11.469 0.26953 17.203-0.058593 3.1445-0.039062 6.2773-0.14844 9.4219 0.027344 3.5 0.25391 6.9961 0.67969 10.469l0.62109 0.48828 0.62891-0.52734h-0.003906c0.21094-1.2539 0.33203-2.5234 0.36328-3.8008-0.027344-6.8633-0.066406-13.734-0.1875-20.59-0.11719-6.668-0.40625-13.332-0.5-19.996-0.10156-7.418-0.070312-14.84-0.09375-22.258v-3.8984z" fill-rule="evenodd"/>
  <path d="m504.18 361.01c0 10.938-0.03125 21.871 0.011719 32.805 0.027344 5.7305 0.29688 11.453 0.48047 17.18 0.11719 3.6836-0.1875 7.3867-0.28516 11.082-0.10547 1.4766-0.10156 2.957 0.007813 4.4297 0.32031 3.3164 0.44141 6.6523 0.35938 9.9844 0.007812 10.195 0.042969 20.387 0 30.574-0.015625 4.0742-0.042969 8.1367-0.39062 12.199-0.17578 2.3984-0.16797 4.8086 0.019531 7.207 0.23047 2.5781 0.28125 5.1719 0.15234 7.7617-0.003906 0.52734 0.10938 1.0547 0.33203 1.5352l0.68359 0.46484 0.66406-0.49609 0.3125-0.99609c0.078124-1.4805 0.15625-2.9609 0.15234-4.4375-0.0625-16.312-0.13672-32.617-0.22266-48.922-0.011719-2.4023-0.20312-4.8047-0.30078-7.2031-0.066406-1.668-0.20312-3.3359-0.16016-4.9922 0.22656-8.1523-0.16797-16.293-0.11328-24.438 0.058594-8.1445 0-16.309-0.023437-24.465-0.0625-24.273-0.13281-48.551-0.20312-72.828-0.023438-7.5781-0.089844-15.16-0.19922-22.742l-0.003906 0.003906c-0.089844-0.89453-0.27734-1.7734-0.5625-2.6289l-0.33984-0.25-0.65625 0.40625h0.003906c-0.25391 0.67188-0.41016 1.3789-0.46094 2.0977-0.058594 2.5938-0.17969 5.2031-0.015625 7.7773 0.95703 15.164 0.4375 30.363 0.58984 45.547 0.078126 7.7773 0.015626 15.562 0.015626 23.344z" fill-rule="evenodd"/>
  <path d="m321.88 316.62v16.129c0 1.4883-0.035156 2.9766 0.0625 4.4531 0.3125 3.4961 0.32812 7.0117 0.054688 10.512-0.10547 1.1094-0.097656 2.2227 0.015625 3.332 0.52344 5.1602 0.46484 10.352 0.47266 15.535 0.066406 31.895 0.125 63.789 0.16406 95.684 0.019531 11.496-0.007813 22.988 0.007812 34.488 0 2.2188 0.11719 4.4336 0.20703 6.6523 0.03125 0.69141 0.6875 1.4727 1.0938 1.3984 0.42969-0.078126 0.94531-0.87891 1.0039-1.6055 0.058593-0.73828 0.13672-1.4766 0.125-2.2148-0.066407-4.8125-0.18359-9.625-0.058594-14.434h0.007812c0.015625-0.37109 0.007813-0.74219-0.023437-1.1133-0.86328-8.4922-0.4375-17.035-0.51562-25.551-0.11719-12.422-0.11328-24.844-0.15234-37.27-0.046875-14.836-0.042969-29.668-0.14453-44.5-0.039063-5.9141-0.34375-11.824-0.45703-17.738-0.085938-4.6367-0.074219-9.2695-0.085938-13.906-0.035156-16.133-0.066406-32.266-0.09375-48.398-0.003906-1.4805-0.09375-2.957-0.21484-4.4258l-0.55078-0.70313c-0.26562-0.25391-0.82031 0.34375-0.875 0.88281l-0.12109 1.0977-0.023437 2.7812v18.914z" fill-rule="evenodd"/>
  <path d="m483.48 390.29c-0.074218-18.352-0.15234-36.699-0.22656-55.047-0.023438-6.1172 0.085938-12.234-0.054688-18.344-0.13672-6.1133 0.054688-12.219 0.027344-18.328 0.007813-1.2891-0.066406-2.5781-0.22266-3.8555-0.14062-0.45703-0.44141-0.84375-0.84766-1.0898-0.34766-0.24609-1.0859 0.65625-1.125 1.3086v0.003906c-0.097656 0.72656-0.11719 1.4609-0.054688 2.1953 0.25 1.8281 0.30469 3.6797 0.16406 5.5195-0.10547 2.9609-0.007813 5.8984 0.16016 8.8633 0.26172 4.6133 0.20703 9.2617 0.22656 13.895 0.078124 20.016 0.14453 40.035 0.19922 60.051 0.011719 3.5195 0.007813 7.043 0.011719 10.562v-0.003906c-0.066406 3.1484 0.066406 6.293 0.39453 9.4258 0.16797 1.2852 0.21094 2.5859 0.12891 3.8828-0.62109 8.6953 0.14063 17.379 0.082032 26.074-0.10547 15.938 0.03125 31.875 0.078125 47.816 0 1.668 0.0625 3.332 0.16016 4.9922l0.42578 1.5273 0.32422 0.25781 0.67188-0.33984c0.34766-1.9883 0.51953-4.0078 0.51172-6.0273-0.52344-7.4023-0.20703-14.816-0.27344-22.223-0.11719-13.523-0.13672-27.055-0.22656-40.586-0.019531-2.4023-0.23438-4.8008-0.28516-7.207-0.14453-7.7734-0.25391-15.551-0.37891-23.328z" fill-rule="evenodd"/>
  <path d="m326.85 391.05c0 23.168 0.003907 46.34 0.011719 69.508-0.09375 2.957 0.019531 5.9219 0.33984 8.8633 0.09375 1.4766 0.0625 2.9531-0.089844 4.4258-0.03125 1.1094-0.09375 2.2227-0.066406 3.3242 0.03125 1.332 0.76953 2.7109 1.2734 2.4609 0.76563-0.37109 0.94531-1.3242 0.98438-2.2422 0.085937-2.5898 0.16016-5.1836 0.14844-7.7773-0.058594-10.012-0.16406-20.016-0.22656-30.023l-0.003906-0.003906c0.10938-3.8867-0.019531-7.7773-0.39062-11.648-0.078125-0.55078-0.10156-1.1094-0.070312-1.6641 0.50391-7.3984-0.26172-14.789-0.13281-22.191 0.12891-7.5938-0.015625-15.195-0.039062-22.793l-0.058594-22.246c-0.015625-7.4141-0.015625-14.824-0.035156-22.242-0.019532-6.668-0.054688-13.34-0.10938-20.016-0.03125-0.71484-0.16797-1.418-0.39844-2.0977l-0.67578-0.37891-0.60938 0.61328c-0.13672 0.52734-0.19922 1.0742-0.1875 1.6211 0.085937 13.898 0.21094 27.801 0.26953 41.699 0.046875 10.938 0.007813 21.871 0.007813 32.805z" fill-rule="evenodd"/>
  <path d="m509.93 407.23v68.945c0 1.8477-0.046876 3.7031 0 5.5508 0.046874 0.51953 0.21094 1.0195 0.48437 1.4609l0.73438 0.30469 0.25781-0.38281 0.27344-1.5859c0.054687-1.668 0.085937-3.3359 0.085937-5.0039-0.042969-17.238-0.089844-34.473-0.14062-51.707-0.054688-23.91-0.10938-47.816-0.16797-71.723-0.011719-4.25-0.30469-8.4961-0.39062-12.75-0.089844-4.625-0.11328-9.2617-0.10547-13.891 0-5.1836 0.035156-10.359 0.22266-15.551 0.19531-5.3477-0.17578-10.73-0.3125-16.094l-0.17188-1.082-0.24609-0.42969-0.31641-0.25781-0.67188 0.42188h0.003906c-0.21094 0.68359-0.32422 1.3945-0.34766 2.1094 0.015625 7.9688-0.10938 15.953 0.15625 23.902 0.1875 5.7266 0.09375 11.438 0.29688 17.156 0.19922 5.5508 0.19531 11.113 0.23047 16.672 0.035156 5.7461 0.003906 11.488 0.003906 17.238v36.695z" fill-rule="evenodd"/>
  <path d="m316.8 393.23c0.050781 21.699 0.11328 43.402 0.18359 65.102 0.015625 3.1406 0.53516 6.3125 0.33594 9.4102-0.20703 3.1445-0.35547 6.2734-0.37109 9.4219-0.003906 1.2969 0 2.6016 0.050781 3.8984l0.23438 1.6289c0.12109 0.74609 0.76953 1.5703 1.0898 1.3047h-0.003906c0.375-0.29297 0.64062-0.70312 0.75781-1.1641 0.15234-0.91016 0.21875-1.8281 0.19922-2.75-0.011719-3.8906-0.054688-7.7891-0.082031-11.68l-0.027344-6.1055c0.066406-1.668 0.050781-3.3398-0.046875-5.0078-0.44922-5.9102-0.59766-11.844-0.44531-17.77-0.10156-25.414-0.16797-50.824-0.19922-76.234-0.027344-11.312-0.035157-22.629-0.082031-33.941-0.003907-2.0352-0.14063-4.0664-0.23828-6.0938-0.027344-0.53906-0.67578-1.1953-0.87109-0.93359l-0.46094 0.82422c-0.09375 1.2891-0.16406 2.582-0.16016 3.875 0.027343 18.547 0.066406 37.098 0.10547 55.645 0.003906 3.5273 0.003906 7.0508 0 10.574z" fill-rule="evenodd"/>
  <path d="m516.5 417.46v-32.809 0.003906c-0.23828-3.8711-0.25-7.7539-0.039062-11.625 0.050781-0.92578 0.046874-1.8516-0.011719-2.7773-0.85156-14.984-0.41797-29.992-0.49219-44.988-0.027343-5.5586-0.019531-11.117-0.058593-16.676v-0.003907c-0.039063-0.91016-0.13672-1.8125-0.29688-2.7109-0.066406-0.47266-0.33203-0.59766-0.65234-0.39453l-0.32422 0.27344-0.42188 1.5078c-0.078125 1.4805-0.09375 2.9648-0.09375 4.4531 0.015625 8.707 0.019531 17.418 0.070313 26.125 0.019531 3.5156 0.10156 7.0234 0.37891 10.539 0.28516 3.6719 0.1875 7.3945 0.19531 11.102 0.027344 11.309 0 22.613 0.03125 33.918 0.035156 11.855 0.14844 23.715 0.15234 35.578 0 10.934-0.10547 21.863-0.13672 32.797-0.003906 2.2148 0.11328 4.4297 0.1875 6.6445 0.019531 0.47266 0.66797 1.0234 0.92188 0.80078l0.59766-0.69141 0.23047-1.0547c0.0625-0.91797 0.10547-1.8477 0.10547-2.7695-0.015625-5.3672-0.0625-10.734-0.066406-16.102-0.007813-10.375-0.007813-20.754 0-31.129z" fill-rule="evenodd"/>
  <path d="m476.75 399.96c0 5.3789-0.085937 10.758 0.027344 16.125 0.11719 5.7305-0.11328 11.484 0.14844 17.184 0.60547 13.152 0.26172 26.301 0.41016 39.453 0.011718 1.4688 0.16016 2.9375 0.30859 4.3984l0.52734 0.74219c0.25 0.28516 0.76953-0.30469 0.82422-0.92969l0.13281-1.6602c0.027344-1.4844 0.039063-2.9688 0.035157-4.4531-0.039063-8.3398-0.0625-16.68-0.14062-25.02-0.023438-2.4023-0.23828-4.8047-0.30469-7.2031-0.10938-4.0742-0.22266-8.1445-0.23828-12.223-0.10547-29.836-0.21094-59.676-0.30859-89.52-0.023437-4.2539-0.38672-8.5-0.60156-12.746-0.035157-0.71484-0.49609-1.2656-0.76562-0.96094l-0.007813-0.003906c-0.34375 0.33203-0.57422 0.76172-0.66016 1.2305-0.046875 1.2852 0.089844 2.5781 0.10156 3.8711 0.089843 10.004 0.17578 20.008 0.24609 30.012 0.085938 13.902 0.15625 27.801 0.21484 41.699z" fill-rule="evenodd"/>
  <path d="m216.89 403.27v-49.484c0-3.332 0.074219-6.668 0.046875-10.004-0.042969-1.0977-0.16406-2.1914-0.35938-3.2734-0.09375-0.67187-0.88281-1.3203-1.2617-1.0156-0.38281 0.27734-0.64844 0.68359-0.74609 1.1445 0.011719 3.5156 0.10938 7.0234 0.17969 10.539 0.027344 1.4727 0.125 2.9531 0.066406 4.4141-0.19141 3.875-0.16797 7.7617 0.066406 11.633 0.23438 3.3164 0.21875 6.6602 0.22656 9.9961 0.027343 18.535 0.042969 37.07 0.042969 55.605 0 9.4492-0.023438 18.898 0 28.355h0.003906c-0.16016 1.457-0.03125 2.9336 0.37891 4.3398l0.63672 0.47266 0.61719-0.54297 0.30469-1.582c0.042968-1.6602 0.03125-3.332 0.03125-5v-55.598z" fill-rule="evenodd"/>
  <path d="m406.86 400.38v34.457c0 0.92188-0.019531 1.8594 0.039063 2.7773 0.58594 8.6836 0.48047 17.375 0.24609 26.07-0.007813 0.37109-0.011719 0.73828 0 1.1133 0.019531 1.5 0.62891 2.8125 1.1641 2.4922h0.003906c0.68359-0.55078 1.0156-1.4297 0.86719-2.2969-0.046875-2.7773-0.17188-5.5547-0.16016-8.3281 0.03125-6.4766-0.47266-12.926-0.48828-19.395-0.050781-19.82-0.089844-39.645-0.10547-59.465-0.023438-12.965-0.0625-25.934-0.10938-38.902-0.003906-1.2891-0.039062-2.5938-0.13672-3.875v-0.003906c-0.050782-0.53125-0.20703-1.0469-0.45703-1.5156l-0.69531-0.34766-0.625 0.60938v-0.003907c-0.14844 0.52734-0.21484 1.0703-0.19922 1.6172 0.10938 4.0742 0.35156 8.1328 0.35938 12.199 0.042969 17.598 0.046875 35.195 0.015625 52.797z" fill-rule="evenodd"/>
  <path d="m404.15 427.02c0-7.8633 0.015624-14.352-0.011719-20.848-0.007813-2.2188-0.14453-4.4375-0.19922-6.6602-0.03125-1.1055-0.035156-2.2148-0.011719-3.3203 0.046875-2.7695 0.17578-5.5469 0.16797-8.3242-0.023438-6.0977-0.60547-12.184-0.09375-18.285-0.51172-5.5234 0-11.094-0.46875-16.613l-0.32031-1.5781-0.64063-0.41016-0.5625 0.66406-0.1875 2.2031c-0.023437 2.5977-0.019531 5.1914-0.019531 7.7891 0 4.6367-0.050781 9.2734 0.039063 13.902 0.074218 3.7031 0.49609 7.3984 0.44531 11.094-0.046875 3.5117-0.16797 7.0039-0.019531 10.535 0.19922 4.6211 0.125 9.2656 0.13672 13.898 0.042968 13.906 0.074218 27.816 0.10547 41.727l0.082032 2.7656c0.042968 0.83203 0.72266 1.7305 1.0234 1.3828 0.33203-0.34766 0.55078-0.78516 0.625-1.2617 0.09375-2.7773 0.16797-5.5586 0.14453-8.3359-0.054687-7.2305-0.16406-14.461-0.23437-20.324z" fill-rule="evenodd"/>
  <path d="m290.09 393.35c0 13.324 0.003906 26.652 0.007812 39.98 0 1.6602 0.09375 3.3242 0.16016 4.9805 0.023437 0.53125 0.58203 1.1602 0.85156 0.90625h0.003907c0.35937-0.28516 0.61719-0.67578 0.73828-1.1211 0.14062-1.6484 0.21484-3.3164 0.21094-4.9688-0.058594-18.883-0.12891-37.766-0.21094-56.641-0.03125-8.6992-0.023438-17.398-0.046875-26.098v0.003906c-0.011719-1.1055-0.085938-2.207-0.22266-3.3047l-0.5625-0.69922c-0.26563-0.24219-0.78125 0.32812-0.83984 0.88672l-0.125 1.0898-0.03125 3.332v41.648z" fill-rule="evenodd"/>
  <path d="m523.18 380.8c0-12.953-0.003906-25.902-0.007812-38.859 0-1.4766-0.09375-2.9492-0.19531-4.4219-0.050781-0.76562-0.80469-1.5273-1.1484-1.1836l-0.003907 0.003907c-0.35937 0.3125-0.59766 0.74609-0.67187 1.2188 0.19141 3.5039 0.12109 7.0156-0.20703 10.512-0.074218 0.73828-0.066406 1.4805 0.023438 2.2148 0.47266 5.5273 0.62891 11.074 0.47656 16.621 0.070313 17.578 0.066406 35.16 0.11328 52.742v-0.003906c0.035156 1.4648 0.14844 2.9219 0.33984 4.375l0.62109 0.53125 0.61328-0.50391v-0.003907c0.17969-1.2656 0.28125-2.543 0.30469-3.8203-0.003906-4.8125-0.10156-9.6211-0.11328-14.438-0.023437-8.3281-0.007812-16.652-0.007812-24.98z" fill-rule="evenodd"/>
  <path d="m294.79 394.4-0.15234 2.1641c-0.066406 1.293-0.20312 2.5938-0.15625 3.8828 0.33984 9.0703-0.21875 18.141 0 27.211-0.11328 1.4648 0.035157 2.9375 0.44141 4.3516 0.18359 0.47266 0.69922 0.92188 0.98047 0.67188l0.56641-0.73438 0.25781-1.5977c0.039063-1.4805 0.027344-2.9648 0.03125-4.4531 0.011719-5.3555-0.39062-10.711 0-16.074 0.12109-1.6641 0.082032-3.3359-0.11328-4.9922-0.27344-2.3828-0.30078-4.7852-0.070313-7.168 0.085938-2.5781 0.039063-5.1602-0.13672-7.7344-0.074219-4.2617-0.14453-8.5234-0.17969-12.781-0.046875-6.1172-0.046875-12.234-0.10547-18.344-0.035157-0.71484-0.17188-1.418-0.40625-2.0938l-0.67188-0.33203-0.28906 0.30859h-0.003906c-0.19922 0.68359-0.32422 1.3867-0.37891 2.0977-0.042969 5.3789-0.089844 10.754-0.03125 16.129 0.058593 6.3008-0.19531 12.605 0.41797 19.488z" fill-rule="evenodd"/>
  <path d="m207.62 403.7v39.512c0 3.6055 0.45312 5.3047 1.0977 4.7305 1.4219-1.2734 0.84766-3.3203 0.85156-5.0508 0.019532-7.9766-0.058594-15.953-0.074218-23.93-0.03125-17.988-0.058594-35.98-0.078126-53.977 0-1.8398-0.125-3.6836-0.30078-5.5078l-0.9375-0.71484-0.83203 1.0273-0.085938 0.53125c0.57813 8.1445 0.23047 16.305 0.32813 24.461 0.074218 6.3086 0.015624 12.613 0.015624 18.918z" fill-rule="evenodd"/>
  <path d="m331.88 384.26c0.0625 4.6289 0.24609 9.2656 0.16016 13.891-0.10156 5.5312 0.48047 11.055-0.054687 16.605v0.003907c-0.43359 2.5352-0.15625 5.1445 0.79688 7.5352l0.71875 0.24219 0.33203-0.26562 0.23828-0.44922 0.003907-0.003907c0.12891-0.52734 0.20703-1.0703 0.23438-1.6172-0.09375-7.4062-0.22266-14.816-0.32422-22.223-0.019531-1.4727-0.03125-2.9531 0.0625-4.418v0.003906c0.19922-2.5859 0.16406-5.1797-0.10547-7.7578-0.17188-1.2812-0.24609-2.5742-0.21484-3.8672 0.34375-8.3359-0.25391-16.656-0.085937-24.98v-0.003907c0.14844-0.89062-0.054687-1.8047-0.5625-2.5508l-0.70703 0.042969-0.375 0.93359 0.003906-0.003906c-0.089844 0.73438-0.13281 1.4727-0.12891 2.2109l0.16016 21.676c0.011719 1.6602 0 3.3281 0 4.9922z" fill-rule="evenodd"/>
  <path d="m314.21 394.77c0-9.4453 0.070312-18.898-0.03125-28.348-0.042969-3.8672-0.45703-7.7227-0.73828-11.586l-0.63281-0.38281-0.32812 0.25391-0.23438 0.45312c-0.12891 0.53125-0.21094 1.0781-0.23438 1.6289 0.0625 4.4375 0.14844 8.8789 0.23828 13.316h-0.003906c0.089844 0.91797 0.125 1.8438 0.10547 2.7656-0.23828 4.6094-0.20703 9.2266 0.09375 13.828 0.09375 5.1875 0.078126 10.375 0.074219 15.562 0 7.2305-0.039062 14.457-0.0625 21.684 0 0.73828-0.015625 1.4805 0 2.2188 0.03125 2.25 0.45312 3.4531 1.0625 3.0859 1.1484-0.69531 0.89844-2.1445 0.94141-3.3594 0.070312-2.0352 0.011718-4.0742 0.011718-6.1133l0.003906-25.008z" fill-rule="evenodd"/>
  <path d="m472.53 389.38c0 11.684 0.003906 23.367 0.015625 35.051 0.035156 1.2812 0.14844 2.5586 0.34766 3.8242l0.55469 0.67969c0.375-0.20312 0.67188-0.51953 0.85156-0.90234 0.16016-0.52734 0.24219-1.0742 0.25-1.625 0.046875-0.55078 0.054687-1.1055 0.027344-1.6602-0.58203-9.0781-0.21875-18.168-0.32422-27.254-0.10156-9.2695-0.125-18.539-0.17578-27.812-0.027344-5.0039-0.011719-10.012-0.074219-15.016-0.058594-1.2773-0.20312-2.5469-0.44141-3.8047l-0.61328-0.54688-0.47266 0.69141c-0.085937 2.0352-0.16406 4.0742-0.16797 6.1094-0.011719 10.754-0.015626 21.512-0.007813 32.266z" fill-rule="evenodd"/>
  <path d="m173.75 397.77c0 6.3008-0.023438 12.605 0.019531 18.906l-0.003906 0.003906c0.042969 1.2734 0.17188 2.5469 0.38672 3.8047l0.61328 0.60547 0.66406-0.44141v-0.003906c0.29688-0.64844 0.49219-1.3398 0.57422-2.0508 0.11328-1.8438 0.13672-3.7031 0.14453-5.5547 0.019531-4.6328 0.019531-9.2656 0-13.898-0.015625-6.4883-0.042969-12.977-0.078125-19.465-0.011718-1.668-0.082031-3.332-0.1875-4.9922 0.039063-0.69141-0.30859-1.3477-0.90234-1.7031-0.44141-0.1875-1.0508 0.89844-1.1094 1.9922l-0.09375 2.7773c-0.007813 6.6719-0.011719 13.348-0.003907 20.023z" fill-rule="evenodd"/>
  <path d="m203.62 398.11v19.379c-0.11328 1.8281 0.13672 3.6562 0.73828 5.3828l0.30859 0.30859 0.66406-0.32031 0.29688-1.0117c0.26172-1.625 0.41797-3.2695 0.47266-4.9141-0.22656-12.363 0.027344-24.723-0.10156-37.09h0.003906c-0.007812-1.0977-0.089844-2.1953-0.25-3.2852-0.13281-0.47266-0.36719-0.91016-0.6875-1.2812-0.15625-0.15625-0.38281-0.22266-0.60156-0.17188-0.21484 0.050782-0.39063 0.20703-0.46484 0.41797-0.21094 0.86719-0.33984 1.7539-0.39062 2.6445-0.03125 6.6445-0.019531 13.297-0.019531 19.941z" fill-rule="evenodd"/>
  <path d="m164.31 418.34c-0.48438-4.2578-0.63672-8.5508-0.46484-12.832 0.015625-8.8711 0.027344-17.746-0.011718-26.621 0-2.0156-0.16797-4.043-0.36328-6.0469l-0.94531-0.81641c-0.31641 0.007812-0.78125 0.48437-0.90234 0.89844l-0.003906 0.003906c-0.21875 0.69531-0.28516 1.4297-0.1875 2.1523 0.46094 3.4805 0.61328 6.9922 0.44922 10.5 0.015626 11.09 0 22.188 0.027344 33.277 0 1.4648 0.14062 2.9258 0.28516 4.3789l0.55859 0.67578c0.27344 0.21484 0.87109-0.26562 0.9375-0.75781z" fill-rule="evenodd"/>
  <path d="m411.57 393.54c0-5.5586 0.015625-11.113-0.023437-16.672h0.003906c-0.039063-0.71094-0.19531-1.4102-0.45703-2.0703l-0.68359-0.47266-0.66406 0.55469h0.003906c-0.23828 0.47656-0.375 0.99609-0.40625 1.5312-0.015625 4.6328-0.125 9.2812 0.082031 13.902 0.11328 2.6016 0.1875 5.1836 0.050781 7.7617-0.18359 5.1719 0 10.355 0.54297 15.504l0.44922 0.81641c0.38281-0.20312 0.69922-0.50781 0.91797-0.88672 0.17969-0.51562 0.26563-1.0625 0.25-1.6094 0.050782-1.8555 0.09375-3.7109 0.078126-5.5625-0.050782-4.2617-0.13672-8.5312-0.21094-12.797z" fill-rule="evenodd"/>
  <path d="m397.55 394.77c0 6.6562-0.011719 13.305 0.007813 19.957 0.003906 1.8438 0.078125 3.6953 0.21875 5.5234 0.10938 0.45703 0.35547 0.86719 0.70312 1.1797 0.35938 0.38672 0.84766-0.42188 0.89453-1.4219l0.03125-0.55078 0.019531-0.55469-0.21875-47.125-0.042969-1.1055c-0.054687-0.73047-0.13281-1.4375-0.72266-1.8008-0.47266-0.28906-0.89453 0.60547-0.9375 2.0586l-0.03125 3.3242c-0.003906 6.8359-0.003906 13.672 0 20.516z" fill-rule="evenodd"/>
  <path d="m372.55 393.88c-0.09375-1.9023-0.22656-3.7383-0.26953-5.5781-0.078125-3.6641-0.10156-7.3359-0.16016-11 0.03125-0.54297-0.03125-1.0859-0.19531-1.6016-0.20703-0.36328-0.55469-0.62891-0.95703-0.73828l-0.53906 0.69922-0.24219 2.1562c-0.003906 4.6055-0.14062 9.2266 0.078125 13.816 0.28516 6.0625 0.53516 12.125 0.42188 18.199l-0.003906 0.003906c-0.125 0.88672 0.078124 1.7891 0.56641 2.5391l0.34375 0.22266 0.375-0.19531c0.24219-0.45313 0.40625-0.94531 0.48438-1.457 0.078125-2.0156 0.089843-4.0508 0.09375-6.0742 0.011719-3.6875 0.003906-7.3711 0.003906-10.992z" fill-rule="evenodd"/>
  <path d="m300.27 395.94v-16.418c0-1.293 0.015624-2.5898-0.039063-3.8828-0.035156-0.875 0.042969-1.8711-0.76953-2.3203-0.54688-0.30078-0.98438 0.73047-1.0234 2.5625-0.042968 2.0352-0.066406 4.0703-0.066406 6.1016l0.066406 18.859c0.007813 3.8828-0.039062 7.7656 0 11.648l0.003906 0.007812c0.054688 0.89453 0.22266 1.7773 0.49609 2.6289l0.66406 0.50781 0.56641-0.66406c0.19141-1.2695 0.29688-2.5469 0.32031-3.832-0.050782-5.7344-0.16016-11.461-0.21875-15.199z" fill-rule="evenodd"/>
  <path d="m158.34 399.91c0 3.3359-0.03125 6.6719 0.015625 10.008-0.18359 1.8359-0.097656 3.6875 0.25391 5.4961 0.19922 0.37109 0.54688 0.64453 0.95703 0.74219l0.55078-0.69141v0.003906c0.16797-0.71094 0.26172-1.4336 0.27344-2.1602 0-8.3477-0.007812-16.688-0.066406-25.035-0.058594-1.2734-0.19922-2.543-0.41797-3.8008-0.0625-0.51172-0.64062-0.89844-0.97266-0.67188l-0.59375 0.67188c-0.1875 0.70312-0.28516 1.4258-0.29688 2.1484 0.058594 4.4297 0.16016 8.8633 0.25 13.293z" fill-rule="evenodd"/>
  <path d="m182.04 399.41c0 3.3164-0.015624 6.625 0.007813 9.9297l0.21484 2.7266c0.054687 0.55078 0.56641 1.0859 0.88672 0.85156l0.81641-1.0547 0.078125-0.53516 0.007812 0.003906c0.33203-5.3086 0.35156-10.629 0.054688-15.938-0.10938-1.8281-0.10156-3.6641 0.027343-5.4922 0.17188-1.6328 0.011719-3.2773-0.47266-4.8438l-0.61328-0.51172-0.61328 0.60156v0.003907c-0.19922 0.69141-0.3125 1.4062-0.33984 2.125-0.03125 4.043-0.015625 8.0859-0.015625 12.133z" fill-rule="evenodd"/>
  <path d="m302.82 393.35c0 3.1367-0.042968 6.2773 0.027344 9.4141 0.070313 1.0859 0.25 2.1602 0.52734 3.207l0.62109 0.55078 0.32422-0.30078c0.58203-1.7227 0.87891-3.5312 0.88672-5.3477-0.042969-5.7266-0.078125-11.449-0.15234-17.176-0.027344-0.71875-0.15234-1.4297-0.36328-2.1133l-0.62891-0.59375-0.70703 0.39062-0.39453 0.9375c-0.11328 0.72656-0.17188 1.457-0.17578 2.1914l0.10156 8.8359z" fill-rule="evenodd"/>
  <path d="m374.34 393.71c0 2.2266-0.019532 4.4453 0.003906 6.6719l0.003906-0.003907c-0.0625 1.6523 0.14453 3.3008 0.61719 4.8867 0.18359 0.51562 0.71484 0.9375 0.95703 0.64844l0.52344-0.78906 0.23438-2.1797c0.042969-5.5508-0.26562-11.09-0.11328-16.641h-0.003906c-0.035156-0.89453-0.19531-1.7852-0.47266-2.6367l-0.66406-0.45703-0.625 0.60156c-0.21094 0.6875-0.33594 1.3984-0.36719 2.1211-0.042969 2.5938-0.019532 5.1836-0.019532 7.7734z" fill-rule="evenodd"/>
  <path d="m581.44 393.33c0 4.2617-0.023438 8.5195 0.019531 12.777 0.039063 0.89062 0.18359 1.7773 0.42188 2.6367l0.69141 0.35156 0.28516-0.30859v0.003906c0.20312-0.68359 0.33594-1.3867 0.39453-2.0938 0.042969-5.1875 0.054688-10.371 0.039062-15.559-0.007812-3.332-0.042968-6.668-0.10156-10.004h-0.003906c-0.035156-0.71094-0.16406-1.4141-0.38672-2.0938l-0.67969-0.35156-0.28516 0.32031c-0.19531 0.68359-0.32422 1.3867-0.37891 2.0977-0.03125 4.0742-0.019531 8.1523-0.019531 12.223z" fill-rule="evenodd"/>
  <path d="m188.01 397.22c0-3.5117 0.027344-7.0234-0.019531-10.531-0.070312-0.69922-0.22266-1.3867-0.45703-2.0469l-0.3125-0.26562-0.69922 0.37891-0.32812 0.96875c-0.015625 7.5703-0.015625 15.141 0.003906 22.711l0.30078 1.0039 0.67188 0.46094 0.61328-0.52344c0.16016-0.90234 0.25391-1.8164 0.27344-2.7305 0.03125-3.1445 0.011718-6.2891 0.011718-9.4258z" fill-rule="evenodd"/>
  <path d="m378.98 392.64c-0.82031 1.4883-0.97266 3.2539-0.42188 4.8633l0.53516 0.73047c0.42578 0.19922 0.78516-0.058594 0.96094-0.64062l0.24609-1.0469 0.24609-0.41797 0.28516 0.25781 0.92578 3.0469c0.23438 0.73828 0.85156 0.76562 1.2891 0.066406l0.22266-0.46094 0.79297-1.0977 0.71484 0.42578c1.1367 0.51953 1.8086-0.097657 1.8828-1.7031 0.070313-1.6055-0.36328-2.5-1.5391-2.6211h-0.003906c-0.83203-0.074219-1.6289-0.375-2.3047-0.86328-1.2227-0.86719-2.6133-0.44531-3.832-0.53906z" fill-rule="evenodd"/>
  <path d="m169.48 398.36c0 3.1367-0.03125 6.2656 0.027344 9.3984v-0.003906c0.058594 0.69922 0.23828 1.3828 0.53125 2.0234l0.71094 0.27734 0.3125-0.32031v-0.003907c0.27734-1.7969 0.45312-3.6055 0.52734-5.4258-0.011719-4.7852-0.16016-9.582-0.29688-14.363-0.074218-0.70312-0.22266-1.3945-0.44141-2.0664l-0.29297-0.27734-0.67578 0.37891c-0.23047 0.67578-0.36719 1.375-0.40234 2.0859-0.042968 2.7617-0.015624 5.5273-0.015624 8.2891z" fill-rule="evenodd"/>
  <path d="m179.59 400.48c0-2.7812 0.007812-5.5664-0.007813-8.3477l-0.23047-1.6094-0.64453-0.50391-0.65234 0.48828-0.24609 1.0312c-0.046875 6.3008-0.078125 12.605-0.09375 18.914 0.027344 0.52734 0.16797 1.0391 0.41797 1.5039l0.70703 0.32812 0.3125-0.28516h-0.003906c0.21484-0.47656 0.35156-0.98828 0.41016-1.5078 0.035156-3.3359 0.019531-6.6719 0.019531-10.012z" fill-rule="evenodd"/>
  <path d="m309.33 396.04c0-2.9531 0.023437-5.9062-0.019531-8.8633-0.066406-0.51562-0.21875-1.0156-0.44531-1.4844l-0.33203-0.21875-0.66406 0.41797-0.26172 1.0078c-0.019531 5.5469-0.023438 11.09-0.007813 16.629l0.26953 1.6094 0.58203 0.66406c0.27734 0.22266 0.81641-0.37109 0.85938-0.90625l0.15234-2.1953c0.019531-2.2148 0.007812-4.4375 0.007812-6.6523z" fill-rule="evenodd"/>
  <path d="m189.34 398.32c-0.09375 2.832-0.22656 4.6641-0.1875 6.4922v-0.003906c0.0625 1.2617 0.22266 2.5156 0.47266 3.7539l0.63281 0.51953 0.64062-0.50391 0.31641-1.543c0-5.1289-0.019532-10.258-0.0625-15.383l-0.003907 0.003906c-0.03125-0.51953-0.17578-1.0234-0.42188-1.4844l-0.70312-0.36328-0.28906 0.30859-0.37891 1.5078c-0.035156 2.5664-0.015624 5.1328-0.015624 6.6953z" fill-rule="evenodd"/>
  <path d="m193.77 399.53c0-2.5938 0.019531-5.1836-0.015625-7.7734l-0.36719-1.5391-0.67969-0.35547-0.32422 0.23047c-0.23047 0.46875-0.37891 0.97656-0.44531 1.4961-0.019532 5.1836-0.007813 10.363 0.039062 15.547 0.023438 0.53125 0.15234 1.0508 0.37891 1.5312l0.67969 0.41016 0.30469-0.26172c0.23828-0.66797 0.39844-1.3594 0.47266-2.0625 0.058594-2.4062 0.023437-4.8125 0.023437-7.2227z" fill-rule="evenodd"/>
  <path d="m339.41 396.13c0-1.2773 0.027344-2.5586-0.011719-3.832h-0.003906c0.011719-0.53906-0.089844-1.0703-0.28906-1.5703-0.20703-0.39844-0.64453-0.8125-0.96875-0.80078-0.44141 0.11328-0.78516 0.45312-0.90625 0.89062-0.50781 3.5977-0.47266 7.2539 0.10547 10.844 0.14844 0.44531 0.44922 0.82422 0.84375 1.0742l0.71094-0.21094c0.26562-0.44531 0.42578-0.94922 0.47266-1.4648 0.058594-1.6367 0.023437-3.2852 0.023437-4.9258z" fill-rule="evenodd"/>
  <path d="m525.71 392.33c0.12109 2.0195 0.17969 3.668 0.35156 5.3008h0.003906c0.097657 0.46484 0.34375 0.88672 0.69922 1.1992 0.31641 0.29688 0.92969-0.47266 1.0742-1.2812v0.003906c0.49219-3.0742 0.51953-6.2031 0.078125-9.2852l-0.18359-0.48047c-0.12891-0.46875-0.66406-0.85156-1-0.62891l-0.57812 0.66406z" fill-rule="evenodd"/>
  <path d="m197.96 397.9c0-1.6484 0.023437-3.3047-0.011719-4.9492l-0.32031-1.5469-0.64453-0.48438-0.67578 0.41797c-0.26953 1.2383-0.43359 2.4961-0.49609 3.7617-0.035156 2.9258 0.039063 5.8516 0.11719 8.7812 0.035156 0.52734 0.18359 1.043 0.42969 1.5156l0.72656 0.28516 0.33594-0.22656v-0.003906c0.22266-0.46875 0.37109-0.97266 0.4375-1.4922 0.046875-2.0156 0.019531-4.0312 0.019531-6.0469z" fill-rule="evenodd"/>
  <path d="m346.91 395.77c0 1.4648-0.03125 2.9258 0.015625 4.3906l0.34375 1.5508 0.60547 0.62891 0.58594-0.55859c0.1875-2.3555 0.33984-4.7109 0.47266-7.0742 0.050781-0.91016 0.074218-1.8242 0.050781-2.7383h0.003906c0.011719-0.53906-0.070312-1.0781-0.24219-1.5859-0.17578-0.41797-0.5625-0.90625-0.87109-0.92188-0.28516-0.019532-0.70312 0.46094-0.86719 0.86328-0.14844 0.51953-0.21094 1.0586-0.18359 1.5977-0.023438 1.2812-0.007813 2.5625-0.007813 3.8438z" fill-rule="evenodd"/>
  <path d="m413.14 396.91c0.11719 2.4453 0.20703 4.6484 0.35156 6.8477l0.52734 0.71875 0.67188-0.34766v-0.003906c0.60156-4.5234 0.61328-9.1094 0.035156-13.637l-0.625-0.5-0.58984 0.55469c-0.16406 2.1914-0.26562 4.3945-0.37109 6.3672z" fill-rule="evenodd"/>
  <path d="m165.76 398.71c0.035156 2.25 0.25391 4.4883 0.66016 6.6992l0.30859 0.34766 0.72266-0.3125 0.35156-0.96094 0.14062-4.4375c0.015626-2.2188 0-4.4414-0.042968-6.668l-0.30859-1.5781-0.65625-0.52344-0.65234 0.42969c-0.21094 2.3789-0.36328 4.7695-0.52344 7.0039z" fill-rule="evenodd"/>
  <path d="m422.07 393.23 0.37891 5.8633c0.042969 0.63281 0.48438 1.2227 0.71875 0.98438h-0.003907c0.35156-0.30469 0.60547-0.71094 0.72266-1.1641 0.39844-3.4297 0.40625-6.8945 0.027343-10.324l-0.18359-0.47266-0.59375-0.64844-0.91016 0.79297c-0.12891 1.418-0.10937 2.8672-0.15625 4.9688z" fill-rule="evenodd"/>
  <path d="m341.51 394.61c0.14063 1.9883 0.26563 3.9883 0.45313 5.9766l0.59766 0.56641 0.65234-0.42188 0.28516-0.99219c0-3.2891-0.019532-6.5781-0.0625-9.8672l-0.27344-1.0117-0.60547-0.58594-0.89844 0.85156c-0.085938 1.8203-0.042969 3.6445-0.042969 5.4648z" fill-rule="evenodd"/>
  <path d="m202.11 397.24c0-1.293 0.023437-2.5859-0.015625-3.875l-0.34766-0.95313-0.69531-0.35937-0.62109 0.57422v-0.003906c-0.40234 2.918-0.41016 5.8789-0.023438 8.7969 0.11328 0.44531 0.37891 0.83594 0.75 1.1055 0.37109 0.30859 0.9375-0.53125 0.95703-1.4102 0.03125-1.293 0.007813-2.582 0.007813-3.875z" fill-rule="evenodd"/>
  <path d="m417.37 394.54c0.14844 1.7031 0.26953 3.3242 0.45703 4.9258l0.58594 0.60156 0.62109-0.40625v0.003907c0.53125-3.0273 0.57031-6.1172 0.10938-9.1562l-0.59766-0.56641-0.65234 0.41016c-0.21875 1.3984-0.36328 2.8203-0.52344 4.1875z" fill-rule="evenodd"/>
  <path d="m534.84 392.82 0.42578 3.4883 0.58594 0.625 0.625-0.47266h0.003907c0.79688-2.4219 0.81641-5.0352 0.054687-7.4688l-0.56641-0.66406c-0.33984 0.20312-0.80859 0.54297-0.875 0.94141-0.17188 1.0586-0.16797 2.1641-0.25391 3.5508z" fill-rule="evenodd"/>
  <path d="m532.41 392.59c-0.074218-2.9766-0.58594-4.2227-1.3945-3.9297-0.80859 0.29297-1.1484 1.5742-0.94531 3.8438l-0.003906 0.003907c0.11719 0.89062 0.28906 1.7773 0.50781 2.6523 0.12891 0.59375 0.62891 1.043 0.89844 0.77344 0.35156-0.32031 0.60938-0.72656 0.74219-1.1836 0.11328-0.71484 0.17969-1.4336 0.19531-2.1602z" fill-rule="evenodd"/>
  <path d="m389.17 396.17 0.60547 2.5625 0.66406 0.5 0.65625-0.51172-0.003906-0.003906c0.65234-1.4648 0.79297-3.1055 0.40234-4.6602-0.089844-0.63672-0.52344-1.1719-1.1289-1.3867-0.37891-0.125-0.98828 0.72266-1.0586 1.3906l-0.074219 0.52344z" fill-rule="evenodd"/>
  <path d="m439.38 394.14-0.45312-2.7734-0.625-0.52344-0.66406 0.46094-0.31641 0.97656 0.003907 0.003906c-0.21484 1.9766-0.12891 3.9805 0.25781 5.9336l0.56641 0.57422 0.62891-0.51953c0.25-1.3984 0.41797-2.8203 0.60156-4.1328z" fill-rule="evenodd"/>
  <path d="m470.94 392.18c-0.082031-0.74219-0.22656-1.4805-0.4375-2.1953-0.16016-0.40234-0.61328-0.82812-0.92969-0.81641-0.42969 0.11328-0.77344 0.44141-0.90625 0.86719-0.375 1.3906-0.36328 2.8555 0.03125 4.2422l0.375 0.94531 0.64453 0.49219 0.63672-0.53516z" fill-rule="evenodd"/>
  <path d="m434.18 393.99c0.003906-0.77344-0.046876-1.543-0.16406-2.3086-0.11719-0.44141-0.38672-0.82812-0.76562-1.0898-0.40625-0.25781-1.0703 0.50391-1.1445 1.1641l-0.085938 0.51953c0.18359 1.4219 0.35938 2.8359 0.60156 4.2344l0.59766 0.53125 0.60156-0.55469z" fill-rule="evenodd"/>
  <path d="m350.7 397.23 0.14453 1.4648 0.24219 0.39453 0.74219-0.054688c1.3555-1.6094 1.6914-3.8438 0.86719-5.7773l-1.0117-0.49609-0.58203 0.63672-0.13281 0.5z" fill-rule="evenodd"/>
  <path d="m395.25 395.19-0.43359-2.4453-0.62109-0.58594c-0.35547 0.10547-0.85156 0.35938-0.96875 0.73047-0.41797 1.9688-0.30859 4.0117 0.3125 5.9258l0.3125 0.33203 0.73047-0.082031 0.41797-0.90625z" fill-rule="evenodd"/>
  <path d="m459.18 393.66c-0.11328 1.0938 0.1875 2.1914 0.84375 3.0742l0.70703 0.039062v0.003907c1.0117-1.4648 1.1289-3.3672 0.30078-4.9414l-0.66797-0.48828c-0.40625 0.16797-0.74219 0.47266-0.94922 0.85938-0.14453 0.47266-0.22266 0.96094-0.23437 1.4531z" fill-rule="evenodd"/>
  <path d="m541.88 392.06-0.59375-2.8867-0.68359-0.33984-0.62109 0.54297c-0.39453 1.9336-0.29297 3.9336 0.30078 5.8164l0.66406 0.39453 0.5625-0.64062z" fill-rule="evenodd"/>
  <path d="m444.98 394.06 0.58984 2.3086 0.62891 0.62891 0.67578-0.44141-0.003906 0.003906c0.67969-1.3008 0.78906-2.8242 0.30469-4.207-0.19922-0.67969-0.94531-1.2539-1.3125-0.90234l-0.72266 1.207z" fill-rule="evenodd"/>
  <path d="m463.67 392.17 0.63672 3.2695 0.62109 0.59766c0.27344 0.17969 0.77344-0.41406 0.87109-0.92578l0.003906 0.003906c0.27344-1.4375 0.21094-2.9219-0.19141-4.332-0.17969-0.64062-0.97656-1.2539-1.3242-0.89453l-0.64453 1.2617z" fill-rule="evenodd"/>
  <path d="m365.13 394.57c-0.070312-0.57422-0.21094-1.1367-0.41797-1.6797-0.22266-0.35547-0.57031-0.61328-0.97656-0.72656l-0.64453 0.55078v0.003906c-0.58984 1.1094-0.70312 2.4141-0.30469 3.6055 0.12891 0.42188 0.54688 0.92188 0.85156 0.94141s0.73828-0.41797 0.92969-0.81641v0.003906c0.23828-0.61328 0.42969-1.2422 0.5625-1.8828z" fill-rule="evenodd"/>
  <path d="m425.79 392.94 0.41406 2.918 0.60547 0.60156 0.62891-0.44141 0.21094-1.043c0.035156-0.73437 0.035156-1.4805 0.023437-2.2148-0.046875-2.2422-0.48047-3.4492-1.0859-3.0547-0.97266 0.63672-0.64453 1.8633-0.79688 3.2344z" fill-rule="evenodd"/>
  <path d="m449.92 394.11 0.61328 2.2539 0.66406 0.55469 0.66406-0.54297c0.67578-1.293 0.65625-2.8438-0.054687-4.1172l-1.0156-0.66406c-0.46094-0.050781-0.66406 0.53516-0.75 1.0859z" fill-rule="evenodd"/>
  <path d="m368.57 395.28-0.23047-1.7539c-0.11328-0.71484-0.71875-1.2305-1.2109-1.0703l-0.003906 0.003907c-0.58984 0.3125-0.92969 0.95703-0.85156 1.6211l0.58203 3.1328 0.62109 0.48438 0.64844-0.49609z" fill-rule="evenodd"/>
  <path d="m443.44 393.69c-0.074219-0.70312-0.22266-1.3984-0.44141-2.0703l-0.96094-0.65234c-0.40625 0.18359-0.70312 0.54297-0.80859 0.97656-0.32812 1.3555-0.082031 2.7891 0.68359 3.957l0.33594 0.25781 0.65625-0.48047z" fill-rule="evenodd"/>
  <path d="m360.59 394.98-0.67578-1.5117c-0.16406-0.23828-0.41797-0.39844-0.70312-0.44531-0.28516-0.046875-0.57813 0.027344-0.80859 0.20703-0.47656 0.51562-0.66797 1.2383-0.50781 1.9258l0.34766 0.99609c0.27734 0.64062 0.58984 1.2656 1.2305 1.2578 0.55078-0.007812 1.1211-1.0625 1.1172-2.4297z" fill-rule="evenodd"/>
  <path d="m357 395.16c-0.15625-0.67188-0.35938-1.332-0.61719-1.9766-0.066407-0.21094-0.23828-0.37109-0.45312-0.42578-0.21875-0.058593-0.44531 0-0.60938 0.15234-0.65625 0.55859-0.96484 1.4219-0.80859 2.2695 0.089844 0.89844 0.29688 1.8008 1.043 2.1211l0.71875-0.1875z" fill-rule="evenodd"/>
  <path d="m455.64 394.47 0.41406 1.9062 0.65234 0.44141 0.625-0.51953h0.003906c0.39453-1.1992 0.35938-2.4961-0.09375-3.6758l-0.66016-0.45703-0.59766 0.55078z" fill-rule="evenodd"/>
  <path d="m568.75 390.34-0.75 0.25781c-0.57031 0.70703-0.72266 1.6641-0.39844 2.5117l0.625 0.63672c0.49219 0.21094 1.0156-0.33203 1.2109-1.1484 0.26562-1.0977-0.027344-2.0508-0.6875-2.2578z" fill-rule="evenodd"/>
  <path d="m559.68 390.24c1.3086 0.17578 0.93359 2.9727-0.375 2.8008-1.3047-0.17578-0.92969-2.9766 0.375-2.8008"/>
  <path d="m555.16 391.68c0.28516 1.4805-1.9336 1.9102-2.2188 0.43359-0.28906-1.4805 1.9297-1.9102 2.2188-0.43359"/>
  <path d="m590.34 392.64c0.019531 1.8555-2.0117 1.875-2.0312 0.023438-0.019531-1.8516 2.0117-1.875 2.0312-0.023438"/>
  <path d="m546.59 393.13c0.039062 2.0547-1.9766 2.0938-2.0156 0.039063-0.039062-2.0586 1.9766-2.0938 2.0156-0.039063"/>
  <path d="m573.68 391.94c0.14453 1.1758-1.6211 1.3906-1.7656 0.21484-0.14062-1.1758 1.6211-1.3906 1.7656-0.21484"/>
  <path d="m577.21 393.14 0.77344 0.71484c0.50391 0.12109 0.95703-0.55859 0.99609-1.2734 0.035157-0.71484-0.46875-1.3008-1.0078-1.1875-0.51953 0.10547-0.85547 0.76172-0.76172 1.7461z" fill-rule="evenodd"/>
  <path d="m564.22 390.46c1.6836 0.10156 1.5312 2.6289-0.15234 2.5273-1.6875-0.10156-1.5352-2.6289 0.15234-2.5273"/>
  <path d="m549.93 391.53c1.082 0.03125 1.0078 2.4492-0.074219 2.4141-1.0859-0.03125-1.0117-2.4492 0.074219-2.4141"/>
  <path d="m586.17 390.85-0.90625-0.44531c-0.57812 0.10938-0.85156 1.0078-0.56641 1.7227l0.65234 0.54297c0.55469-0.019531 0.94922-0.84766 0.82031-1.8203z" fill-rule="evenodd"/>
  <path d="m593.19 390.99c-0.28906 0.125-0.51172 0.35937-0.62109 0.65625-0.10938 0.29297-0.089844 0.61719 0.046875 0.89844l0.66406 0.37891c0.53516-0.078125 0.875-0.98438 0.57422-1.5469z" fill-rule="evenodd"/>
 </g>
</svg>
