<?xml version="1.0" encoding="UTF-8"?>
<svg width="752pt" height="752pt" version="1.1" viewBox="0 0 752 752" xmlns="http://www.w3.org/2000/svg">
 <defs>
  <clipPath id="d">
   <path d="m139.21 242h266.79v268h-266.79z"/>
  </clipPath>
  <clipPath id="c">
   <path d="m494 139.21h118.79v118.79h-118.79z"/>
  </clipPath>
  <clipPath id="b">
   <path d="m494 316h118.79v120h-118.79z"/>
  </clipPath>
  <clipPath id="a">
   <path d="m494 494h118.79v118.79h-118.79z"/>
  </clipPath>
 </defs>
 <path d="m294.38 376c0 12.133-9.8359 21.969-21.969 21.969s-21.969-9.8359-21.969-21.969 9.8359-21.969 21.969-21.969 21.969 9.8359 21.969 21.969" fill="#fff"/>
 <g clip-path="url(#d)">
  <path d="m388.42 344.36-12.219-3.0547h-0.003907c-1.6211-4.8516-3.582-9.582-5.8672-14.156l6.4766-10.805c2.6055-4.3398 3.6875-9.4258 3.0703-14.449-0.61719-5.0273-2.9023-9.6992-6.4844-13.277l-13.617-13.617h0.003906c-3.5781-3.5742-8.2461-5.8516-13.27-6.4688-5.0195-0.61719-10.102 0.46484-14.434 3.0742l-10.805 6.4766c-4.5781-2.2852-9.3086-4.2461-14.156-5.8711l-3.0547-12.203h-0.003906c-1.2148-4.9219-4.0469-9.2891-8.043-12.406-3.9922-3.1211-8.918-4.8086-13.988-4.7969h-19.238c-5.0625-0.011719-9.9805 1.6758-13.973 4.793-3.9922 3.1133-6.8242 7.4766-8.043 12.391l-3.0547 12.219h-0.003906c-4.8477 1.6211-9.5781 3.582-14.156 5.8672l-10.805-6.4766h0.003906c-4.3398-2.6055-9.4258-3.6875-14.449-3.0703-5.0273 0.61719-9.6992 2.8984-13.277 6.4766l-13.617 13.617v-0.003906c-3.5781 3.5781-5.8555 8.2461-6.4727 13.27-0.61719 5.0195 0.46094 10.102 3.0703 14.438l6.4766 10.805h-0.003906c-2.2852 4.5742-4.2461 9.3047-5.8672 14.156l-12.203 3.0547h-0.003906c-4.918 1.2188-9.2852 4.0547-12.402 8.0508-3.1172 3.9922-4.8047 8.918-4.793 13.988v19.238c-0.007813 5.0625 1.6797 9.9805 4.793 13.969 3.1172 3.9922 7.4766 6.8203 12.391 8.043l12.219 3.0547c1.625 4.8516 3.5859 9.582 5.8672 14.156l-6.4766 10.805h0.003906c-2.6094 4.3398-3.6914 9.4258-3.0742 14.449 0.61719 5.0273 2.8984 9.6992 6.4766 13.277l13.617 13.617c3.5703 3.582 8.2422 5.8672 13.266 6.4844 5.0234 0.61719 10.105-0.46875 14.441-3.082l10.805-6.4766-0.003906 0.003906c4.5781 2.2812 9.3086 4.2422 14.16 5.8672l3.0547 12.203c1.2188 4.9219 4.0508 9.2891 8.0469 12.41 3.9961 3.1172 8.9219 4.8047 13.988 4.793h19.238c5.0625 0.007813 9.9805-1.6797 13.973-4.793 3.9883-3.1172 6.8203-7.4766 8.0391-12.391l3.0547-12.219h0.003906c4.8477-1.625 9.5781-3.5859 14.156-5.8672l10.805 6.4766v-0.003906c4.3398 2.6016 9.4258 3.6797 14.449 3.0586 5.0234-0.61719 9.6953-2.8945 13.277-6.4688l13.617-13.617h-0.003907c3.5781-3.5742 5.8594-8.2422 6.4766-13.266 0.61328-5.0195-0.46484-10.102-3.0703-14.438l-6.4766-10.812c2.2852-4.5742 4.2461-9.3047 5.8672-14.156l12.203-3.0547h0.003907c4.918-1.2188 9.2852-4.0508 12.402-8.043 3.1211-3.9922 4.8086-8.9141 4.8008-13.98v-19.238c0.007813-5.0625-1.6797-9.9844-4.793-13.973-3.1172-3.9922-7.4805-6.8242-12.391-8.0469zm-116.01 83.207c-13.676 0-26.793-5.4336-36.465-15.105s-15.102-22.785-15.102-36.465c0-13.676 5.4297-26.793 15.102-36.461 9.6719-9.6719 22.789-15.105 36.465-15.105s26.793 5.4336 36.461 15.105c9.6719 9.668 15.105 22.785 15.105 36.461-0.015625 13.672-5.4531 26.781-15.121 36.449-9.668 9.668-22.773 15.105-36.445 15.121z" fill="#fff"/>
 </g>
 <g clip-path="url(#c)">
  <path d="m524 139.21h59.199c16.348 0 29.598 16.348 29.598 29.598v59.199c0 16.348-13.25 29.598-29.598 29.598h-59.199c-16.348 0-29.598-16.348-29.598-29.598v-59.199c0-16.348 13.25-29.598 29.598-29.598z" fill="#fff"/>
 </g>
 <g clip-path="url(#b)">
  <path d="m524 316.8h59.199c16.348 0 29.598 16.348 29.598 29.598v59.199c0 16.348-13.25 29.598-29.598 29.598h-59.199c-16.348 0-29.598-16.348-29.598-29.598v-59.199c0-16.348 13.25-29.598 29.598-29.598z" fill="#fff"/>
 </g>
 <g clip-path="url(#a)">
  <path d="m524 494.4h59.199c16.348 0 29.598 16.348 29.598 29.598v59.199c0 16.348-13.25 29.598-29.598 29.598h-59.199c-16.348 0-29.598-16.348-29.598-29.598v-59.199c0-16.348 13.25-29.598 29.598-29.598z" fill="#fff"/>
 </g>
 <path d="m509.2 390.8h-118.39c-5.2891 0-10.172-2.8203-12.816-7.3984-2.6445-4.582-2.6445-10.223 0-14.801 2.6445-4.5781 7.5273-7.3984 12.816-7.3984h118.39c5.2891 0 10.172 2.8203 12.816 7.3984 2.6445 4.5781 2.6445 10.219 0 14.801-2.6445 4.5781-7.5273 7.3984-12.816 7.3984z" fill="#fff"/>
 <path d="m450 390.8c-3.9258 0-7.6914-1.5586-10.465-4.3359-2.7773-2.7734-4.3359-6.5391-4.3359-10.465v-162.79c0.007812-7.8477 3.1289-15.371 8.6797-20.922 5.5469-5.5469 13.07-8.668 20.918-8.6758h44.398c5.2891 0 10.172 2.8203 12.816 7.3984 2.6445 4.5781 2.6445 10.223 0 14.801s-7.5273 7.3984-12.816 7.3984h-44.398v162.79c0 3.9258-1.5586 7.6914-4.332 10.465-2.7773 2.7773-6.543 4.3359-10.465 4.3359z" fill="#fff"/>
 <path d="m509.2 568.39h-44.398c-7.8477-0.007812-15.371-3.1289-20.918-8.6797-5.5508-5.5469-8.6719-13.074-8.6797-20.922v-162.79c0-5.2852 2.8203-10.172 7.3984-12.816 4.5781-2.6406 10.223-2.6406 14.801 0 4.5781 2.6445 7.3984 7.5312 7.3984 12.816v162.79h44.398c5.2891 0 10.172 2.8242 12.816 7.4023 2.6445 4.5781 2.6445 10.219 0 14.797-2.6445 4.582-7.5273 7.4023-12.816 7.4023z" fill="#fff"/>
</svg>
